<svg width="130" height="137" viewBox="0 0 130 137" fill="none" xmlns="http://www.w3.org/2000/svg">
<path d="M27.7225 0H0.499023V7.02516H27.7225V0Z" fill="#E3E3E3"/>
<path d="M58.9764 0H31.7529V7.02516H58.9764V0Z" fill="#E3E3E3"/>
<path d="M90.2288 0H63.0054V7.02516H90.2288V0Z" fill="#E3E3E3"/>
<path d="M110.157 9.56592H0.499023V10.842H110.157V9.56592Z" fill="#E3E3E3"/>
<path d="M78.2131 20.0911H14.1113V22.458H78.2131V20.0911Z" fill="#E3E3E3"/>
<path d="M129.5 93.0002H13.313V94.5939H129.5V93.0002Z" fill="#E3E3E3"/>
<path d="M58.334 1.06274H48.7661V1.91348H58.334V1.06274Z" fill="#FFBB4A"/>
<path d="M26.5318 1.06274H16.9639V1.91348H26.5318V1.06274Z" fill="#4DBAD9"/>
<path d="M78.0241 106.996H13.9224V109.363H78.0241V106.996Z" fill="#E3E3E3"/>
<path d="M90.6963 121.429H13.9224V123.898H90.6963V121.429Z" fill="#E3E3E3"/>
<path d="M73.9291 135.166H15.1982V136.228H73.9291V135.166Z" fill="#E3E3E3"/>
<path d="M105.728 41.7853C105.764 41.7532 105.8 41.7248 105.834 41.6927C105.97 41.5698 106.101 41.4412 106.231 41.3127C106.259 41.2862 106.288 41.2597 106.314 41.2333C106.445 41.1009 106.573 40.9667 106.7 40.8287C106.724 40.8022 106.751 40.7777 106.775 40.7493C106.902 40.6094 107.025 40.4676 107.144 40.322C107.167 40.2956 107.19 40.271 107.21 40.2445C107.333 40.0952 107.452 39.942 107.569 39.787C107.587 39.7643 107.605 39.7435 107.622 39.7209C107.74 39.5639 107.853 39.4014 107.965 39.2388C107.98 39.218 107.995 39.1972 108.01 39.1745C108.122 39.01 108.227 38.8418 108.331 38.6735C108.345 38.6527 108.358 38.6319 108.371 38.6111C108.471 38.4447 108.568 38.2746 108.662 38.1045C108.675 38.0799 108.692 38.0553 108.706 38.0288C108.798 37.8587 108.885 37.6848 108.972 37.5089C108.985 37.4825 109.001 37.456 109.014 37.4295C109.097 37.2575 109.173 37.0836 109.248 36.9096C109.262 36.8775 109.279 36.8473 109.292 36.8151C109.365 36.6431 109.432 36.4673 109.498 36.2915C109.511 36.2555 109.526 36.2196 109.539 36.1837C109.602 36.0117 109.66 35.8358 109.715 35.6619C109.728 35.6203 109.744 35.5806 109.757 35.539C109.81 35.3689 109.857 35.195 109.904 35.0229C109.918 34.9757 109.933 34.9284 109.944 34.8792C109.987 34.7091 110.025 34.537 110.063 34.3631C110.074 34.3102 110.088 34.2591 110.099 34.2062C110.135 34.0323 110.165 33.8546 110.194 33.6769C110.203 33.6258 110.212 33.5729 110.222 33.5218C110.248 33.3517 110.267 33.1797 110.288 33.0076C110.296 32.9471 110.305 32.8866 110.311 32.8261C110.328 32.656 110.339 32.4839 110.35 32.3119C110.354 32.2476 110.362 32.1852 110.366 32.121C110.377 31.8941 110.383 31.6654 110.383 31.4347C110.383 31.4253 110.383 31.4158 110.383 31.4064C110.383 28.529 109.507 25.8558 108.008 23.6382C107.634 23.0843 107.22 22.5587 106.772 22.0634C106.235 21.4717 105.643 20.931 105.012 20.4395C104.486 20.0311 103.93 19.6587 103.35 19.3278C102.28 18.7191 101.121 18.2446 99.8978 17.9364C98.805 17.6604 97.6632 17.5129 96.4854 17.5129C96.4722 17.5129 96.4608 17.5129 96.4476 17.5129C96.3058 17.5129 96.1678 17.5205 96.0279 17.5243C95.939 17.5281 95.8483 17.5262 95.7594 17.5318C95.5874 17.5413 95.4191 17.5564 95.249 17.5715C95.1866 17.5772 95.1242 17.5791 95.0618 17.5867C94.5987 17.6339 94.1412 17.7039 93.6912 17.7965C93.6364 17.8079 93.5816 17.823 93.5267 17.8343C93.3585 17.8702 93.1902 17.9081 93.0238 17.9496C92.952 17.9686 92.8802 17.9912 92.8083 18.0101C92.6609 18.0498 92.5153 18.0895 92.3697 18.1349C92.2903 18.1595 92.2128 18.1879 92.1334 18.2143C91.9973 18.2597 91.8631 18.3032 91.7289 18.3504C91.6457 18.3807 91.5644 18.4147 91.4831 18.4469C91.3564 18.496 91.2279 18.5433 91.1031 18.5962C91.018 18.6321 90.9367 18.6718 90.8516 18.7077C90.7307 18.7607 90.6097 18.8136 90.4924 18.8703C90.4074 18.91 90.3261 18.9554 90.241 18.997C90.1257 19.0556 90.0104 19.1123 89.8969 19.1728C89.8138 19.2182 89.7306 19.2673 89.6474 19.3127C89.5377 19.3751 89.4262 19.4375 89.3184 19.5018C89.2353 19.5528 89.154 19.6057 89.0727 19.6568C88.9687 19.723 88.8628 19.7891 88.7588 19.8572C88.6776 19.912 88.5963 19.9706 88.5169 20.0273C88.4167 20.0973 88.3165 20.1672 88.2182 20.2391C88.1369 20.2996 88.0593 20.3601 87.9799 20.4224C87.8854 20.4962 87.789 20.5699 87.6964 20.6455C87.6189 20.7098 87.5414 20.776 87.4657 20.8421C87.375 20.9197 87.2842 20.9972 87.1954 21.0766C87.1198 21.1446 87.046 21.2165 86.9704 21.2864C86.8853 21.3677 86.7984 21.4471 86.7152 21.5303C86.6415 21.604 86.5696 21.6796 86.4978 21.7534C86.4165 21.8366 86.3352 21.9197 86.2577 22.0048C86.1859 22.0823 86.1178 22.1617 86.0478 22.2411C85.9722 22.3281 85.8947 22.4132 85.821 22.502C85.7529 22.5833 85.6868 22.6665 85.6206 22.7497C85.5488 22.8385 85.4788 22.9274 85.4089 23.0181C85.3446 23.1032 85.2822 23.1902 85.2179 23.2771C85.1517 23.3679 85.0856 23.4605 85.0213 23.5531C84.9589 23.642 84.9003 23.7346 84.8417 23.8254C84.7812 23.9199 84.7188 24.0125 84.6602 24.109C84.6016 24.2016 84.5468 24.298 84.4919 24.3925C84.4352 24.4889 84.3785 24.5854 84.3256 24.6818C84.2726 24.7782 84.2197 24.8765 84.1687 24.9748C84.1176 25.0731 84.0666 25.1714 84.0174 25.2716C83.9683 25.3718 83.921 25.4739 83.8737 25.5741C83.8265 25.6743 83.7811 25.7745 83.7376 25.8766C83.6923 25.9806 83.6507 26.0845 83.6072 26.1904C83.5656 26.2925 83.524 26.3946 83.4862 26.4986C83.4465 26.6044 83.4068 26.7122 83.3709 26.82C83.3349 26.9239 83.299 27.0279 83.265 27.1338C83.2291 27.2434 83.1969 27.3531 83.1629 27.4646C83.1308 27.5705 83.1005 27.6764 83.0722 27.7841C83.0419 27.8957 83.0136 28.0091 82.9852 28.1225C82.9587 28.2303 82.9342 28.338 82.9096 28.4458C82.885 28.5611 82.8623 28.6764 82.8396 28.7918C82.8188 28.9014 82.7999 29.0111 82.781 29.1207C82.7621 29.2379 82.7432 29.3551 82.7281 29.4724C82.713 29.5839 82.6978 29.6954 82.6865 29.807C82.6733 29.9261 82.66 30.0452 82.6506 30.1643C82.6411 30.2777 82.6317 30.3893 82.6241 30.5027C82.6165 30.6237 82.6109 30.7447 82.6052 30.8657C82.6033 30.9186 82.5977 30.9734 82.5977 31.0264H81.2119H79.3195L36.0361 31.0301H12.9661L10.3062 32.69L10.3099 78.7752V84.7643L50.8445 84.7605H86.1121C86.1121 84.7605 86.1291 84.7587 86.1386 84.7587C86.2256 84.7587 86.3125 84.753 86.3995 84.7511C86.4864 84.7492 86.5734 84.7473 86.6585 84.7435C86.7492 84.7378 86.84 84.7284 86.9307 84.7208C87.0158 84.7133 87.1009 84.7095 87.1859 84.7C87.2748 84.6906 87.3636 84.6755 87.4525 84.6641C87.5357 84.6528 87.6208 84.6433 87.7039 84.6301C87.7909 84.615 87.8779 84.598 87.9648 84.5809C88.048 84.5658 88.1312 84.5507 88.2144 84.5318C88.3013 84.5129 88.3845 84.4902 88.4715 84.4675C88.5528 84.4467 88.636 84.4297 88.7173 84.407C88.8023 84.3824 88.8874 84.356 88.9725 84.3295C89.0519 84.3049 89.1313 84.2822 89.2088 84.2577C89.2939 84.2293 89.3752 84.1972 89.4583 84.1669C89.5359 84.1386 89.6134 84.1121 89.6909 84.0818C89.7722 84.0497 89.8535 84.0138 89.9348 83.9798C90.0104 83.9476 90.086 83.9174 90.1616 83.8833C90.2429 83.8474 90.3204 83.8058 90.3998 83.768C90.4735 83.7321 90.5473 83.6981 90.621 83.6603C90.7004 83.6187 90.7798 83.5733 90.8592 83.5298C90.9292 83.492 90.9991 83.4542 91.0672 83.4145C91.1466 83.3691 91.2241 83.3181 91.3016 83.2708C91.3678 83.2292 91.4358 83.1895 91.502 83.1479C91.5776 83.0988 91.6532 83.0458 91.727 82.9929C91.7912 82.9475 91.8574 82.9041 91.9217 82.8587C91.9954 82.8057 92.0673 82.7471 92.141 82.6923C92.2034 82.6451 92.2676 82.5978 92.3281 82.5486C92.4 82.49 92.4699 82.4295 92.5418 82.369C92.6004 82.318 92.6609 82.2707 92.7195 82.2197C92.7894 82.1573 92.8575 82.093 92.9256 82.0287C92.9823 81.9758 93.0409 81.9248 93.0957 81.8699C93.1637 81.8038 93.228 81.7357 93.2923 81.6695C93.3471 81.6147 93.402 81.5599 93.4549 81.5032C93.5192 81.4351 93.5797 81.3633 93.6421 81.2933C93.6931 81.2347 93.7479 81.178 93.7971 81.1194C93.8595 81.0457 93.92 80.9701 93.9805 80.8944C94.0277 80.8358 94.0769 80.7772 94.1241 80.7167C94.1846 80.6392 94.2413 80.5598 94.2981 80.4804C94.3434 80.4199 94.3888 80.3594 94.4323 80.2989C94.489 80.2195 94.5419 80.1363 94.5949 80.0531C94.6365 79.9889 94.68 79.9284 94.7215 79.8641C94.7745 79.779 94.8255 79.6921 94.8766 79.607C94.9144 79.5427 94.9541 79.4803 94.9919 79.4142C95.0429 79.3253 95.0883 79.2346 95.1356 79.1457C95.1696 79.0795 95.2074 79.0153 95.2414 78.9491C95.2868 78.8583 95.3303 78.7638 95.3738 78.6731C95.4059 78.605 95.4399 78.5388 95.4702 78.4708C95.5118 78.38 95.5477 78.2874 95.5874 78.1948C95.6176 78.1229 95.6498 78.0511 95.6781 77.9793C95.716 77.8828 95.75 77.7864 95.7859 77.69C95.8124 77.6182 95.8407 77.5482 95.8634 77.4764C95.8993 77.3705 95.9315 77.2608 95.9655 77.155C95.9863 77.0907 96.0071 77.0264 96.026 76.9622C96.0562 76.8563 96.0827 76.7485 96.1111 76.6408C96.1281 76.5727 96.1489 76.5046 96.1659 76.4366C96.1924 76.3232 96.2169 76.2078 96.2396 76.0925C96.2529 76.0282 96.268 75.9659 96.2812 75.8997C96.3039 75.7844 96.3209 75.6671 96.3398 75.5499C96.3512 75.4838 96.3625 75.4195 96.372 75.3533C96.389 75.2285 96.4022 75.1 96.4173 74.9733C96.423 74.9147 96.4324 74.8561 96.4381 74.7975C96.4532 74.6425 96.4627 74.4856 96.4722 74.3287C96.4722 74.2965 96.4778 74.2663 96.4797 74.2341C96.4892 74.0451 96.493 73.8541 96.493 73.6632V59.8227L96.4911 46.6004V45.3017C96.5024 45.3017 96.5175 45.3017 96.5289 45.3017C96.6442 45.3017 96.7576 45.296 96.8711 45.2922C96.9883 45.2884 97.1074 45.2884 97.2246 45.2828C97.3456 45.2771 97.4647 45.2638 97.5857 45.2544C97.701 45.2449 97.8163 45.2393 97.9297 45.2279C98.0507 45.2147 98.1698 45.1977 98.2889 45.1826C98.4005 45.1674 98.512 45.1561 98.6236 45.1391C98.7446 45.1202 98.8637 45.0975 98.9828 45.0748C99.0905 45.0559 99.2002 45.0389 99.306 45.0162C99.4289 44.9916 99.548 44.9614 99.669 44.933C99.7711 44.9084 99.8751 44.8876 99.9753 44.8612C100.1 44.829 100.221 44.7912 100.344 44.7572C100.44 44.7288 100.537 44.7043 100.633 44.674C100.76 44.6343 100.885 44.5889 101.011 44.5455C101.1 44.5152 101.189 44.4868 101.278 44.4547C101.406 44.4074 101.533 44.3545 101.66 44.3035C101.743 44.2694 101.826 44.2392 101.907 44.2052C102.038 44.1503 102.165 44.0898 102.293 44.0312C102.369 43.9953 102.446 43.9632 102.522 43.9273C102.656 43.863 102.786 43.793 102.917 43.725C102.985 43.689 103.053 43.6569 103.119 43.621C103.255 43.5473 103.388 43.4679 103.522 43.3903C103.581 43.3563 103.643 43.3223 103.701 43.2864C103.84 43.2032 103.972 43.1143 104.106 43.0274C104.159 42.9933 104.212 42.9612 104.263 42.9253C104.399 42.8326 104.533 42.7362 104.666 42.6398C104.713 42.6058 104.76 42.5736 104.807 42.5396C104.944 42.4375 105.076 42.3317 105.208 42.2239C105.25 42.1918 105.291 42.1596 105.331 42.1256C105.467 42.014 105.598 41.8987 105.728 41.7815V41.7853Z" fill="#E3E3E3"/>
<path d="M102.509 38.2091C102.545 38.177 102.581 38.1486 102.615 38.1165C102.751 37.9936 102.882 37.865 103.012 37.7365C103.041 37.71 103.069 37.6836 103.095 37.6571C103.226 37.5248 103.354 37.3905 103.481 37.2525C103.506 37.2261 103.532 37.2015 103.557 37.1731C103.683 37.0332 103.806 36.8914 103.925 36.7459C103.948 36.7194 103.971 36.6948 103.992 36.6684C104.114 36.519 104.234 36.3659 104.351 36.2108C104.368 36.1882 104.387 36.1674 104.404 36.1447C104.521 35.9878 104.634 35.8252 104.746 35.6626C104.761 35.6418 104.776 35.621 104.791 35.5983C104.903 35.4338 105.009 35.2656 105.113 35.0973C105.126 35.0765 105.139 35.0557 105.152 35.0349C105.253 34.8686 105.349 34.6984 105.443 34.5283C105.457 34.5037 105.474 34.4791 105.487 34.4527C105.58 34.2825 105.667 34.1086 105.754 33.9328C105.767 33.9063 105.782 33.8798 105.795 33.8534C105.878 33.6813 105.954 33.5074 106.03 33.3335C106.043 33.3013 106.06 33.2711 106.073 33.2389C106.147 33.0669 106.213 32.8911 106.279 32.7153C106.292 32.6794 106.307 32.6434 106.321 32.6075C106.383 32.4355 106.442 32.2597 106.496 32.0857C106.51 32.0441 106.525 32.0044 106.538 31.9629C106.591 31.7927 106.638 31.6188 106.686 31.4467C106.699 31.3995 106.714 31.3522 106.725 31.3031C106.769 31.1329 106.807 30.9609 106.844 30.7869C106.856 30.734 106.869 30.683 106.88 30.63C106.916 30.4561 106.946 30.2784 106.975 30.1007C106.984 30.0497 106.994 29.9967 107.003 29.9457C107.03 29.7755 107.049 29.6035 107.069 29.4314C107.077 29.371 107.086 29.3105 107.092 29.25C107.109 29.0798 107.12 28.9078 107.132 28.7357C107.135 28.6715 107.143 28.6091 107.147 28.5448C107.158 28.3179 107.164 28.0892 107.164 27.8585C107.164 27.8491 107.164 27.8396 107.164 27.8302C107.164 24.9528 106.289 22.2796 104.789 20.062C104.415 19.5081 104.001 18.9826 103.553 18.4872C103.016 17.8955 102.424 17.3548 101.793 16.8633C101.267 16.4549 100.711 16.0825 100.131 15.7517C99.0611 15.1429 97.9022 14.6684 96.679 14.3602C95.5863 14.0842 94.4444 13.9368 93.2666 13.9368C93.2534 13.9368 93.2421 13.9368 93.2288 13.9368C93.087 13.9368 92.949 13.9443 92.8091 13.9481C92.7203 13.9519 92.6295 13.95 92.5407 13.9557C92.3686 13.9651 92.2004 13.9802 92.0302 13.9954C91.9679 14.001 91.9055 14.0029 91.8431 14.0105C91.3799 14.0578 90.9224 14.1277 90.4725 14.2203C90.4176 14.2317 90.3628 14.2468 90.308 14.2582C90.1397 14.2941 89.9715 14.3319 89.8051 14.3735C89.7333 14.3924 89.6614 14.4151 89.5896 14.434C89.4421 14.4737 89.2966 14.5134 89.151 14.5587C89.0716 14.5833 88.9941 14.6117 88.9147 14.6382C88.7786 14.6835 88.6443 14.727 88.5101 14.7743C88.4269 14.8045 88.3456 14.8385 88.2643 14.8707C88.1377 14.9198 88.0091 14.9671 87.8843 15.02C87.7993 15.056 87.718 15.0957 87.6329 15.1316C87.5119 15.1845 87.3909 15.2374 87.2737 15.2942C87.1886 15.3339 87.1073 15.3792 87.0223 15.4208C86.9069 15.4794 86.7916 15.5361 86.6782 15.5966C86.595 15.642 86.5118 15.6912 86.4286 15.7365C86.319 15.7989 86.2075 15.8613 86.0997 15.9256C86.0165 15.9766 85.9352 16.0296 85.8539 16.0806C85.7499 16.1468 85.6441 16.213 85.5401 16.281C85.4588 16.3358 85.3775 16.3944 85.2981 16.4512C85.1979 16.5211 85.0977 16.5911 84.9994 16.6629C84.9181 16.7234 84.8406 16.7839 84.7612 16.8463C84.6667 16.92 84.5703 16.9937 84.4776 17.0694C84.4001 17.1336 84.3226 17.1998 84.247 17.266C84.1562 17.3435 84.0655 17.421 83.9766 17.5004C83.901 17.5685 83.8273 17.6403 83.7517 17.7102C83.6666 17.7915 83.5796 17.8709 83.4964 17.9541C83.4227 18.0278 83.3509 18.1035 83.279 18.1772C83.1977 18.2604 83.1165 18.3436 83.0389 18.4286C82.9671 18.5062 82.899 18.5856 82.8291 18.665C82.7535 18.7519 82.676 18.837 82.6022 18.9258C82.5342 19.0071 82.468 19.0903 82.4018 19.1735C82.33 19.2624 82.26 19.3512 82.1901 19.442C82.1258 19.527 82.0634 19.614 81.9992 19.701C81.933 19.7917 81.8668 19.8843 81.8026 19.977C81.7402 20.0658 81.6815 20.1585 81.6229 20.2492C81.5624 20.3437 81.5001 20.4364 81.4415 20.5328C81.3828 20.6254 81.328 20.7218 81.2732 20.8164C81.2165 20.9128 81.1598 21.0092 81.1068 21.1056C81.0539 21.202 81.001 21.3003 80.9499 21.3986C80.8989 21.4969 80.8478 21.5953 80.7987 21.6955C80.7495 21.7957 80.7023 21.8977 80.655 21.9979C80.6077 22.0981 80.5624 22.1983 80.5189 22.3004C80.4735 22.4044 80.4319 22.5084 80.3884 22.6142C80.3468 22.7163 80.3052 22.8184 80.2674 22.9224C80.2277 23.0283 80.188 23.136 80.1521 23.2438C80.1162 23.3478 80.0803 23.4517 80.0462 23.5576C80.0103 23.6673 79.9782 23.7769 79.9442 23.8885C79.912 23.9943 79.8818 24.1002 79.8534 24.2079C79.8232 24.3195 79.7948 24.4329 79.7665 24.5464C79.74 24.6541 79.7154 24.7619 79.6908 24.8696C79.6663 24.985 79.6436 25.1003 79.6209 25.2156C79.6001 25.3252 79.5812 25.4349 79.5623 25.5445C79.5434 25.6618 79.5245 25.779 79.5093 25.8962C79.4942 26.0077 79.4791 26.1193 79.4678 26.2308C79.4545 26.3499 79.4413 26.469 79.4318 26.5881C79.4224 26.7015 79.4129 26.8131 79.4054 26.9265C79.3978 27.0475 79.3921 27.1685 79.3865 27.2895C79.3846 27.3424 79.3789 27.3973 79.3789 27.4502H77.9931H76.1007L32.8173 27.454H9.74736L7.0874 29.1138L7.09118 75.199V81.1882L47.6258 81.1844H82.8934C82.8934 81.1844 82.9104 81.1825 82.9198 81.1825C83.0068 81.1825 83.0938 81.1768 83.1807 81.1749C83.2677 81.173 83.3547 81.1711 83.4397 81.1674C83.5305 81.1617 83.6212 81.1522 83.712 81.1447C83.797 81.1371 83.8821 81.1333 83.9672 81.1239C84.056 81.1144 84.1449 81.0993 84.2337 81.088C84.3169 81.0766 84.402 81.0672 84.4852 81.0539C84.5721 81.0388 84.6591 81.0218 84.7461 81.0048C84.8293 80.9896 84.9124 80.9745 84.9956 80.9556C85.0826 80.9367 85.1658 80.914 85.2527 80.8913C85.334 80.8705 85.4172 80.8535 85.4985 80.8308C85.5836 80.8063 85.6686 80.7798 85.7537 80.7533C85.8331 80.7288 85.9125 80.7061 85.99 80.6815C86.0751 80.6531 86.1564 80.621 86.2396 80.5907C86.3171 80.5624 86.3946 80.5359 86.4721 80.5057C86.5534 80.4735 86.6347 80.4376 86.716 80.4036C86.7916 80.3714 86.8672 80.3412 86.9429 80.3072C87.0241 80.2712 87.1017 80.2297 87.1811 80.1918C87.2548 80.1559 87.3285 80.1219 87.4023 80.0841C87.4817 80.0425 87.5611 79.9971 87.6405 79.9536C87.7104 79.9158 87.7804 79.878 87.8484 79.8383C87.9278 79.7929 88.0053 79.7419 88.0828 79.6946C88.149 79.653 88.2171 79.6133 88.2832 79.5718C88.3589 79.5226 88.4345 79.4697 88.5082 79.4167C88.5725 79.3714 88.6387 79.3279 88.7029 79.2825C88.7767 79.2296 88.8485 79.171 88.9222 79.1161C88.9846 79.0689 89.0489 79.0216 89.1094 78.9725C89.1812 78.9139 89.2512 78.8534 89.323 78.7929C89.3816 78.7418 89.4421 78.6946 89.5007 78.6435C89.5707 78.5811 89.6387 78.5168 89.7068 78.4526C89.7635 78.3996 89.8221 78.3486 89.8769 78.2938C89.945 78.2276 90.0093 78.1595 90.0736 78.0934C90.1284 78.0386 90.1832 77.9837 90.2361 77.927C90.3004 77.859 90.3609 77.7871 90.4233 77.7172C90.4743 77.6586 90.5292 77.6018 90.5783 77.5432C90.6407 77.4695 90.7012 77.3939 90.7617 77.3183C90.809 77.2597 90.8581 77.201 90.9054 77.1405C90.9659 77.063 91.0226 76.9836 91.0793 76.9042C91.1247 76.8437 91.1701 76.7832 91.2135 76.7227C91.2703 76.6433 91.3232 76.5602 91.3761 76.477C91.4177 76.4127 91.4612 76.3522 91.5028 76.2879C91.5557 76.2029 91.6068 76.1159 91.6578 76.0308C91.6956 75.9665 91.7353 75.9041 91.7731 75.838C91.8242 75.7491 91.8696 75.6584 91.9168 75.5695C91.9508 75.5034 91.9887 75.4391 92.0227 75.3729C92.0681 75.2822 92.1115 75.1876 92.155 75.0969C92.1871 75.0288 92.2212 74.9627 92.2514 74.8946C92.293 74.8039 92.3289 74.7112 92.3686 74.6186C92.3989 74.5468 92.431 74.4749 92.4594 74.4031C92.4972 74.3067 92.5312 74.2102 92.5671 74.1138C92.5936 74.042 92.622 73.972 92.6447 73.9002C92.6806 73.7943 92.7127 73.6847 92.7467 73.5788C92.7675 73.5145 92.7883 73.4503 92.8072 73.386C92.8375 73.2801 92.864 73.1724 92.8923 73.0646C92.9093 72.9965 92.9301 72.9285 92.9471 72.8604C92.9736 72.747 92.9982 72.6317 93.0209 72.5163C93.0341 72.4521 93.0492 72.3897 93.0625 72.3235C93.0852 72.2082 93.1022 72.091 93.1211 71.9738C93.1324 71.9076 93.1438 71.8433 93.1532 71.7772C93.1702 71.6524 93.1835 71.5238 93.1986 71.3972C93.2043 71.3386 93.2137 71.2799 93.2194 71.2213C93.2345 71.0663 93.2439 70.9094 93.2534 70.7525C93.2534 70.7204 93.2591 70.6901 93.261 70.658C93.2704 70.4689 93.2742 70.278 93.2742 70.087V56.2465L93.2723 43.0243V41.7255C93.2837 41.7255 93.2988 41.7255 93.3101 41.7255C93.4254 41.7255 93.5389 41.7198 93.6523 41.716C93.7695 41.7123 93.8886 41.7122 94.0058 41.7066C94.1268 41.7009 94.2459 41.6877 94.3669 41.6782C94.4822 41.6688 94.5976 41.6631 94.711 41.6518C94.832 41.6385 94.9511 41.6215 95.0702 41.6064C95.1817 41.5913 95.2933 41.5799 95.4048 41.5629C95.5258 41.544 95.6449 41.5213 95.764 41.4986C95.8718 41.4797 95.9814 41.4627 96.0873 41.44C96.2102 41.4154 96.3293 41.3852 96.4503 41.3568C96.5524 41.3323 96.6563 41.3115 96.7565 41.285C96.8813 41.2529 97.0023 41.215 97.1252 41.181C97.2216 41.1527 97.318 41.1281 97.4144 41.0978C97.5411 41.0581 97.6659 41.0128 97.7925 40.9693C97.8814 40.939 97.9703 40.9107 98.0591 40.8785C98.1877 40.8313 98.3143 40.7783 98.441 40.7273C98.5242 40.6933 98.6073 40.663 98.6886 40.629C98.8191 40.5742 98.9458 40.5137 99.0743 40.4551C99.1499 40.4191 99.2274 40.387 99.3031 40.3511C99.4373 40.2868 99.5677 40.2169 99.6982 40.1488C99.7662 40.1129 99.8343 40.0807 99.9005 40.0448C100.037 39.9711 100.169 39.8917 100.303 39.8142C100.362 39.7801 100.424 39.7461 100.483 39.7102C100.621 39.627 100.753 39.5382 100.887 39.4512C100.94 39.4172 100.993 39.385 101.044 39.3491C101.18 39.2565 101.315 39.1601 101.447 39.0636C101.494 39.0296 101.541 38.9975 101.589 38.9634C101.725 38.8613 101.857 38.7555 101.989 38.6477C102.031 38.6156 102.073 38.5834 102.112 38.5494C102.248 38.4379 102.379 38.3226 102.509 38.2053V38.2091Z" fill="white"/>
<path d="M90.6077 27.4541L9.74463 27.4617L50.179 52.666L90.6077 27.4541Z" fill="#836ADF"/>
<path d="M7.08496 29.1194L7.08874 81.1937L82.8909 81.188C88.6249 81.188 93.2718 76.2197 93.2718 70.0907L93.268 29.1118L50.1793 55.9817L7.08496 29.1194Z" fill="#836ADF"/>
<path d="M76.0997 27.456C75.9957 28.1423 75.9409 28.8455 75.9409 29.562C75.9409 31.7683 76.457 33.8554 77.372 35.7081L90.6075 27.4541H76.0978L76.0997 27.456Z" fill="#4C2BBF"/>
<path d="M89.837 43.4552C91.0223 43.4552 92.1717 43.3059 93.2701 43.028V29.1138L78.8682 38.0937C81.4109 41.3587 85.3791 43.4571 89.837 43.4571V43.4552Z" fill="#4C2BBF"/>
<path d="M98.5957 40.6757C105.684 37.734 109.045 29.6034 106.103 22.5154C103.161 15.4275 95.0307 12.0663 87.9428 15.008C80.8548 17.9497 77.4936 26.0804 80.4354 33.1683C83.3771 40.2563 91.5077 43.6175 98.5957 40.6757Z" fill="#836ADF"/>
<path d="M95.5821 35.6273L92.3228 35.5762L92.4892 24.8475L90.4531 24.8154L90.5023 21.5562L95.7995 21.6374L95.5821 35.6273Z" fill="white"/>
<path d="M7.08933 81.2201H7.06286V81.1937L7.05908 29.1042L9.73794 27.433H9.74551L79.3525 27.4274C79.4564 23.8051 80.9405 20.4135 83.5362 17.8765C86.1413 15.328 89.5839 13.9196 93.2288 13.9102H93.2667C100.944 13.9102 107.19 20.1545 107.19 27.8319C107.19 31.5449 105.748 35.0367 103.126 37.6645C100.505 40.2923 97.0174 41.7442 93.3064 41.7556H93.295V70.0907C93.2969 73.0569 92.2174 75.8454 90.2589 77.9458C88.2984 80.0461 85.6914 81.2069 82.9161 81.2145H82.8896L7.08744 81.2201H7.08933ZM7.11202 29.1345L7.1158 81.1672L82.918 81.1615C85.6781 81.154 88.2719 79.9989 90.221 77.9098C92.1721 75.8208 93.2459 73.0437 93.2459 70.0907V41.7027H93.3083C97.0042 41.6932 100.479 40.2451 103.09 37.6286C105.701 35.0102 107.139 31.5317 107.139 27.8338C107.139 20.1867 100.918 13.9669 93.2704 13.9669H93.2307C89.6009 13.9763 86.1715 15.3791 83.5759 17.9181C80.984 20.4513 79.5037 23.8392 79.4073 27.4576V27.4841H76.1008L9.75496 27.4897L7.1139 29.1364L7.11202 29.1345Z" fill="#140A3E"/>
<path d="M101.718 85.3529C101.302 84.5324 100.886 83.7119 100.472 82.8915C99.404 80.7816 98.3359 78.6718 97.2658 76.5601C96.6382 75.3218 96.0105 74.0817 95.3829 72.8434L95.3715 72.8207C94.4471 70.9944 92.2219 70.2628 90.3995 71.1835L87.0363 72.8868C85.9662 71.5351 84.0587 71.0719 82.4669 71.8773L79.0526 73.6052C78.9808 73.6412 78.9089 73.6809 78.839 73.7225C77.7519 72.4728 75.9181 72.0645 74.3773 72.8453L70.8478 74.6318L65.8927 64.8465C65.8492 64.7595 65.802 64.6763 65.7547 64.5931C65.7396 64.5686 65.7245 64.544 65.7093 64.5194C65.6753 64.4608 65.6394 64.4041 65.6016 64.3493C65.594 64.336 65.5864 64.3228 65.577 64.3115C65.5713 64.302 65.5638 64.2944 65.5562 64.285C64.161 62.2376 61.4273 61.487 59.1644 62.6327L57.6122 63.4191C55.1489 64.6669 54.1658 67.6804 55.4174 70.1513L66.2859 91.6143L63.0815 89.7143C62.9983 89.6652 62.9132 89.6179 62.8301 89.5744C62.8055 89.5612 62.779 89.5499 62.7526 89.5366C62.6921 89.5064 62.6316 89.478 62.5711 89.4497C62.5578 89.444 62.5446 89.4364 62.5295 89.4308C62.52 89.427 62.5087 89.4232 62.4973 89.4194C60.223 88.4401 57.5196 89.2776 56.2284 91.4631L55.3436 92.9622C53.939 95.3367 54.7292 98.4183 57.1037 99.8305L76.6063 112.522C76.8539 112.669 77.0543 112.885 77.1848 113.142L79.6046 117.919C80.5291 119.745 82.7542 120.477 84.5767 119.556L102.141 110.661C103.179 110.136 103.917 109.136 104.113 107.984C104.113 107.984 102.624 88.7691 102.622 88.7596C102.554 87.718 102.55 86.992 102.119 86.1526C101.983 85.8879 101.85 85.6214 101.716 85.3567L101.718 85.3529Z" fill="#FDEEC8"/>
<path d="M101.718 85.3529C101.302 84.5324 100.886 83.7119 100.472 82.8915C99.404 80.7816 98.3359 78.6718 97.2658 76.5601C96.6382 75.3218 96.0105 74.0817 95.3829 72.8434L95.3715 72.8207C94.4471 70.9944 92.2219 70.2628 90.3995 71.1835L87.0363 72.8868C85.9662 71.5351 84.0587 71.0719 82.4669 71.8773L79.0526 73.6052C78.9808 73.6412 78.9089 73.6809 78.839 73.7225C77.7519 72.4728 75.9181 72.0645 74.3773 72.8453L70.8478 74.6318L65.8927 64.8465C65.8492 64.7595 65.802 64.6763 65.7547 64.5931C65.7396 64.5686 65.7245 64.544 65.7093 64.5194C65.6753 64.4608 65.6394 64.4041 65.6016 64.3493C65.594 64.336 65.5864 64.3228 65.577 64.3115C65.5713 64.302 65.5638 64.2944 65.5562 64.285C64.161 62.2376 61.4273 61.487 59.1644 62.6327L57.6122 63.4191C55.1489 64.6669 54.1658 67.6804 55.4174 70.1513L66.2859 91.6143L63.0815 89.7143C62.9983 89.6652 62.9132 89.6179 62.8301 89.5744C62.8055 89.5612 62.779 89.5499 62.7526 89.5366C62.6921 89.5064 62.6316 89.478 62.5711 89.4497C62.5578 89.444 62.5446 89.4364 62.5295 89.4308C62.52 89.427 62.5087 89.4232 62.4973 89.4194C60.223 88.4401 57.5196 89.2776 56.2284 91.4631L55.3436 92.9622C53.939 95.3367 54.7292 98.4183 57.1037 99.8305L76.6063 112.522C76.8539 112.669 77.0543 112.885 77.1848 113.142L79.6046 117.919C80.5291 119.745 82.7542 120.477 84.5767 119.556L102.141 110.661C103.179 110.136 103.917 109.136 104.113 107.984C104.113 107.984 102.624 88.7691 102.622 88.7596C102.554 87.718 102.55 86.992 102.119 86.1526C101.983 85.8879 101.85 85.6214 101.716 85.3567L101.718 85.3529ZM99.3341 87.3833C99.6214 87.9524 99.6479 88.2946 99.7254 89.5045L101.113 107.463C101.079 107.665 100.949 107.843 100.765 107.935L83.2004 116.83C82.879 116.993 82.4858 116.864 82.3232 116.541L79.461 110.888C79.304 110.58 79.0639 110.323 78.7671 110.147L58.6558 97.2027C57.7276 96.6506 57.4175 95.4445 57.9677 94.5163L58.8524 93.0171C59.3648 92.1512 60.4424 91.8261 61.3385 92.2325C61.3574 92.242 61.3763 92.2514 61.3971 92.2609C61.4103 92.2665 61.4235 92.2741 61.4368 92.2798C61.4689 92.2968 61.5029 92.3157 61.5351 92.3346L68.9742 96.783C69.6492 97.2386 70.1218 97.3558 70.7135 97.0571C71.4187 96.6998 71.8857 95.9285 71.4527 95.0758L58.134 68.775C57.6444 67.8089 58.03 66.6292 58.9923 66.1415L60.5444 65.355C61.4405 64.9013 62.5257 65.2076 63.0664 66.0318C63.0777 66.0488 63.0891 66.0677 63.1004 66.0867C63.108 66.0999 63.1155 66.1112 63.1231 66.1245C63.142 66.1566 63.159 66.1887 63.176 66.2228L69.0177 77.7587L73.4699 86.5496C73.8367 87.2756 74.7025 87.631 75.4493 87.3134C76.266 86.9636 76.6044 86.0033 76.2093 85.2225L72.2259 77.3579L75.7555 75.5714C76.0769 75.4088 76.4702 75.5374 76.6327 75.8606L77.2528 77.0876L80.7805 84.0541C81.1473 84.7801 82.0132 85.1355 82.7599 84.8179C83.5766 84.4682 83.9169 83.5078 83.5199 82.727L80.3192 76.407C80.3514 76.3805 80.3873 76.3559 80.4289 76.3352L83.8432 74.6072C84.1646 74.4446 84.5578 74.5732 84.7204 74.8965L85.2176 75.8795L88.1819 81.7326C88.5487 82.4585 89.4145 82.814 90.1613 82.4963C90.978 82.1466 91.3164 81.1862 90.9213 80.4054L88.4806 75.5846L91.7777 73.9153C92.0991 73.7527 92.4923 73.8813 92.6549 74.2045L99.3322 87.3928L99.3341 87.3833Z" fill="#140A3E"/>
</svg>
