<svg width="112" height="137" viewBox="0 0 112 137" fill="none" xmlns="http://www.w3.org/2000/svg">
<path d="M27.8123 0H0.588867V7.02516H27.8123V0Z" fill="#E3E3E3"/>
<path d="M59.0662 0H31.8428V7.02516H59.0662V0Z" fill="#E3E3E3"/>
<path d="M90.3187 0H63.0952V7.02516H90.3187V0Z" fill="#E3E3E3"/>
<path d="M110.247 9.56586H0.588867V10.842H110.247V9.56586Z" fill="#E3E3E3"/>
<path d="M78.3029 20.0911H14.2012V22.4581H78.3029V20.0911Z" fill="#E3E3E3"/>
<path d="M96.0898 93H13.0898V95H96.0898V93Z" fill="#E3E3E3"/>
<path d="M58.4239 1.06262H48.856V1.91335H58.4239V1.06262Z" fill="#FFBB4A"/>
<path d="M26.6216 1.06262H17.0537V1.91335H26.6216V1.06262Z" fill="#4DBAD9"/>
<path d="M78.114 106.996H14.0122V109.363H78.114V106.996Z" fill="#E3E3E3"/>
<path d="M90.7861 121.429H14.0122V123.898H90.7861V121.429Z" fill="#E3E3E3"/>
<path d="M74.0189 135.166H15.2881V136.228H74.0189V135.166Z" fill="#E3E3E3"/>
<path d="M105.818 41.7851C105.854 41.753 105.89 41.7246 105.924 41.6925C106.06 41.5696 106.19 41.441 106.321 41.3125C106.349 41.286 106.378 41.2596 106.404 41.2331C106.534 41.1007 106.663 40.9665 106.79 40.8285C106.814 40.802 106.841 40.7775 106.865 40.7491C106.992 40.6092 107.115 40.4674 107.234 40.3219C107.257 40.2954 107.279 40.2708 107.3 40.2443C107.423 40.095 107.542 39.9419 107.659 39.7868C107.676 39.7641 107.695 39.7434 107.712 39.7207C107.829 39.5638 107.943 39.4012 108.054 39.2386C108.07 39.2178 108.085 39.197 108.1 39.1743C108.211 39.0098 108.317 38.8416 108.421 38.6733C108.434 38.6525 108.448 38.6317 108.461 38.6109C108.561 38.4446 108.658 38.2744 108.752 38.1043C108.765 38.0797 108.782 38.0551 108.796 38.0287C108.888 37.8585 108.975 37.6846 109.062 37.5088C109.075 37.4823 109.09 37.4558 109.104 37.4294C109.187 37.2573 109.262 37.0834 109.338 36.9095C109.351 36.8773 109.368 36.8471 109.382 36.8149C109.455 36.6429 109.521 36.4671 109.588 36.2913C109.601 36.2553 109.616 36.2194 109.629 36.1835C109.692 36.0115 109.75 35.8357 109.805 35.6617C109.818 35.6201 109.833 35.5804 109.847 35.5388C109.9 35.3687 109.947 35.1948 109.994 35.0227C110.007 34.9755 110.022 34.9282 110.034 34.879C110.077 34.7089 110.115 34.5369 110.153 34.3629C110.164 34.31 110.178 34.259 110.189 34.206C110.225 34.0321 110.255 33.8544 110.283 33.6767C110.293 33.6256 110.302 33.5727 110.312 33.5217C110.338 33.3515 110.357 33.1795 110.378 33.0074C110.385 32.9469 110.395 32.8864 110.401 32.826C110.418 32.6558 110.429 32.4838 110.44 32.3117C110.444 32.2475 110.452 32.1851 110.455 32.1208C110.467 31.8939 110.472 31.6652 110.472 31.4345C110.472 31.4251 110.472 31.4156 110.472 31.4062C110.472 28.5288 109.597 25.8556 108.098 23.638C107.724 23.0841 107.31 22.5585 106.862 22.0632C106.325 21.4715 105.733 20.9308 105.101 20.4393C104.576 20.0309 104.02 19.6585 103.44 19.3277C102.37 18.7189 101.211 18.2444 99.9876 17.9362C98.8949 17.6602 97.753 17.5128 96.5752 17.5128C96.562 17.5128 96.5507 17.5128 96.5374 17.5128C96.3956 17.5128 96.2576 17.5203 96.1177 17.5241C96.0289 17.5279 95.9381 17.526 95.8493 17.5317C95.6772 17.5411 95.509 17.5562 95.3388 17.5714C95.2765 17.577 95.2141 17.5789 95.1517 17.5865C94.6885 17.6337 94.231 17.7037 93.7811 17.7963C93.7262 17.8077 93.6714 17.8228 93.6166 17.8341C93.4483 17.8701 93.2801 17.9079 93.1137 17.9495C93.0419 17.9684 92.97 17.9911 92.8982 18.01C92.7507 18.0497 92.6051 18.0894 92.4596 18.1347C92.3802 18.1593 92.3027 18.1877 92.2233 18.2141C92.0872 18.2595 91.9529 18.303 91.8187 18.3503C91.7355 18.3805 91.6542 18.4145 91.5729 18.4467C91.4463 18.4958 91.3177 18.5431 91.1929 18.596C91.1079 18.6319 91.0266 18.6716 90.9415 18.7076C90.8205 18.7605 90.6995 18.8134 90.5823 18.8701C90.4972 18.9099 90.4159 18.9552 90.3309 18.9968C90.2155 19.0554 90.1002 19.1121 89.9868 19.1726C89.9036 19.218 89.8204 19.2672 89.7372 19.3125C89.6276 19.3749 89.516 19.4373 89.4083 19.5016C89.3251 19.5526 89.2438 19.6056 89.1625 19.6566C89.0585 19.7228 88.9527 19.7889 88.8487 19.857C88.7674 19.9118 88.6861 19.9704 88.6067 20.0271C88.5065 20.0971 88.4063 20.167 88.308 20.2389C88.2267 20.2994 88.1492 20.3599 88.0698 20.4223C87.9753 20.496 87.8789 20.5697 87.7862 20.6453C87.7087 20.7096 87.6312 20.7758 87.5556 20.842C87.4648 20.9195 87.3741 20.997 87.2852 21.0764C87.2096 21.1444 87.1359 21.2163 87.0603 21.2862C86.9752 21.3675 86.8882 21.4469 86.805 21.5301C86.7313 21.6038 86.6595 21.6795 86.5876 21.7532C86.5063 21.8364 86.425 21.9196 86.3475 22.0046C86.2757 22.0821 86.2076 22.1615 86.1377 22.2409C86.0621 22.3279 85.9846 22.413 85.9108 22.5018C85.8428 22.5831 85.7766 22.6663 85.7104 22.7495C85.6386 22.8383 85.5686 22.9272 85.4987 23.0179C85.4344 23.103 85.372 23.19 85.3078 23.2769C85.2416 23.3677 85.1754 23.4603 85.1111 23.553C85.0488 23.6418 84.9901 23.7344 84.9315 23.8252C84.871 23.9197 84.8087 24.0124 84.75 24.1088C84.6914 24.2014 84.6366 24.2978 84.5818 24.3923C84.5251 24.4888 84.4684 24.5852 84.4154 24.6816C84.3625 24.778 84.3096 24.8763 84.2585 24.9746C84.2075 25.0729 84.1564 25.1712 84.1073 25.2714C84.0581 25.3716 84.0109 25.4737 83.9636 25.5739C83.9163 25.6741 83.871 25.7743 83.8275 25.8764C83.7821 25.9804 83.7405 26.0844 83.697 26.1902C83.6554 26.2923 83.6138 26.3944 83.576 26.4984C83.5363 26.6043 83.4966 26.712 83.4607 26.8198C83.4248 26.9238 83.3889 27.0277 83.3548 27.1336C83.3189 27.2432 83.2868 27.3529 83.2528 27.4644C83.2206 27.5703 83.1904 27.6762 83.162 27.7839C83.1318 27.8955 83.1034 28.0089 83.0751 28.1223C83.0486 28.2301 83.024 28.3379 82.9994 28.4456C82.9748 28.5609 82.9522 28.6763 82.9295 28.7916C82.9087 28.9012 82.8898 29.0109 82.8709 29.1205C82.852 29.2377 82.8331 29.355 82.8179 29.4722C82.8028 29.5837 82.7877 29.6953 82.7763 29.8068C82.7631 29.9259 82.7499 30.045 82.7404 30.1641C82.731 30.2775 82.7215 30.3891 82.714 30.5025C82.7064 30.6235 82.7007 30.7445 82.6951 30.8655C82.6932 30.9184 82.6875 30.9732 82.6875 31.0262H81.3017H79.4093L36.1259 31.03H13.056L10.396 32.6898L10.3998 78.775V84.7641L50.9344 84.7604H86.202C86.202 84.7604 86.219 84.7585 86.2284 84.7585C86.3154 84.7585 86.4024 84.7528 86.4893 84.7509C86.5763 84.749 86.6633 84.7471 86.7483 84.7433C86.8391 84.7377 86.9298 84.7282 87.0206 84.7206C87.1056 84.7131 87.1907 84.7093 87.2758 84.6999C87.3646 84.6904 87.4535 84.6753 87.5423 84.6639C87.6255 84.6526 87.7106 84.6431 87.7938 84.6299C87.8807 84.6148 87.9677 84.5978 88.0547 84.5808C88.1378 84.5656 88.221 84.5505 88.3042 84.5316C88.3912 84.5127 88.4744 84.49 88.5613 84.4673C88.6426 84.4465 88.7258 84.4295 88.8071 84.4068C88.8922 84.3823 88.9772 84.3558 89.0623 84.3293C89.1417 84.3047 89.2211 84.2821 89.2986 84.2575C89.3837 84.2291 89.465 84.197 89.5482 84.1667C89.6257 84.1384 89.7032 84.1119 89.7807 84.0817C89.862 84.0495 89.9433 84.0136 90.0246 83.9796C90.1002 83.9474 90.1758 83.9172 90.2514 83.8832C90.3327 83.8472 90.4103 83.8056 90.4897 83.7678C90.5634 83.7319 90.6371 83.6979 90.7109 83.6601C90.7903 83.6185 90.8696 83.5731 90.9491 83.5296C91.019 83.4918 91.089 83.454 91.157 83.4143C91.2364 83.3689 91.3139 83.3179 91.3914 83.2706C91.4576 83.229 91.5257 83.1893 91.5918 83.1477C91.6674 83.0986 91.7431 83.0457 91.8168 82.9927C91.8811 82.9474 91.9473 82.9039 92.0115 82.8585C92.0853 82.8056 92.1571 82.747 92.2308 82.6921C92.2932 82.6449 92.3575 82.5976 92.418 82.5484C92.4898 82.4898 92.5598 82.4293 92.6316 82.3689C92.6902 82.3178 92.7507 82.2705 92.8093 82.2195C92.8793 82.1571 92.9473 82.0928 93.0154 82.0286C93.0721 81.9756 93.1307 81.9246 93.1855 81.8698C93.2536 81.8036 93.3179 81.7355 93.3822 81.6694C93.437 81.6145 93.4918 81.5597 93.5447 81.503C93.609 81.4349 93.6695 81.3631 93.7319 81.2931C93.7829 81.2345 93.8378 81.1778 93.8869 81.1192C93.9493 81.0455 94.0098 80.9699 94.0703 80.8942C94.1176 80.8356 94.1667 80.777 94.214 80.7165C94.2745 80.639 94.3312 80.5596 94.3879 80.4802C94.4333 80.4197 94.4787 80.3592 94.5221 80.2987C94.5788 80.2193 94.6318 80.1361 94.6847 80.053C94.7263 79.9887 94.7698 79.9282 94.8114 79.8639C94.8643 79.7788 94.9154 79.6919 94.9664 79.6068C95.0042 79.5425 95.0439 79.4801 95.0817 79.414C95.1328 79.3251 95.1781 79.2344 95.2254 79.1455C95.2594 79.0793 95.2972 79.0151 95.3313 78.9489C95.3766 78.8582 95.4201 78.7636 95.4636 78.6729C95.4957 78.6048 95.5298 78.5387 95.56 78.4706C95.6016 78.3799 95.6375 78.2872 95.6772 78.1946C95.7075 78.1227 95.7396 78.0509 95.768 77.9791C95.8058 77.8827 95.8398 77.7862 95.8757 77.6898C95.9022 77.618 95.9306 77.548 95.9533 77.4762C95.9892 77.3703 96.0213 77.2607 96.0553 77.1548C96.0761 77.0905 96.0969 77.0262 96.1158 76.962C96.1461 76.8561 96.1726 76.7483 96.2009 76.6406C96.2179 76.5725 96.2387 76.5045 96.2557 76.4364C96.2822 76.323 96.3068 76.2076 96.3295 76.0923C96.3427 76.028 96.3578 75.9657 96.3711 75.8995C96.3937 75.7842 96.4108 75.667 96.4297 75.5498C96.441 75.4836 96.4524 75.4193 96.4618 75.3531C96.4788 75.2284 96.4921 75.0998 96.5072 74.9731C96.5128 74.9145 96.5223 74.8559 96.528 74.7973C96.5431 74.6423 96.5525 74.4854 96.562 74.3285C96.562 74.2963 96.5677 74.2661 96.5696 74.234C96.579 74.0449 96.5828 73.854 96.5828 73.663V59.8225L96.5809 46.6003V45.3015C96.5922 45.3015 96.6074 45.3015 96.6187 45.3015C96.734 45.3015 96.8475 45.2958 96.9609 45.292C97.0781 45.2882 97.1972 45.2882 97.3144 45.2826C97.4354 45.2769 97.5545 45.2637 97.6755 45.2542C97.7908 45.2448 97.9062 45.2391 98.0196 45.2277C98.1406 45.2145 98.2597 45.1975 98.3788 45.1824C98.4903 45.1672 98.6019 45.1559 98.7134 45.1389C98.8344 45.12 98.9535 45.0973 99.0726 45.0746C99.1804 45.0557 99.29 45.0387 99.3959 45.016C99.5188 44.9914 99.6379 44.9612 99.7589 44.9328C99.861 44.9082 99.9649 44.8875 100.065 44.861C100.19 44.8288 100.311 44.791 100.434 44.757C100.53 44.7286 100.627 44.7041 100.723 44.6738C100.85 44.6341 100.974 44.5887 101.101 44.5453C101.19 44.515 101.279 44.4867 101.368 44.4545C101.496 44.4073 101.623 44.3543 101.75 44.3033C101.833 44.2693 101.916 44.239 101.997 44.205C102.128 44.1502 102.254 44.0897 102.383 44.031C102.459 43.9951 102.536 43.963 102.612 43.9271C102.746 43.8628 102.876 43.7928 103.007 43.7248C103.075 43.6889 103.143 43.6567 103.209 43.6208C103.345 43.5471 103.478 43.4677 103.612 43.3902C103.67 43.3561 103.733 43.3221 103.791 43.2862C103.929 43.203 104.062 43.1141 104.196 43.0272C104.249 42.9932 104.302 42.961 104.353 42.9251C104.489 42.8325 104.623 42.736 104.756 42.6396C104.803 42.6056 104.85 42.5735 104.897 42.5394C105.033 42.4373 105.166 42.3315 105.298 42.2237C105.34 42.1916 105.381 42.1594 105.421 42.1254C105.557 42.0139 105.688 41.8985 105.818 41.7813V41.7851Z" fill="#E3E3E3"/>
<path d="M102.599 38.2091C102.635 38.1769 102.671 38.1486 102.705 38.1164C102.841 37.9935 102.972 37.865 103.102 37.7364C103.13 37.71 103.159 37.6835 103.185 37.657C103.316 37.5247 103.444 37.3905 103.571 37.2525C103.596 37.226 103.622 37.2014 103.647 37.1731C103.773 37.0332 103.896 36.8914 104.015 36.7458C104.038 36.7193 104.061 36.6948 104.081 36.6683C104.204 36.5189 104.323 36.3658 104.441 36.2108C104.458 36.1881 104.477 36.1673 104.494 36.1446C104.611 35.9877 104.724 35.8251 104.836 35.6625C104.851 35.6417 104.866 35.6209 104.881 35.5983C104.993 35.4338 105.098 35.2655 105.202 35.0973C105.216 35.0765 105.229 35.0557 105.242 35.0349C105.342 34.8685 105.439 34.6984 105.533 34.5282C105.547 34.5036 105.564 34.4791 105.577 34.4526C105.669 34.2825 105.756 34.1085 105.843 33.9327C105.857 33.9062 105.872 33.8798 105.885 33.8533C105.968 33.6813 106.044 33.5073 106.119 33.3334C106.133 33.3013 106.15 33.271 106.163 33.2389C106.237 33.0669 106.303 32.891 106.369 32.7152C106.382 32.6793 106.397 32.6434 106.41 32.6075C106.473 32.4354 106.532 32.2596 106.586 32.0857C106.6 32.0441 106.615 32.0044 106.628 31.9628C106.681 31.7926 106.728 31.6187 106.775 31.4467C106.789 31.3994 106.804 31.3522 106.815 31.303C106.859 31.1329 106.896 30.9608 106.934 30.7869C106.946 30.734 106.959 30.6829 106.97 30.63C107.006 30.456 107.036 30.2783 107.065 30.1006C107.074 30.0496 107.084 29.9967 107.093 29.9456C107.119 29.7755 107.138 29.6034 107.159 29.4314C107.167 29.3709 107.176 29.3104 107.182 29.2499C107.199 29.0798 107.21 28.9077 107.222 28.7357C107.225 28.6714 107.233 28.609 107.237 28.5447C107.248 28.3179 107.254 28.0891 107.254 27.8585C107.254 27.849 107.254 27.8396 107.254 27.8301C107.254 24.9528 106.378 22.2796 104.879 20.062C104.505 19.5081 104.091 18.9825 103.643 18.4872C103.106 17.8955 102.514 17.3548 101.883 16.8632C101.357 16.4549 100.801 16.0824 100.221 15.7516C99.1509 15.1429 97.992 14.6683 96.7689 14.3602C95.6761 14.0842 94.5343 13.9367 93.3565 13.9367C93.3432 13.9367 93.3319 13.9367 93.3187 13.9367C93.1769 13.9367 93.0389 13.9443 92.899 13.948C92.8101 13.9518 92.7194 13.9499 92.6305 13.9556C92.4585 13.9651 92.2902 13.9802 92.1201 13.9953C92.0577 14.001 91.9953 14.0029 91.9329 14.0104C91.4697 14.0577 91.0122 14.1276 90.5623 14.2203C90.5075 14.2316 90.4527 14.2468 90.3978 14.2581C90.2296 14.294 90.0613 14.3318 89.8949 14.3734C89.8231 14.3923 89.7513 14.415 89.6794 14.4339C89.532 14.4736 89.3864 14.5133 89.2408 14.5587C89.1614 14.5833 89.0839 14.6116 89.0045 14.6381C88.8684 14.6835 88.7342 14.7269 88.5999 14.7742C88.5168 14.8045 88.4355 14.8385 88.3542 14.8706C88.2275 14.9198 88.099 14.967 87.9742 15.02C87.8891 15.0559 87.8078 15.0956 87.7227 15.1315C87.6017 15.1844 87.4808 15.2374 87.3635 15.2941C87.2785 15.3338 87.1972 15.3792 87.1121 15.4208C86.9968 15.4794 86.8815 15.5361 86.768 15.5966C86.6849 15.642 86.6017 15.6911 86.5185 15.7365C86.4088 15.7989 86.2973 15.8613 86.1895 15.9255C86.1064 15.9766 86.0251 16.0295 85.9438 16.0806C85.8398 16.1467 85.7339 16.2129 85.6299 16.2809C85.5486 16.3358 85.4674 16.3944 85.388 16.4511C85.2878 16.521 85.1876 16.591 85.0892 16.6628C85.008 16.7233 84.9304 16.7838 84.851 16.8462C84.7565 16.9199 84.6601 16.9937 84.5675 17.0693C84.49 17.1336 84.4125 17.1997 84.3368 17.2659C84.2461 17.3434 84.1553 17.4209 84.0665 17.5003C83.9909 17.5684 83.9171 17.6402 83.8415 17.7102C83.7564 17.7915 83.6695 17.8709 83.5863 17.9541C83.5126 18.0278 83.4407 18.1034 83.3689 18.1771C83.2876 18.2603 83.2063 18.3435 83.1288 18.4286C83.0569 18.5061 82.9889 18.5855 82.9189 18.6649C82.8433 18.7519 82.7658 18.8369 82.6921 18.9258C82.624 19.0071 82.5579 19.0903 82.4917 19.1734C82.4198 19.2623 82.3499 19.3512 82.2799 19.4419C82.2157 19.527 82.1533 19.6139 82.089 19.7009C82.0228 19.7916 81.9567 19.8843 81.8924 19.9769C81.83 20.0658 81.7714 20.1584 81.7128 20.2491C81.6523 20.3437 81.5899 20.4363 81.5313 20.5327C81.4727 20.6254 81.4179 20.7218 81.363 20.8163C81.3063 20.9127 81.2496 21.0091 81.1967 21.1055C81.1437 21.202 81.0908 21.3003 81.0398 21.3986C80.9887 21.4969 80.9377 21.5952 80.8885 21.6954C80.8394 21.7956 80.7921 21.8977 80.7448 21.9979C80.6976 22.0981 80.6522 22.1983 80.6087 22.3004C80.5633 22.4043 80.5218 22.5083 80.4783 22.6142C80.4367 22.7163 80.3951 22.8184 80.3573 22.9223C80.3176 23.0282 80.2779 23.136 80.242 23.2437C80.206 23.3477 80.1701 23.4517 80.1361 23.5575C80.1002 23.6672 80.068 23.7768 80.034 23.8884C80.0019 23.9943 79.9716 24.1001 79.9433 24.2079C79.913 24.3194 79.8847 24.4329 79.8563 24.5463C79.8298 24.6541 79.8053 24.7618 79.7807 24.8696C79.7561 24.9849 79.7334 25.1002 79.7107 25.2155C79.6899 25.3252 79.671 25.4348 79.6521 25.5445C79.6332 25.6617 79.6143 25.7789 79.5992 25.8961C79.5841 26.0077 79.5689 26.1192 79.5576 26.2307C79.5444 26.3498 79.5311 26.4689 79.5217 26.588C79.5122 26.7015 79.5028 26.813 79.4952 26.9265C79.4876 27.0474 79.482 27.1684 79.4763 27.2894C79.4744 27.3424 79.4688 27.3972 79.4688 27.4501H78.083H76.1906L32.9072 27.4539H9.83721L7.17725 29.1138L7.18103 75.1989V81.1881L47.7156 81.1843H82.9832C82.9832 81.1843 83.0002 81.1824 83.0097 81.1824C83.0966 81.1824 83.1836 81.1768 83.2706 81.1749C83.3575 81.173 83.4445 81.1711 83.5296 81.1673C83.6203 81.1616 83.7111 81.1522 83.8018 81.1446C83.8869 81.137 83.972 81.1333 84.057 81.1238C84.1459 81.1144 84.2347 81.0992 84.3236 81.0879C84.4068 81.0765 84.4918 81.0671 84.575 81.0539C84.662 81.0387 84.749 81.0217 84.8359 81.0047C84.9191 80.9896 85.0023 80.9745 85.0855 80.9556C85.1724 80.9366 85.2556 80.914 85.3426 80.8913C85.4239 80.8705 85.5071 80.8535 85.5883 80.8308C85.6734 80.8062 85.7585 80.7797 85.8436 80.7533C85.923 80.7287 86.0024 80.706 86.0799 80.6814C86.165 80.6531 86.2462 80.6209 86.3294 80.5907C86.4069 80.5623 86.4845 80.5359 86.562 80.5056C86.6432 80.4735 86.7245 80.4376 86.8058 80.4035C86.8815 80.3714 86.9571 80.3411 87.0327 80.3071C87.114 80.2712 87.1915 80.2296 87.2709 80.1918C87.3446 80.1559 87.4184 80.1218 87.4921 80.084C87.5715 80.0424 87.6509 79.9971 87.7303 79.9536C87.8002 79.9158 87.8702 79.878 87.9383 79.8383C88.0177 79.7929 88.0952 79.7418 88.1727 79.6946C88.2389 79.653 88.3069 79.6133 88.3731 79.5717C88.4487 79.5225 88.5243 79.4696 88.5981 79.4167C88.6623 79.3713 88.7285 79.3278 88.7928 79.2824C88.8665 79.2295 88.9383 79.1709 89.0121 79.1161C89.0745 79.0688 89.1387 79.0216 89.1992 78.9724C89.2711 78.9138 89.341 78.8533 89.4129 78.7928C89.4715 78.7418 89.532 78.6945 89.5906 78.6435C89.6605 78.5811 89.7286 78.5168 89.7966 78.4525C89.8534 78.3996 89.912 78.3485 89.9668 78.2937C90.0348 78.2275 90.0991 78.1595 90.1634 78.0933C90.2182 78.0385 90.2731 77.9837 90.326 77.9269C90.3903 77.8589 90.4508 77.787 90.5131 77.7171C90.5642 77.6585 90.619 77.6018 90.6682 77.5432C90.7306 77.4694 90.791 77.3938 90.8515 77.3182C90.8988 77.2596 90.948 77.201 90.9952 77.1405C91.0557 77.063 91.1124 76.9836 91.1692 76.9042C91.2145 76.8437 91.2599 76.7832 91.3034 76.7227C91.3601 76.6433 91.413 76.5601 91.466 76.4769C91.5076 76.4126 91.551 76.3521 91.5926 76.2879C91.6456 76.2028 91.6966 76.1158 91.7477 76.0308C91.7855 75.9665 91.8252 75.9041 91.863 75.8379C91.914 75.7491 91.9594 75.6583 92.0067 75.5695C92.0407 75.5033 92.0785 75.439 92.1125 75.3729C92.1579 75.2821 92.2014 75.1876 92.2449 75.0968C92.277 75.0288 92.311 74.9626 92.3413 74.8946C92.3829 74.8038 92.4188 74.7112 92.4585 74.6185C92.4887 74.5467 92.5209 74.4749 92.5492 74.403C92.5871 74.3066 92.6211 74.2102 92.657 74.1138C92.6835 74.0419 92.7118 73.972 92.7345 73.9001C92.7704 73.7943 92.8026 73.6846 92.8366 73.5787C92.8574 73.5145 92.8782 73.4502 92.8971 73.3859C92.9273 73.2801 92.9538 73.1723 92.9822 73.0645C92.9992 72.9965 93.02 72.9284 93.037 72.8604C93.0634 72.7469 93.088 72.6316 93.1107 72.5163C93.1239 72.452 93.1391 72.3896 93.1523 72.3235C93.175 72.2081 93.192 72.0909 93.2109 71.9737C93.2223 71.9075 93.2336 71.8433 93.2431 71.7771C93.2601 71.6523 93.2733 71.5238 93.2884 71.3971C93.2941 71.3385 93.3035 71.2799 93.3092 71.2213C93.3243 71.0663 93.3338 70.9093 93.3432 70.7524C93.3432 70.7203 93.3489 70.69 93.3508 70.6579C93.3603 70.4689 93.3641 70.2779 93.3641 70.087V56.2465L93.3622 43.0242V41.7254C93.3735 41.7254 93.3886 41.7254 93.4 41.7254C93.5153 41.7254 93.6287 41.7198 93.7422 41.716C93.8594 41.7122 93.9785 41.7122 94.0957 41.7065C94.2167 41.7008 94.3358 41.6876 94.4568 41.6782C94.5721 41.6687 94.6874 41.663 94.8008 41.6517C94.9218 41.6385 95.0409 41.6214 95.16 41.6063C95.2716 41.5912 95.3831 41.5799 95.4947 41.5628C95.6156 41.5439 95.7348 41.5212 95.8539 41.4986C95.9616 41.4797 96.0713 41.4626 96.1771 41.44C96.3 41.4154 96.4191 41.3851 96.5401 41.3568C96.6422 41.3322 96.7462 41.3114 96.8464 41.2849C96.9712 41.2528 97.0921 41.215 97.215 41.181C97.3114 41.1526 97.4079 41.128 97.5043 41.0978C97.6309 41.0581 97.7557 41.0127 97.8824 40.9692C97.9712 40.939 98.0601 40.9106 98.1489 40.8785C98.2775 40.8312 98.4042 40.7783 98.5308 40.7272C98.614 40.6932 98.6972 40.663 98.7785 40.6289C98.9089 40.5741 99.0356 40.5136 99.1642 40.455C99.2398 40.4191 99.3173 40.3869 99.3929 40.351C99.5271 40.2867 99.6576 40.2168 99.788 40.1487C99.8561 40.1128 99.9241 40.0807 99.9903 40.0448C100.126 39.971 100.259 39.8916 100.393 39.8141C100.452 39.7801 100.514 39.7461 100.573 39.7101C100.711 39.6269 100.843 39.5381 100.977 39.4511C101.03 39.4171 101.083 39.385 101.134 39.349C101.27 39.2564 101.404 39.16 101.537 39.0636C101.584 39.0295 101.631 38.9974 101.679 38.9634C101.815 38.8613 101.947 38.7554 102.079 38.6477C102.121 38.6155 102.163 38.5834 102.202 38.5494C102.338 38.4378 102.469 38.3225 102.599 38.2053V38.2091Z" fill="white"/>
<path d="M90.6976 27.4541L9.83447 27.4617L50.2689 52.666L90.6976 27.4541Z" fill="#836ADF"/>
<path d="M7.1748 29.1194L7.17858 81.1937L82.9808 81.1881C88.7147 81.1881 93.3616 76.2198 93.3616 70.0907L93.3578 29.1119L50.2692 55.9818L7.1748 29.1194Z" fill="#836ADF"/>
<path d="M76.1896 27.456C76.0856 28.1423 76.0308 28.8455 76.0308 29.562C76.0308 31.7683 76.5469 33.8554 77.4619 35.7081L90.6974 27.4541H76.1877L76.1896 27.456Z" fill="#4C2BBF"/>
<path d="M89.9268 43.4552C91.1121 43.4552 92.2616 43.3058 93.36 43.0279V29.1137L78.958 38.0937C81.5008 41.3586 85.469 43.4571 89.9268 43.4571V43.4552Z" fill="#4C2BBF"/>
<path d="M98.5771 40.6757C105.665 37.734 109.026 29.6034 106.085 22.5154C103.143 15.4275 95.0122 12.0663 87.9242 15.008C80.8363 17.9497 77.4751 26.0804 80.4168 33.1683C83.3585 40.2563 91.4892 43.6175 98.5771 40.6757Z" fill="#836ADF"/>
<path d="M85.0898 30.0395L88.9873 34.3333L101.09 21" stroke="white" stroke-width="2" stroke-linecap="round" stroke-linejoin="round"/>
<path d="M7.17917 81.22H7.1527V81.1935L7.14893 29.1041L9.82779 27.4328H9.83535L79.4423 27.4272C79.5463 23.8049 81.0303 20.4134 83.626 17.8763C86.2311 15.3279 89.6738 13.9194 93.3187 13.91H93.3565C101.034 13.91 107.28 20.1544 107.28 27.8317C107.28 31.5447 105.838 35.0365 103.216 37.6643C100.595 40.2921 97.1073 41.7441 93.3962 41.7554H93.3849V70.0905C93.3868 73.0567 92.3073 75.8452 90.3487 77.9456C88.3882 80.046 85.7812 81.2067 83.0059 81.2143H82.9795L7.17728 81.22H7.17917ZM7.20186 29.1343L7.20564 81.167L83.0078 81.1614C85.768 81.1538 88.3618 79.9987 90.3109 77.9097C92.2619 75.8206 93.3357 73.0435 93.3357 70.0905V41.7025H93.3981C97.0941 41.693 100.569 40.2449 103.18 37.6284C105.79 35.01 107.229 31.5315 107.229 27.8336C107.229 20.1865 101.007 13.9667 93.3603 13.9667H93.3206C89.6908 13.9761 86.2614 15.3789 83.6657 17.9179C81.0738 20.4512 79.5935 23.839 79.4971 27.4574V27.4839H76.1906L9.8448 27.4896L7.20375 29.1362L7.20186 29.1343Z" fill="#140A3E"/>
</svg>
