<svg width="141" height="140" viewBox="0 0 141 140" fill="none" xmlns="http://www.w3.org/2000/svg">
<path d="M19.3412 46.1592L46.6412 18.8417C47.5162 17.9667 48.6828 17.5 49.9662 17.5H91.0912C92.3162 17.5 93.5412 17.9667 94.4162 18.8417L121.658 46.1008C122.533 46.9758 122.999 48.1425 122.999 49.4258V90.5742C122.999 91.7992 122.533 93.0242 121.658 93.8992L94.4162 121.158C93.5412 122.033 92.3745 122.5 91.0912 122.5H49.9078C48.6663 122.507 47.4719 122.025 46.5828 121.158L19.3412 93.8992C18.9075 93.4621 18.5655 92.9429 18.3351 92.3719C18.1047 91.801 17.9906 91.1898 17.9995 90.5742V49.4258C17.9995 48.2008 18.4662 46.9758 19.3412 46.1008V46.1592Z" fill="#FBE5E5" stroke="#C73734" stroke-width="8.75" stroke-miterlimit="10" stroke-linejoin="round"/>
<path d="M70.5 93.3334H70.5467M70.5 46.6667V75.8334" stroke="#C73734" stroke-width="8.75" stroke-miterlimit="10" stroke-linecap="round"/>
</svg>
