<svg width="157" height="155" viewBox="0 0 157 155" fill="none" xmlns="http://www.w3.org/2000/svg">
<path d="M64.6322 87.1363C62.2924 87.1363 60.0912 86.2193 58.4376 84.5575L31.2354 57.2248C29.5234 55.5044 29.5234 52.7201 31.2354 50.9997C32.9474 49.2792 35.718 49.2792 37.43 50.9997L64.6286 78.3324L83.2562 59.6129L68.4614 44.7452C65.0447 41.3116 65.0447 35.7285 68.4614 32.2949L88.1841 12.4749C89.8377 10.8132 92.0389 9.89612 94.3787 9.89612C96.7186 9.89612 98.9197 10.8132 100.573 12.4749L125.764 37.7901C127.476 39.5105 127.476 42.2948 125.764 44.0152C124.052 45.7356 121.278 45.7356 119.57 44.0152L94.3787 18.7001L74.656 38.5201L89.4508 53.3878C92.8675 56.8213 92.8675 62.4045 89.4508 65.8381L70.8232 84.5575C69.1696 86.2193 66.9684 87.1363 64.6286 87.1363H64.6322Z" fill="#836ADF"/>
<path d="M65.9097 64.015C64.789 64.015 63.6684 63.5858 62.8105 62.7274L42.9126 42.7277C41.259 41.066 40.3464 38.854 40.3464 36.5026C40.3464 34.1512 41.259 31.9392 42.9126 30.2774L71.7538 1.29033C73.4658 -0.430111 76.2364 -0.430111 77.9484 1.29033C79.6604 3.01078 79.6604 5.79503 77.9484 7.51548L49.1072 36.5026L69.0051 56.4986C70.7171 58.2191 70.7171 61.0033 69.0051 62.7238C68.1509 63.5821 67.0303 64.0113 65.906 64.0113L65.9097 64.015Z" fill="#4C2BBF"/>
<path d="M84.1617 93.1782C83.041 93.1782 81.9204 92.749 81.0626 91.8906C79.3506 90.1701 79.3506 87.3859 81.0626 85.6654L108.626 57.9659L88.7282 37.9699C87.0162 36.2494 87.0162 33.4652 88.7282 31.7447C90.4402 30.0243 93.2145 30.0243 94.9228 31.7447L114.821 51.7408C118.237 55.1743 118.237 60.7575 114.821 64.1911L87.2572 91.8906C86.403 92.749 85.2823 93.1782 84.158 93.1782H84.1617Z" fill="#4C2BBF"/>
<path d="M10.6985 143.72C8.32106 143.72 6.2967 143.19 4.62542 142.131C2.97769 141.048 1.82428 139.554 1.16518 137.647L4.66073 135.599C5.64937 138.377 7.69727 139.765 10.8044 139.765C12.3109 139.765 13.4526 139.471 14.2294 138.883C15.0061 138.294 15.3945 137.506 15.3945 136.517C15.3945 135.528 14.9826 134.763 14.1587 134.222C13.3349 133.681 11.8755 133.092 9.78048 132.457C7.63842 131.821 5.9083 131.068 4.59012 130.197C2.98946 129.067 2.18913 127.407 2.18913 125.218C2.18913 123.029 2.96592 121.299 4.5195 120.028C6.04954 118.733 7.92089 118.086 10.1336 118.086C12.0873 118.086 13.8057 118.569 15.2886 119.534C16.7951 120.475 17.9485 121.805 18.7489 123.524L15.3239 125.501C14.2882 123.194 12.5581 122.041 10.1336 122.041C8.95661 122.041 8.01505 122.323 7.30888 122.888C6.60271 123.429 6.24962 124.171 6.24962 125.112C6.24962 126.03 6.60271 126.76 7.30888 127.302C8.01505 127.819 9.32147 128.373 11.2281 128.961C12.4051 129.361 13.0877 129.597 13.276 129.667C13.582 129.761 14.1941 129.997 15.1121 130.373C15.8653 130.679 16.4656 131.009 16.9128 131.362C18.7489 132.798 19.5963 134.493 19.455 136.446C19.455 138.683 18.6429 140.46 17.0187 141.778C15.4416 143.073 13.3349 143.72 10.6985 143.72ZM29.4305 138.424L33.95 125.607H38.0105L31.2313 143.826C29.5365 148.393 26.6647 150.558 22.616 150.323V146.757C23.7929 146.827 24.7463 146.58 25.476 146.015C26.2057 145.45 26.8177 144.544 27.312 143.296L27.4886 142.943L20.0031 125.607H24.1696L29.4305 138.424ZM49.6811 125.148C51.729 125.148 53.365 125.807 54.589 127.125C55.8366 128.42 56.4604 130.185 56.4604 132.421V143.261H52.647V132.81C52.647 131.492 52.2939 130.479 51.5878 129.773C50.8816 129.067 49.9165 128.714 48.6925 128.714C47.3037 128.714 46.2091 129.149 45.4088 130.02C44.6084 130.868 44.2083 132.127 44.2083 133.798V143.261H40.395V125.607H44.2083V127.867C45.3852 126.054 47.2095 125.148 49.6811 125.148ZM68.8992 143.72C66.2393 143.72 64.0148 142.826 62.2259 141.037C60.4604 139.224 59.5777 137.023 59.5777 134.434C59.5777 131.798 60.4604 129.597 62.2259 127.831C64.0148 126.042 66.2393 125.148 68.8992 125.148C70.6175 125.148 72.1829 125.56 73.5952 126.384C75.0076 127.207 76.0668 128.314 76.773 129.703L73.4893 131.609C73.0891 130.762 72.4771 130.103 71.6533 129.632C70.8529 129.138 69.9231 128.89 68.8639 128.89C67.3103 128.89 66.0039 129.42 64.9446 130.479C63.9089 131.562 63.391 132.88 63.391 134.434C63.391 135.987 63.9089 137.306 64.9446 138.388C66.0039 139.448 67.3103 139.977 68.8639 139.977C69.8996 139.977 70.8294 139.742 71.6533 139.271C72.5007 138.777 73.1362 138.106 73.5599 137.259L76.8436 139.13C76.0904 140.542 74.9958 141.66 73.5599 142.484C72.1476 143.308 70.594 143.72 68.8992 143.72ZM89.8722 143.261H85.1762L78.1851 118.545H82.4574L87.6478 137.859L93.2618 118.545H97.0045L102.583 137.859L107.774 118.545H112.046L105.055 143.261H100.359L95.1332 125.218L89.8722 143.261ZM117.889 122.252C117.419 122.723 116.854 122.959 116.194 122.959C115.535 122.959 114.959 122.723 114.464 122.252C113.994 121.758 113.758 121.181 113.758 120.522C113.758 119.863 113.994 119.298 114.464 118.828C114.935 118.333 115.512 118.086 116.194 118.086C116.877 118.086 117.454 118.333 117.925 118.828C118.395 119.298 118.631 119.863 118.631 120.522C118.631 121.181 118.384 121.758 117.889 122.252ZM118.101 143.261H114.288V125.607H118.101V143.261ZM125.85 130.479C125.85 131.021 126.133 131.468 126.698 131.821C127.263 132.151 128.086 132.468 129.169 132.774C129.993 132.963 130.711 133.163 131.323 133.375C131.935 133.586 132.582 133.904 133.265 134.328C133.948 134.728 134.466 135.27 134.819 135.952C135.195 136.611 135.372 137.388 135.348 138.283C135.348 139.977 134.689 141.307 133.371 142.272C132.053 143.238 130.417 143.72 128.463 143.72C126.721 143.72 125.226 143.355 123.979 142.625C122.731 141.896 121.825 140.884 121.26 139.589L124.544 137.682C125.132 139.377 126.439 140.225 128.463 140.225C130.464 140.225 131.464 139.565 131.464 138.247C131.464 137.282 130.346 136.529 128.11 135.987C127.263 135.776 126.545 135.564 125.956 135.352C125.391 135.14 124.756 134.834 124.05 134.434C123.367 134.034 122.837 133.504 122.461 132.845C122.108 132.186 121.943 131.421 121.966 130.55C121.966 128.926 122.578 127.619 123.802 126.631C125.05 125.642 126.592 125.148 128.428 125.148C129.887 125.148 131.182 125.477 132.312 126.136C133.465 126.772 134.348 127.666 134.96 128.82L131.747 130.621C131.158 129.279 130.052 128.608 128.428 128.608C127.675 128.608 127.051 128.773 126.556 129.102C126.086 129.432 125.85 129.891 125.85 130.479ZM155.306 136.058H141.253C141.536 137.376 142.171 138.4 143.16 139.13C144.172 139.86 145.42 140.225 146.903 140.225C148.904 140.225 150.422 139.495 151.458 138.035L154.6 139.871C152.882 142.437 150.304 143.72 146.867 143.72C144.019 143.72 141.701 142.849 139.912 141.107C138.146 139.342 137.263 137.117 137.263 134.434C137.263 131.821 138.134 129.62 139.876 127.831C141.595 126.042 143.831 125.148 146.585 125.148C149.151 125.148 151.269 126.054 152.941 127.867C154.612 129.679 155.447 131.88 155.447 134.469C155.447 134.94 155.4 135.47 155.306 136.058ZM141.218 132.951H151.599C151.34 131.562 150.751 130.491 149.833 129.738C148.939 128.985 147.844 128.608 146.55 128.608C145.137 128.608 143.96 128.996 143.019 129.773C142.077 130.55 141.477 131.609 141.218 132.951Z" fill="#221461"/>
</svg>
