<svg width="161" height="160" viewBox="0 0 161 160" fill="none" xmlns="http://www.w3.org/2000/svg">
<path d="M72.3753 138.75C63.0812 138.747 53.9203 136.539 45.6453 132.308C37.3704 128.076 30.2174 121.942 24.774 114.408C19.3307 106.875 15.7523 98.1579 14.3328 88.9728C12.9133 79.7877 13.6933 70.3968 16.6086 61.5718C19.5239 52.7467 24.4914 44.7392 31.103 38.2071C37.7145 31.675 45.7815 26.8047 54.6412 23.9963C63.5009 21.1879 72.9004 20.5216 82.0677 22.052C91.235 23.5824 99.9084 27.266 107.375 32.8C108.375 33.6121 109.022 34.7784 109.183 36.056C109.344 37.3335 109.005 38.6239 108.239 39.6583C107.472 40.6927 106.335 41.3913 105.066 41.6086C103.797 41.826 102.493 41.5453 101.425 40.825C92.612 34.2817 81.8491 30.9025 70.8773 31.234C59.9055 31.5655 49.3663 35.5883 40.9641 42.6517C32.5618 49.7152 26.7879 59.4064 24.5759 70.158C22.3639 80.9096 23.8433 92.093 28.7748 101.9C33.7063 111.706 41.8015 119.563 51.7514 124.199C61.7012 128.834 72.9239 129.978 83.6045 127.446C94.2851 124.913 103.799 118.851 110.608 110.242C117.417 101.632 121.122 90.9768 121.125 80C121.118 77.4293 120.909 74.863 120.5 72.325C120.399 71.6684 120.427 70.9982 120.584 70.3526C120.742 69.707 121.024 69.0987 121.417 68.5625C121.809 68.0262 122.303 67.5725 122.871 67.2272C123.439 66.8819 124.069 66.6518 124.725 66.55C125.382 66.4482 126.052 66.4768 126.698 66.634C127.343 66.7913 127.952 67.0741 128.488 67.4665C129.024 67.8588 129.478 68.3529 129.823 68.9206C130.168 69.4883 130.399 70.1184 130.5 70.775C130.947 73.8292 131.156 76.9135 131.125 80C131.112 95.5774 124.918 110.513 113.903 121.528C102.888 132.543 87.9527 138.737 72.3753 138.75Z" fill="#836ADF"/>
<path d="M78.6247 98.75C77.3008 98.7444 76.0331 98.214 75.0997 97.275L51.3497 73.525C50.5306 72.5685 50.1026 71.3381 50.1512 70.0797C50.1998 68.8214 50.7215 67.6277 51.6119 66.7372C52.5024 65.8467 53.6961 65.325 54.9545 65.2764C56.2129 65.2278 57.4432 65.6559 58.3997 66.475L78.6247 86.675L138.85 26.475C139.806 25.6559 141.037 25.2278 142.295 25.2764C143.553 25.325 144.747 25.8467 145.638 26.7372C146.528 27.6276 147.05 28.8213 147.098 30.0797C147.147 31.3381 146.719 32.5685 145.9 33.525L82.1497 97.275C81.2164 98.214 79.9487 98.7444 78.6247 98.75Z" fill="#4C2BBF"/>
</svg>
