<svg width="28" height="28" viewBox="0 0 28 28" fill="none" xmlns="http://www.w3.org/2000/svg">
<path d="M12.5779 24.2812C10.9514 24.2807 9.34824 23.8944 7.90012 23.1538C6.452 22.4133 5.20022 21.3398 4.24764 20.0215C3.29505 18.7031 2.66883 17.1776 2.42042 15.5702C2.17201 13.9628 2.30851 12.3194 2.81869 10.7751C3.32887 9.23067 4.19818 7.82936 5.3552 6.68624C6.51222 5.54312 7.92395 4.69082 9.47439 4.19935C11.0248 3.70788 12.6698 3.59127 14.274 3.8591C15.8783 4.12692 17.3961 4.77154 18.7029 5.74C18.8777 5.88211 18.9911 6.08621 19.0192 6.30979C19.0473 6.53337 18.9881 6.75919 18.8539 6.9402C18.7197 7.12122 18.5208 7.24348 18.2987 7.28151C18.0766 7.31955 17.8484 7.27042 17.6616 7.14438C16.1193 5.99929 14.2358 5.40794 12.3157 5.46596C10.3957 5.52397 8.55129 6.22795 7.0809 7.46405C5.6105 8.70016 4.60006 10.3961 4.21296 12.2776C3.82587 14.1592 4.08476 16.1163 4.94777 17.8324C5.81078 19.5486 7.22745 20.9235 8.96868 21.7348C10.7099 22.546 12.6739 22.7462 14.543 22.303C16.4121 21.8598 18.077 20.799 19.2686 19.2923C20.4601 17.7855 21.1086 15.9209 21.1091 14C21.1079 13.5501 21.0713 13.101 20.9997 12.6569C20.9819 12.542 20.9869 12.4247 21.0144 12.3117C21.042 12.1987 21.0915 12.0923 21.1601 11.9984C21.2288 11.9046 21.3152 11.8252 21.4146 11.7648C21.5139 11.7043 21.6242 11.6641 21.7391 11.6463C21.854 11.6284 21.9713 11.6334 22.0843 11.661C22.1973 11.6885 22.3037 11.738 22.3976 11.8066C22.4914 11.8753 22.5708 11.9618 22.6312 12.0611C22.6917 12.1604 22.7319 12.2707 22.7497 12.3856C22.8279 12.9201 22.8645 13.4599 22.8591 14C22.8568 16.726 21.7729 19.3398 19.8452 21.2674C17.9176 23.195 15.3039 24.2789 12.5779 24.2812Z" fill="#836ADF"/>
<path d="M13.671 17.2811C13.4393 17.2802 13.2175 17.1873 13.0542 17.023L8.8979 12.8668C8.75455 12.6994 8.67965 12.4841 8.68815 12.2638C8.69666 12.0436 8.78795 11.8347 8.94378 11.6789C9.09962 11.5231 9.30851 11.4318 9.52873 11.4233C9.74894 11.4148 9.96426 11.4897 10.1317 11.633L13.671 15.168L24.2104 4.63301C24.3778 4.48966 24.5931 4.41475 24.8133 4.42326C25.0335 4.43177 25.2424 4.52306 25.3983 4.67889C25.5541 4.83472 25.6454 5.04362 25.6539 5.26384C25.6624 5.48405 25.5875 5.69937 25.4442 5.86676L14.2879 17.023C14.1246 17.1873 13.9027 17.2802 13.671 17.2811Z" fill="#4C2BBF"/>
</svg>
