<svg width="22" height="22" viewBox="0 0 22 22" fill="none" xmlns="http://www.w3.org/2000/svg">
<path d="M10.8356 0.00115833C7.97238 0.042892 5.2381 1.19876 3.2131 3.22345C1.49036 4.95106 0.390388 7.20205 0.0860129 9.62276C-0.218362 12.0435 0.29011 14.4967 1.53154 16.597L0.238354 21.7655L5.39615 20.4744C7.4978 21.7175 9.95308 22.2264 12.3757 21.9212C14.7982 21.616 17.0506 20.514 18.7783 18.7886C20.842 16.7244 22.0013 13.9249 22.0013 11.006C22.0013 8.0871 20.842 5.28769 18.7783 3.22345C17.7371 2.18248 16.4977 1.36094 15.1335 0.807457C13.7692 0.253976 12.3077 -0.0201989 10.8356 0.00115833ZM9.36106 4.16453H12.6132L12.227 12.6492H9.74731L9.36106 4.16453ZM10.9871 14.4118C11.4778 14.4118 11.8912 14.586 12.227 14.9347C12.5756 15.2704 12.7498 15.6775 12.7498 16.1553C12.7498 16.646 12.5756 17.0657 12.227 17.4143C11.8912 17.7501 11.4778 17.9179 10.9871 17.9179C10.5094 17.9179 10.096 17.7501 9.74731 17.4143C9.41157 17.0657 9.24369 16.646 9.24369 16.1553C9.24369 15.6775 9.41157 15.2704 9.74731 14.9347C10.096 14.586 10.5094 14.4118 10.9871 14.4118Z" fill="#C73734"/>
</svg>
