<svg width="44" height="44" viewBox="0 0 44 44" fill="none" xmlns="http://www.w3.org/2000/svg">
<g clip-path="url(#clip0_680_1635)">
<path d="M11.9536 22.9315H31.9576V26.6884H33.9092V20.9799H22.9314V17.0767H20.9798V20.9799H10.002V26.6884H11.9536V22.9315Z" fill="#4C2BBF"/>
<path d="M17.0765 28.0547H4.87897C4.23197 28.0547 3.61147 28.3117 3.15397 28.7692C2.69647 29.2267 2.43945 29.8472 2.43945 30.4942V37.8128C2.43945 38.4598 2.69647 39.0803 3.15397 39.5378C3.61147 39.9952 4.23197 40.2523 4.87897 40.2523H17.0765C17.7235 40.2523 18.344 39.9952 18.8015 39.5378C19.259 39.0803 19.5161 38.4598 19.5161 37.8128V30.4942C19.5161 29.8472 19.259 29.2267 18.8015 28.7692C18.344 28.3117 17.7235 28.0547 17.0765 28.0547ZM4.87897 37.8128V30.4942H17.0765V37.8128H4.87897Z" fill="#4C2BBF"/>
<path opacity="0.5" d="M39.0326 28.0547H26.835C26.188 28.0547 25.5675 28.3117 25.11 28.7692C24.6525 29.2267 24.3955 29.8472 24.3955 30.4942V37.8128C24.3955 38.4598 24.6525 39.0803 25.11 39.5378C25.5675 39.9952 26.188 40.2523 26.835 40.2523H39.0326C39.6796 40.2523 40.3001 39.9952 40.7576 39.5378C41.2151 39.0803 41.4721 38.4598 41.4721 37.8128V30.4942C41.4721 29.8472 41.2151 29.2267 40.7576 28.7692C40.3001 28.3117 39.6796 28.0547 39.0326 28.0547ZM26.835 37.8128V30.4942H39.0326V37.8128H26.835Z" fill="#4C2BBF"/>
<path d="M15.8575 15.857H28.0551C28.7021 15.857 29.3226 15.6 29.7801 15.1425C30.2376 14.685 30.4946 14.0645 30.4946 13.4175V6.09894C30.4946 5.45194 30.2376 4.83144 29.7801 4.37394C29.3226 3.91644 28.7021 3.65942 28.0551 3.65942H15.8575C15.2105 3.65942 14.59 3.91644 14.1325 4.37394C13.675 4.83144 13.418 5.45194 13.418 6.09894V13.4175C13.418 14.0645 13.675 14.685 14.1325 15.1425C14.59 15.6 15.2105 15.857 15.8575 15.857ZM15.8575 6.09894H28.0551V13.4175H15.8575V6.09894Z" fill="#4C2BBF"/>
</g>
<defs>
<clipPath id="clip0_680_1635">
<rect width="43.9113" height="43.9113" fill="white"/>
</clipPath>
</defs>
</svg>
