<svg width="44" height="44" viewBox="0 0 44 44" fill="none" xmlns="http://www.w3.org/2000/svg">
<g clip-path="url(#clip0_680_1626)">
<path opacity="0.6" d="M27.4026 21.8179H11.2894C9.44275 21.8179 7.94043 23.3202 7.94043 25.1668V31.1013C7.94043 32.948 9.44275 34.4503 11.2894 34.4503H27.4026C29.2493 34.4503 30.7516 32.948 30.7516 31.1013V25.1668C30.7516 23.3202 29.2493 21.8179 27.4026 21.8179ZM29.481 31.1013C29.481 32.2474 28.5487 33.1797 27.4026 33.1797H11.2894C10.1433 33.1797 9.21102 32.2474 9.21102 31.1013V25.1668C9.21102 24.0208 10.1433 23.0885 11.2894 23.0885H27.4026C28.5487 23.0885 29.481 24.0208 29.481 25.1668V31.1013Z" fill="#4C2BBF"/>
<path d="M43.8314 22.4443C43.9337 22.2108 43.9381 21.9462 43.8438 21.7096C43.7495 21.4729 43.5644 21.2838 43.3298 21.1845C42.0902 20.6599 41.5084 19.2246 42.0329 17.9848C42.2379 17.5001 42.0113 16.941 41.5265 16.736L15.0523 5.53409C14.8194 5.43562 14.557 5.43355 14.3229 5.52853C14.0887 5.62351 13.9017 5.80759 13.8034 6.04042C13.5493 6.64094 13.0766 7.10661 12.4723 7.35152C11.8677 7.59674 11.2046 7.59166 10.6038 7.33738C10.369 7.23796 10.1042 7.23685 9.86903 7.33405C9.63349 7.43125 9.44672 7.61866 9.35015 7.85452L5.28012 17.8158H4.46662C3.94043 17.8158 3.51367 18.2426 3.51367 18.7688C3.51367 20.1809 2.36505 21.3295 0.952946 21.3295C0.426761 21.3295 0 21.7563 0 22.2824V33.9861C0 34.5122 0.426761 34.939 0.952946 34.939C2.36505 34.939 3.51367 36.0876 3.51367 37.4997C3.51367 38.0259 3.94043 38.4527 4.46662 38.4527H34.2255C34.7517 38.4527 35.1785 38.0259 35.1785 37.4997C35.1785 36.0876 36.3271 34.939 37.7392 34.939C38.1296 34.939 38.4646 34.7041 38.612 34.3682L38.615 34.3618C38.6161 34.3593 38.6172 34.3567 38.6183 34.354L43.8314 22.4443ZM10.7901 9.36986C11.5907 9.51423 12.4164 9.43053 13.1885 9.11765C13.9638 8.80333 14.6174 8.28509 15.0915 7.61993L40.0034 18.1609C39.7053 19.8046 40.3863 21.4901 41.7419 22.4652L38.6925 29.4322V22.2823C38.6925 21.7561 38.2657 21.3293 37.7395 21.3293C36.3274 21.3293 35.1788 20.1807 35.1788 18.7686C35.1788 18.2424 34.752 17.8157 34.2259 17.8157H7.33928L10.7901 9.36986ZM36.7864 33.1354C35.087 33.5061 33.7457 34.8472 33.375 36.5468H5.31744C4.94674 34.8472 3.60547 33.5061 1.90605 33.1354V23.1328C3.60547 22.7621 4.94674 21.421 5.31744 19.7214H33.3752C33.7459 21.4208 35.087 22.7621 36.7866 23.1328L36.7864 33.1354Z" fill="#4C2BBF"/>
<path opacity="0.6" d="M5.37509 23.2473H4.10449V33.3327H5.37509V23.2473Z" fill="#4C2BBF"/>
</g>
<defs>
<clipPath id="clip0_680_1626">
<rect width="43.9113" height="43.9113" fill="white"/>
</clipPath>
</defs>
</svg>
