<svg width="44" height="44" viewBox="0 0 44 44" fill="none" xmlns="http://www.w3.org/2000/svg">
<path d="M16.467 18.2963C20.5089 18.2963 23.7855 15.0196 23.7855 10.9777C23.7855 6.9358 20.5089 3.65918 16.467 3.65918C12.4251 3.65918 9.14844 6.9358 9.14844 10.9777C9.14844 15.0196 12.4251 18.2963 16.467 18.2963Z" stroke="#4C2BBF" stroke-width="2.66129"/>
<path opacity="0.5" d="M22.8701 7.94274C23.8535 6.46375 25.535 5.48901 27.4442 5.48901C30.4757 5.48901 32.9331 7.94649 32.9331 10.9779C32.9331 14.0094 30.4757 16.4668 27.4442 16.4668C25.535 16.4668 23.8535 15.4921 22.8701 14.0131" stroke="#4C2BBF" stroke-width="2.66129"/>
<path d="M16.4666 38.4225C23.54 38.4225 29.2741 35.1459 29.2741 31.1039C29.2741 27.062 23.54 23.7854 16.4666 23.7854C9.39327 23.7854 3.65918 27.062 3.65918 31.1039C3.65918 35.1459 9.39327 38.4225 16.4666 38.4225Z" stroke="#4C2BBF" stroke-width="2.66129"/>
<path opacity="0.5" d="M32.9336 25.615C36.1431 26.3189 38.4225 28.1013 38.4225 30.1891C38.4225 32.0723 36.5678 33.7073 33.8484 34.5261" stroke="#4C2BBF" stroke-width="2.66129" stroke-linecap="round"/>
</svg>
