<svg width="344" height="356" viewBox="0 0 344 356" fill="none" xmlns="http://www.w3.org/2000/svg">
<path d="M302.013 306.114C293.077 315.725 285.081 321.375 278.959 325.64C219.253 367.237 151.002 355.247 129.901 351.149C95.856 344.538 67.1184 339.874 42.4266 316.598C-13.6792 263.708 -10.9503 153.375 31.9214 85.0287C37.0045 76.9249 79.8118 10.7171 148.211 1.38766C149.883 1.15972 151.132 1.02893 152.226 0.909354C162.807 -0.259004 228.376 -6.42838 281.841 40.3084C289.494 46.9985 301.81 59.0657 313.232 77.4705C354.994 144.767 355.126 248.994 302.016 306.114H302.013Z" fill="white"/>
<path d="M272.642 264.438C275.301 270.181 272.768 275.925 270.335 279.791C269.755 279.795 269.418 279.956 268.832 280.098C263.542 281.384 261.062 280.73 255.685 281.118C254.528 281.202 251.09 280.339 249.708 279.891L247.147 279.008C247.147 279.008 242.601 265.04 249.745 261.182C256.887 257.324 254.153 243.423 253.554 235.843C251.929 215.273 274.158 217.142 274.182 190.544C274.189 183.468 271.836 169.975 277.8 164.339C284.596 157.919 289.557 164.217 293.927 158.85C300.756 150.459 311.837 147.449 318.443 156.084C324.963 164.607 317.041 181.572 297.347 195.207C284.327 206.589 284.124 209.997 285.149 218.295C285.866 224.107 291.411 239.249 283.521 245.296C275.631 251.343 269.601 257.876 272.641 264.44L272.642 264.438Z" fill="url(#paint0_linear_329_1588)"/>
<mask id="mask0_329_1588" style="mask-type:luminance" maskUnits="userSpaceOnUse" x="245" y="150" width="76" height="135">
<path d="M266.901 284.492L247.579 279.515C247.579 279.515 242.602 265.04 249.744 261.182C256.886 257.324 254.152 243.423 253.553 235.843C251.928 215.273 274.157 217.142 274.181 190.544C274.188 183.468 271.835 169.975 277.8 164.339C284.595 157.919 289.556 164.217 293.926 158.85C300.755 150.459 311.836 147.449 318.442 156.084C324.962 164.607 317.04 181.572 297.347 195.207C284.328 206.589 284.124 209.997 285.149 218.295C285.867 224.107 291.411 239.249 283.521 245.296C275.632 251.343 269.601 257.876 272.641 264.44C277.266 274.428 266.901 284.492 266.901 284.492Z" fill="white"/>
</mask>
<g mask="url(#mask0_329_1588)">
<g style="mix-blend-mode:soft-light" opacity="0.5">
<path d="M258.486 281.335L258.093 281.286C258.385 278.948 258.707 276.592 259.053 274.286C261.611 257.212 265.67 240.994 271.118 226.084C275.735 213.449 281.41 201.575 287.987 190.789C293.277 182.115 299.176 174.096 305.52 166.954C309.98 161.933 314.612 157.394 319.289 153.462C320.103 152.777 320.975 152.122 321.818 151.488C322.941 150.643 324.102 149.771 325.137 148.821L325.405 149.113C324.354 150.077 323.186 150.956 322.055 151.806C321.216 152.436 320.35 153.088 319.542 153.766C314.881 157.684 310.262 162.21 305.816 167.217C299.487 174.341 293.603 182.342 288.326 190.995C281.762 201.758 276.098 213.61 271.49 226.219C266.051 241.105 261.999 257.296 259.445 274.343C259.1 276.646 258.778 278.998 258.486 281.334V281.335Z" fill="#EDEDED"/>
<path d="M280.866 204.447L280.507 204.28C287.719 188.908 281.385 160.51 281.321 160.225L281.707 160.137C281.773 160.424 288.136 188.954 280.866 204.449V204.447Z" fill="#EDEDED"/>
<path d="M264.46 249.216L264.085 249.09C267.764 238.071 288.394 229.564 288.601 229.479L288.75 229.847C288.544 229.931 268.081 238.368 264.459 249.216H264.46Z" fill="#EDEDED"/>
<path d="M262.912 255.648L262.521 255.591C263.612 248.086 261.091 237.268 255.422 225.132C255.232 224.725 255.14 224.497 255.147 224.447L255.538 224.499L255.342 224.473L255.533 224.424C255.547 224.466 255.654 224.696 255.78 224.964C261.481 237.17 264.015 248.068 262.912 255.648Z" fill="#EDEDED"/>
<path d="M259.078 277.075L258.719 276.908C262.236 269.332 274.26 266.342 274.38 266.313L274.472 266.698C274.354 266.726 262.513 269.673 259.076 277.076L259.078 277.075Z" fill="#EDEDED"/>
<path d="M257.886 281.367C256.395 274.798 252.971 268.443 247.414 261.938L247.716 261.681C253.315 268.237 256.768 274.648 258.273 281.28L257.886 281.367Z" fill="#EDEDED"/>
<path d="M302.148 171.484L301.8 171.296C306.286 162.974 309.07 153.19 309.984 149.975C310.205 149.197 310.284 148.923 310.328 148.833L310.684 149.006C310.651 149.076 310.525 149.52 310.365 150.084C309.447 153.309 306.654 163.124 302.148 171.484Z" fill="#EDEDED"/>
<path d="M292.851 183.938L292.574 183.655C298.892 177.436 316.623 177.635 317.375 177.646L317.368 178.041C317.185 178.039 299.051 177.834 292.85 183.936L292.851 183.938Z" fill="#EDEDED"/>
</g>
</g>
<mask id="mask1_329_1588" style="mask-type:luminance" maskUnits="userSpaceOnUse" x="237" y="187" width="101" height="135">
<path d="M241.267 314.185L264.32 321.41C264.32 321.41 272.365 310.945 269.332 300.828C263.144 280.188 281.652 276.208 289.155 273.381C300.471 269.118 308.583 260.427 296.618 251.786C284.655 243.146 304.569 226.649 323.836 222.397C342.689 218.238 346.174 182.324 304.541 187.58C279.678 190.72 275.858 214.839 271.033 226.561C266.209 238.283 247.974 233.662 249.494 250.306C250.791 264.522 257.872 276.81 247.566 283.073C237.26 289.337 233.436 298.783 241.267 314.184V314.185Z" fill="white"/>
</mask>
<g mask="url(#mask1_329_1588)">
<path d="M241.267 314.185L264.32 321.41C264.32 321.41 272.365 310.945 269.332 300.828C263.144 280.188 281.652 276.208 289.155 273.381C300.471 269.118 307.354 261.186 298.296 251.801C288.048 241.182 304.571 226.649 323.836 222.397C342.689 218.238 346.174 182.324 304.541 187.58C279.678 190.72 275.858 214.839 271.033 226.561C266.209 238.283 247.974 233.662 249.494 250.306C250.791 264.522 257.872 276.81 247.566 283.073C237.26 289.337 233.436 298.783 241.267 314.184V314.185Z" fill="url(#paint1_linear_329_1588)"/>
<g style="mix-blend-mode:soft-light" opacity="0.5">
<path d="M250.574 319.453L251.08 319.515C251.119 319.202 255.096 287.827 268.415 257.913C280.686 230.354 303.631 198.431 343.247 202.855L343.305 202.349C325.668 200.379 309.815 205.325 296.183 217.045C285.293 226.409 275.793 240.092 267.946 257.717C254.598 287.7 250.614 319.14 250.576 319.455L250.574 319.453Z" fill="#4C2BBF"/>
<path d="M290.697 222.186L291.199 222.277C294.236 205.577 307.516 184.663 307.65 184.455L307.22 184.18C307.087 184.391 293.752 205.389 290.697 222.187V222.186Z" fill="#4C2BBF"/>
<path d="M299.994 214.625C319.576 209.552 333.346 219.248 333.484 219.347L333.782 218.933C333.643 218.834 319.689 208.997 299.867 214.132L299.995 214.626L299.994 214.625Z" fill="#4C2BBF"/>
<path d="M260.772 277.944C273.405 256.704 306.375 260.859 306.693 260.927L306.831 260.436C306.525 260.34 273.079 256.255 260.334 277.683L260.772 277.944Z" fill="#4C2BBF"/>
<path d="M263.669 268.174L264.176 268.224C265.73 252.532 252.926 237.387 252.797 237.236L252.409 237.567C252.537 237.717 265.2 252.701 263.667 268.174H263.669Z" fill="#4C2BBF"/>
<path d="M251.816 314.592C255.317 305.88 270.283 302.807 270.434 302.777L270.335 302.277C269.709 302.401 254.947 305.436 251.344 314.403L251.817 314.593L251.816 314.592Z" fill="#4C2BBF"/>
<path d="M252.656 307.149L253.16 307.217C254.156 299.862 246.041 288.776 243.374 285.133C242.998 284.619 242.672 284.174 242.629 284.084L242.164 284.294C242.221 284.423 242.437 284.719 242.962 285.436C245.599 289.038 253.623 299.999 252.654 307.151L252.656 307.149Z" fill="#4C2BBF"/>
</g>
</g>
<path d="M263.087 320.025C263.001 320.066 262.913 320.105 262.827 320.145C257.7 322.505 251.68 324.18 244.603 324.631C243.217 324.621 241.831 324.611 240.446 324.602C239.198 321.345 238.593 318.026 242.774 316.634C249.266 314.475 249.073 302.946 247.152 298.924C244.775 293.946 239.477 282.243 249.461 278.745C257.773 275.833 263.732 275.653 263.988 264.83C264.246 254.006 269.938 247.085 279.757 247.427C290.09 247.789 298.127 233.802 306.717 238.136C321.684 245.688 309.073 269.908 291.38 277.353C273.686 284.8 284.154 290.936 284.907 299.765C285.936 311.817 269.536 309.736 265.369 314.611C263.958 316.262 263.305 318.154 263.087 320.022V320.025Z" fill="url(#paint2_linear_329_1588)"/>
<mask id="mask2_329_1588" style="mask-type:luminance" maskUnits="userSpaceOnUse" x="239" y="237" width="75" height="91">
<path d="M263.766 326.663L241.29 327.174C239.908 324.022 238.103 318.19 242.773 316.637C249.266 314.477 249.072 302.949 247.151 298.927C244.775 293.949 239.477 282.246 249.461 278.748C257.772 275.836 263.732 275.656 263.988 264.833C264.246 254.009 269.938 247.088 279.757 247.43C290.09 247.792 298.127 233.805 306.717 238.139C321.683 245.69 309.073 269.911 291.379 277.356C273.686 284.802 284.154 290.939 284.907 299.767C285.936 311.82 269.536 309.739 265.369 314.614C262.103 318.435 262.887 323.547 263.766 326.663Z" fill="white"/>
</mask>
<g mask="url(#mask2_329_1588)">
<g style="mix-blend-mode:soft-light" opacity="0.5">
<path d="M253.102 323.368L252.622 323.284C258.707 288.192 281.794 256.223 312.874 239.856L313.1 240.287C282.152 256.585 259.161 288.421 253.102 323.368Z" fill="#EDEDED"/>
<path d="M258.06 304.519L257.573 304.533C257.193 290.541 244.92 279.959 244.796 279.853L245.111 279.482C245.237 279.588 257.675 290.306 258.06 304.519Z" fill="#EDEDED"/>
<path d="M254.397 316.943L253.962 316.723C260.359 304.056 286.086 301.59 286.345 301.567L286.389 302.053C286.132 302.076 260.672 304.517 254.396 316.943H254.397Z" fill="#EDEDED"/>
<path d="M274.533 273.741L274.081 273.56C278.281 263.114 271.111 247.411 271.039 247.253L271.481 247.048C271.555 247.208 278.81 263.103 274.534 273.741H274.533Z" fill="#EDEDED"/>
<path d="M289.623 256.889L289.357 256.481C300.1 249.471 317.121 252.721 317.292 252.755L317.197 253.233C317.028 253.199 300.2 249.987 289.625 256.888L289.623 256.889Z" fill="#EDEDED"/>
</g>
</g>
<path d="M251.38 36.7972L95.7971 23.4693C92.183 23.3234 89.2471 26.2539 89.2471 30.0166V332.067C89.2471 335.829 92.183 338.686 95.7971 338.449L252.988 328.125C256.221 327.912 258.837 324.866 258.837 321.317V36.4971C258.837 32.9499 254.613 36.9282 251.38 36.7972Z" fill="#4C2BBF"/>
<path d="M215.566 29.1849C215.566 27.0853 217.189 25.3949 219.164 25.4345L220.513 25.3635L226.977 27.9421V30.2996L215.566 29.1849Z" fill="#140A3E"/>
<path d="M257.182 29.8368L99.9914 23.4696C96.3774 23.3236 93.4414 26.2541 93.4414 30.0169V332.067C93.4414 335.83 96.3774 338.687 99.9914 338.449L257.182 328.125C260.416 327.913 263.031 324.866 263.031 321.318V36.4973C263.031 32.9501 260.416 29.9678 257.182 29.8368Z" fill="#E3E3E3"/>
<g style="mix-blend-mode:multiply" opacity="0.3">
<path d="M192.891 251.817C190.22 217.403 210.247 203.169 202.613 172.004C193.172 133.46 156.803 131.764 144.396 93.8856C139.64 79.3639 137.76 57.4218 151.373 25.5503L99.9905 23.4684C96.3764 23.3224 93.4404 26.2529 93.4404 30.0157V332.066C93.4404 335.828 96.3764 338.685 99.9905 338.448L240.234 329.238C204.68 300.339 194.533 272.967 192.891 251.816V251.817Z" fill="#E3E3E3"/>
</g>
<path d="M257.182 33.6295L99.9914 27.4737C98.5097 27.4151 97.3037 28.6225 97.3037 30.1628V331.82C97.3037 333.362 98.5097 334.538 99.9914 334.442L257.182 324.331C258.51 324.245 259.588 322.992 259.588 321.534V36.3663C259.588 34.9092 258.508 33.6813 257.182 33.6295Z" fill="#EBEAFD"/>
<path d="M180.725 166.903C151.295 167.14 126.906 141.524 126.906 109.795C126.906 78.065 151.296 53.011 180.725 53.9264C209.567 54.8228 232.61 80.4239 232.61 111.012C232.61 141.599 209.567 166.67 180.725 166.903Z" fill="#E3E3E3"/>
<path d="M229.092 110.971C229.092 139.53 207.639 162.827 180.726 163.007C153.3 163.191 130.682 139.388 130.682 109.838C130.682 80.2889 153.3 57.0057 180.726 57.8216C207.639 58.6224 229.092 82.4118 229.092 110.971Z" fill="white"/>
<path opacity="0.74" d="M239.622 187.076L119.325 188.924C115.964 188.976 113.232 191.874 113.232 195.397C113.232 198.919 115.964 201.722 119.325 201.656L239.622 199.288C242.708 199.226 245.204 196.45 245.204 193.084C245.204 189.718 242.708 187.028 239.622 187.076Z" fill="url(#paint3_linear_329_1588)"/>
<path d="M239.621 211.117L141.076 213.47C137.764 213.549 135.073 216.448 135.073 219.944C135.073 223.441 137.764 226.2 141.076 226.107L239.621 223.329C242.707 223.242 245.204 220.444 245.204 217.078C245.204 213.712 242.707 211.044 239.621 211.117Z" fill="#E3E3E3"/>
<path d="M119.381 226.72L119.269 226.722C115.938 226.817 113.232 224.162 113.232 220.793V220.234C113.232 216.865 115.939 214.07 119.269 213.991L119.381 213.988C122.705 213.909 125.394 216.564 125.394 219.919V220.475C125.394 223.83 122.705 226.626 119.381 226.718V226.72Z" fill="#4C2BBF"/>
<path d="M119.325 227.915C115.338 228.029 112.086 224.722 112.086 220.543C112.086 216.365 115.337 212.89 119.325 212.796C123.301 212.703 126.528 216.01 126.528 220.167C126.528 224.324 123.302 227.8 119.325 227.913V227.915ZM119.325 215.183C116.598 215.25 114.377 217.628 114.377 220.485C114.377 223.342 116.599 225.604 119.325 225.529C122.047 225.454 124.257 223.076 124.257 220.228C124.257 217.381 122.047 215.119 119.325 215.184V215.183Z" fill="#E3E3E3"/>
<path d="M239.621 232.871L141.076 235.982C137.764 236.087 135.073 239.007 135.073 242.503C135.073 246 137.764 248.738 141.076 248.619L239.621 245.083C242.707 244.973 245.204 242.154 245.204 238.788C245.204 235.423 242.707 232.773 239.621 232.871Z" fill="#E3E3E3"/>
<path d="M119.381 249.397L119.269 249.401C115.938 249.521 113.232 246.887 113.232 243.519V242.959C113.232 239.591 115.939 236.775 119.269 236.67L119.381 236.666C122.705 236.561 125.394 239.195 125.394 242.55V243.107C125.394 246.461 122.705 249.277 119.381 249.396V249.397Z" fill="#4C2BBF"/>
<path d="M119.325 250.594C115.338 250.738 112.086 247.457 112.086 243.278C112.086 239.099 115.337 235.599 119.325 235.474C123.301 235.35 126.528 238.633 126.528 242.791C126.528 246.95 123.302 250.449 119.325 250.594ZM119.325 237.862C116.598 237.949 114.377 240.345 114.377 243.2C114.377 246.056 116.599 248.303 119.325 248.206C122.047 248.109 124.257 245.715 124.257 242.868C124.257 240.02 122.047 237.775 119.325 237.862Z" fill="#E3E3E3"/>
<path d="M239.621 254.624L141.076 258.493C137.764 258.622 135.073 261.564 135.073 265.061C135.073 268.557 137.764 271.275 141.076 271.13L239.621 266.836C242.707 266.7 245.204 263.864 245.204 260.498C245.204 257.133 242.707 254.502 239.621 254.624Z" fill="#E3E3E3"/>
<path d="M119.325 273.271C115.338 273.447 112.086 270.191 112.086 266.012C112.086 261.833 115.337 258.308 119.325 258.152C123.301 257.998 126.528 261.254 126.528 265.413C126.528 269.571 123.302 273.095 119.325 273.271ZM119.325 260.54C116.598 260.647 114.377 263.061 114.377 265.916C114.377 268.772 116.599 271.001 119.325 270.884C122.047 270.766 124.257 268.354 124.257 265.507C124.257 262.66 122.047 260.432 119.325 260.54Z" fill="#E3E3E3"/>
<path d="M239.621 276.376L141.076 281.004C137.764 281.16 135.073 284.121 135.073 287.618C135.073 291.115 137.764 293.812 141.076 293.642L239.621 288.588C242.707 288.43 245.204 285.573 245.204 282.207C245.204 278.842 242.707 276.23 239.621 276.375V276.376Z" fill="#E3E3E3"/>
<path d="M119.381 294.753L119.269 294.759C115.938 294.929 113.232 292.337 113.232 288.969V288.409C113.232 285.041 115.939 282.183 119.269 282.027L119.381 282.022C122.705 281.866 125.394 284.458 125.394 287.813V288.37C125.394 291.724 122.705 294.581 119.381 294.752V294.753Z" fill="#4C2BBF"/>
<path d="M119.325 295.95C115.338 296.156 112.086 292.924 112.086 288.746C112.086 284.569 115.337 281.018 119.325 280.831C123.301 280.645 126.528 283.878 126.528 288.037C126.528 292.195 123.302 295.745 119.325 295.95ZM119.325 283.218C116.598 283.348 114.377 285.776 114.377 288.633C114.377 291.49 116.599 293.701 119.325 293.562C122.047 293.424 124.257 290.995 124.257 288.147C124.257 285.3 122.047 283.089 119.325 283.217V283.218Z" fill="#E3E3E3"/>
<mask id="mask3_329_1588" style="mask-type:luminance" maskUnits="userSpaceOnUse" x="134" y="61" width="92" height="99">
<path d="M225.564 110.931C225.564 137.408 205.663 158.978 180.724 159.112C155.348 159.248 134.447 137.208 134.447 109.882C134.447 82.5564 155.348 60.9976 180.724 61.718C205.663 62.4261 225.564 84.4541 225.564 110.931Z" fill="white"/>
</mask>
<g mask="url(#mask3_329_1588)">
<path d="M189.453 72.3406C198.951 78.1512 201.613 88.288 202.22 90.7464C206.413 107.761 193.493 116.399 198.998 128.427C203.509 138.286 216.268 141.398 215.743 142.478C215.274 143.444 206.167 138.732 197.374 136.597C168.699 129.633 143.779 150.173 140.247 145.036C137.746 141.399 152.353 134.171 155.368 117.271C158.223 101.272 147.802 92.7683 154.13 80.8307C158.348 72.8713 166.497 70.0145 167.887 69.552C178.68 65.957 187.994 71.4484 189.454 72.3406H189.453Z" fill="#140A3E"/>
<path d="M130.683 145.946C130.683 145.946 174.643 118.584 229.093 145.868C229.093 145.868 222.151 169.296 180.727 170.839C138.077 172.427 130.683 145.946 130.683 145.946Z" fill="url(#paint4_linear_329_1588)"/>
<path d="M172.928 110.324L171.28 123.39C170.718 127.849 167.834 131.577 163.822 133.022L150.421 137.851C150.421 137.851 176.077 151.012 208.517 137.84L193.723 132.352C189.525 130.672 186.664 126.441 186.481 121.632L186.057 110.474L172.928 110.323V110.324Z" fill="#FDEEC8"/>
<path d="M174.66 119.169C167.919 117.244 164.307 111.371 162.165 107.889C158.576 102.052 153.622 89.9728 158.285 83.1077C158.547 82.7229 158.85 82.5333 159.389 81.8552C162.558 77.8756 162.193 74.6149 163.424 72.5275C166.397 67.4877 178.493 69.6038 179.229 69.7389C192.154 72.1209 197.759 83.959 197.869 84.2237C197.97 84.4638 198.071 84.7107 198.071 84.7107C198.854 86.6303 203.343 97.6334 197.711 107.941C193.195 116.204 183.463 121.685 174.661 119.17L174.66 119.169Z" fill="#140A3E"/>
<path d="M192.938 99.0183C192.938 110.051 186.696 121.858 178.96 121.801C171.183 121.742 164.847 109.724 164.847 98.583C164.847 87.4421 171.183 81.4829 178.96 81.6507C186.697 81.8171 192.938 87.9865 192.938 99.0196V99.0183Z" fill="#FDEEC8"/>
<path d="M164.378 105.762C165.719 105.702 163.783 94.1069 168.977 90.9581C172.426 88.8666 178.411 90.8763 181.777 94.6963C187.084 100.717 184.114 109.255 188.135 111.124C190.687 112.311 194.094 109.891 195.727 108.109C200.827 102.547 200.131 90.6443 194.104 83.8528C189.3 78.4406 182.781 78.15 181.23 78.1323C172.359 78.0272 164.216 84.9361 162.348 93.1901C160.914 99.5328 163.385 105.807 164.377 105.762H164.378Z" fill="#140A3E"/>
</g>
<g style="mix-blend-mode:soft-light" opacity="0.35">
<path d="M192.891 251.817C190.22 217.403 210.246 203.169 202.613 172.004C193.172 133.46 156.802 131.764 144.395 93.8853C139.836 79.9626 137.919 59.2184 149.775 29.4233L99.9914 27.4737C98.5097 27.4151 97.3037 28.6225 97.3037 30.1628V331.82C97.3037 333.362 98.5097 334.538 99.9914 334.442L235.995 325.694C203.859 298.089 194.465 272.091 192.892 251.816L192.891 251.817Z" fill="white"/>
</g>
<g style="mix-blend-mode:multiply">
<path d="M250.347 72.0377L235.957 60.6308L221.421 71.3419V35.3488C221.421 32.5425 220.158 29.8439 217.994 28.0348L217.882 27.9407L245.317 29.0185C248.097 29.1276 250.348 31.5452 250.348 34.4198V72.0377H250.347Z" fill="#E3E3E3"/>
</g>
<path d="M252.98 72.0374L238.59 59.9633L224.054 71.3007V33.2025C224.054 30.2324 222.79 27.3755 220.627 25.4614L220.515 25.3618L247.949 26.5024C250.73 26.6183 252.981 29.1778 252.981 32.2188V72.0374H252.98Z" fill="url(#paint5_linear_329_1588)"/>
<defs>
<linearGradient id="paint0_linear_329_1588" x1="307.659" y1="148.089" x2="237.593" y2="301.297" gradientUnits="userSpaceOnUse">
<stop stop-color="#836ADF"/>
<stop offset="1" stop-color="#4A2FA8"/>
</linearGradient>
<linearGradient id="paint1_linear_329_1588" x1="324.163" y1="192.762" x2="237.393" y2="308.815" gradientUnits="userSpaceOnUse">
<stop stop-color="#836ADF"/>
<stop offset="1" stop-color="#2E138B"/>
</linearGradient>
<linearGradient id="paint2_linear_329_1588" x1="293.599" y1="243.22" x2="244.621" y2="328.135" gradientUnits="userSpaceOnUse">
<stop stop-color="#836ADF"/>
<stop offset="1" stop-color="#23068A"/>
</linearGradient>
<linearGradient id="paint3_linear_329_1588" x1="113.232" y1="194.367" x2="245.204" y2="194.367" gradientUnits="userSpaceOnUse">
<stop stop-color="#836ADF"/>
<stop offset="1" stop-color="#2A0C91"/>
</linearGradient>
<linearGradient id="paint4_linear_329_1588" x1="187.073" y1="112.766" x2="176.677" y2="160.707" gradientUnits="userSpaceOnUse">
<stop stop-color="#836ADF"/>
<stop offset="1" stop-color="#3916B3"/>
</linearGradient>
<linearGradient id="paint5_linear_329_1588" x1="256.321" y1="14.0094" x2="212.688" y2="91.3423" gradientUnits="userSpaceOnUse">
<stop stop-color="#836ADF"/>
<stop offset="1" stop-color="#3719A2"/>
</linearGradient>
</defs>
</svg>
