<svg width="305" height="333" viewBox="0 0 305 333" fill="none" xmlns="http://www.w3.org/2000/svg">
<path opacity="0.12" d="M104.724 332.441C102.294 332.397 99.8028 333 97.3456 333H3.429C2.42283 333 0.232516 329.468 0.0203291 325.234C-0.219236 320.44 1.71782 318.576 2.71031 318.422C22.2383 315.362 41.78 317.336 61.308 318.301C69.1658 318.685 77.0167 318.093 84.8745 317.654C88.7965 317.435 92.7185 317.248 96.6474 317.248C100.22 317.248 103.718 315.625 107.134 319.903C107.866 320.824 108.68 322.261 108.872 325.015C109.036 327.362 108.633 329.874 108.071 331.146C107.503 332.408 106.812 332.649 106.148 332.561C105.682 332.495 105.21 332.463 104.738 332.452L104.724 332.441Z" fill="#4A445C"/>
<path d="M8.51409 0.00982709H53.7582C55.5856 0.00982709 57.0692 1.4934 57.0692 3.32085V326.455H5.21289V3.31102C5.21289 1.48358 6.69647 0 8.52392 0L8.51409 0.00982709Z" fill="#836ADF"/>
<path d="M45.1336 66.8299C52.8688 59.0947 52.8688 46.5535 45.1336 38.8183C37.3984 31.0831 24.8572 31.0831 17.122 38.8183C9.38682 46.5535 9.38682 59.0947 17.122 66.8299C24.8572 74.5651 37.3984 74.5651 45.1336 66.8299Z" fill="white"/>
<path d="M60.4595 7.72217H113.495C115.597 7.72217 117.307 9.43172 117.307 11.5343V326.455H56.6572V11.5343C56.6572 9.43172 58.3668 7.72217 60.4693 7.72217H60.4595Z" fill="#4C2BBF"/>
<path d="M106.214 57.554C108.823 46.9306 102.327 36.2033 91.7033 33.5939C81.0799 30.9845 70.3526 37.4812 67.7432 48.1047C65.1339 58.7281 71.6306 69.4554 82.254 72.0648C92.8774 74.6741 103.605 68.1775 106.214 57.554Z" fill="white"/>
<path d="M103.69 247.28C90.21 247.191 79.3632 236.197 79.4418 222.717C79.5303 209.237 90.5244 198.391 104.004 198.469C117.484 198.558 128.331 209.552 128.252 223.032C128.164 236.512 117.17 247.358 103.69 247.28Z" fill="#836ADF"/>
<mask id="mask0_397_1458" style="mask-type:luminance" maskUnits="userSpaceOnUse" x="79" y="198" width="50" height="50">
<path d="M103.689 247.28C90.2091 247.192 79.3623 236.197 79.4409 222.717C79.5293 209.238 90.5234 198.391 104.003 198.469C117.483 198.558 128.33 209.552 128.251 223.032C128.163 236.512 117.169 247.359 103.689 247.28Z" fill="white"/>
</mask>
<g mask="url(#mask0_397_1458)">
<path d="M100.054 240.815C102.942 241.188 105.88 241.237 108.778 240.972C110.35 240.825 111.942 240.579 113.367 239.911C116.128 238.614 118.043 235.686 118.132 232.64C118.191 230.685 117.552 228.789 116.933 226.932C115.911 223.906 114.899 220.89 113.878 217.864C113.436 216.557 113.052 215.309 112.738 213.973C112.443 212.745 112.07 211.477 111.235 210.495C110.262 209.355 108.199 208.982 106.794 208.923C105.35 208.864 104.151 209.247 102.775 209.434C101.076 209.66 99.5528 209.738 97.9514 210.485C97.2047 210.829 96.4874 211.271 95.9962 211.929C95.1709 213.02 95.1218 214.484 95.0137 215.84C94.6993 219.956 93.6186 224.014 91.8402 227.738C90.7202 230.086 89.2759 232.601 89.9047 235.126C90.2977 236.698 91.4767 237.995 92.862 238.82C94.2572 239.655 95.8488 240.078 97.4405 240.392C98.3051 240.559 99.1697 240.707 100.044 240.815H100.054Z" fill="#4A445C"/>
<path d="M99.1997 218.689C99.1997 218.689 99.2194 218.66 99.2292 218.64C99.5043 218.139 99.9169 217.736 100.369 217.392C101.951 216.213 104.584 215.761 106.372 216.744C107.276 217.245 107.757 218.227 107.895 219.22C108.013 220.065 107.934 220.909 107.885 221.764C107.688 225.046 108.042 234.782 109.919 235.333C112.346 236.05 111.56 238.172 112.336 238.025C109.428 238.555 107.138 242.967 104.201 243.31C101.263 243.654 97.6179 238.221 95.2402 236.472C96.8024 236.315 97.9912 235.657 98.453 234.016C99.5043 230.204 99.2292 226.166 98.905 222.206C98.8067 221.018 98.6593 219.75 99.2095 218.689H99.1997Z" fill="#FDEEC8"/>
<path d="M126.356 243.703C124.666 241.188 122.121 239.498 119.37 238.349C117.985 237.769 116.551 237.307 115.116 236.894C114.399 236.688 113.682 236.492 112.955 236.295C112.316 236.118 111.491 235.755 110.852 235.755C110.98 236.364 110.125 237.15 109.722 237.523C107.954 239.174 105.37 239.793 102.982 239.429C100.595 239.066 98.4038 237.779 96.6844 236.089C96.0262 236.177 95.3679 236.305 94.7096 236.423C93.5994 236.619 92.5285 236.993 91.4084 237.307C88.8834 238.015 86.0735 238.948 84.8846 241.286C83.912 243.202 84.3246 245.501 84.8846 247.564C85.0517 248.154 85.2187 248.753 85.3759 249.362L93.6387 249.411L100.359 249.451L108.632 249.5L113.023 249.529L128.616 249.628C128.183 247.515 127.545 245.472 126.346 243.703H126.356Z" fill="#836ADF"/>
<path d="M110.616 218.306C110.577 223.749 107.138 228.13 102.923 228.111C98.7081 228.081 95.3185 223.65 95.3578 218.207C95.3971 212.764 98.8358 208.382 103.051 208.402C107.266 208.431 110.655 212.862 110.616 218.306Z" fill="#FDEEC8"/>
<path d="M97.186 218.129C96.793 217.765 96.3116 217.529 95.7614 217.529C95.2407 217.529 94.7003 217.745 94.3269 218.109C94.1304 218.286 93.9929 218.502 93.9045 218.757C93.7767 218.993 93.7178 219.258 93.7276 219.534C93.7473 220.054 93.9143 220.595 94.3073 220.968C94.7003 221.332 95.1817 221.567 95.7319 221.567C96.2526 221.567 96.793 221.351 97.1664 220.988C97.3629 220.811 97.5004 220.595 97.5888 220.339C97.7166 220.103 97.7755 219.838 97.7657 219.563C97.746 219.042 97.579 218.502 97.186 218.138V218.129Z" fill="#FDEEC8"/>
<path d="M112.031 218.227C111.638 217.863 111.156 217.628 110.606 217.628C110.085 217.628 109.545 217.844 109.172 218.207C108.975 218.384 108.838 218.6 108.749 218.856C108.621 219.092 108.563 219.357 108.572 219.632C108.592 220.153 108.759 220.693 109.152 221.066C109.545 221.43 110.026 221.666 110.577 221.666C111.097 221.666 111.638 221.45 112.011 221.086C112.208 220.909 112.345 220.693 112.434 220.438C112.561 220.202 112.62 219.937 112.61 219.661C112.591 219.141 112.424 218.6 112.031 218.237V218.227Z" fill="#FDEEC8"/>
<path d="M111.166 209.512C111.127 209.463 111.088 209.414 111.048 209.355C109.889 207.921 108.533 206.869 106.666 206.575C105.183 206.339 103.67 206.486 102.167 206.496C99.9264 206.516 97.6274 206.26 95.4954 206.958C93.3633 207.655 91.4475 209.719 91.8601 211.92C92.2236 213.865 94.2771 215.113 96.2421 215.231C98.2169 215.348 100.123 214.602 101.95 213.865C103.463 213.256 105.085 212.371 106.666 211.988C107.295 211.861 107.993 211.929 108.504 212.322C110.056 213.521 109.123 215.928 110.321 217.254C110.508 217.461 110.754 217.618 111.019 217.647C111.431 217.687 111.825 217.412 112.07 217.078C113.662 214.828 112.748 211.507 111.166 209.512Z" fill="#4A445C"/>
<path d="M100.664 222.305C101.047 224.633 103.936 224.653 104.673 222.393L100.664 222.305Z" fill="white"/>
<path d="M107.974 228.475C107.935 227.561 107.905 226.637 107.915 225.822C107.866 226.264 106.254 227.02 105.911 227.178C105.154 227.512 104.378 227.698 103.572 227.797C105.017 228.17 106.49 228.386 107.974 228.484V228.475Z" fill="#140A3E"/>
</g>
<path d="M102.717 217.815C102.639 218.149 102.59 218.502 102.462 218.827C102.344 219.151 102.275 219.495 102.197 219.839C102.167 219.976 102.246 220.123 102.393 220.143C102.55 220.163 102.658 220.055 102.668 219.907C102.707 219.563 102.757 219.22 102.747 218.876C102.737 218.532 102.796 218.178 102.835 217.844C102.835 217.775 102.727 217.756 102.707 217.824L102.717 217.815Z" fill="#140A3E"/>
<path d="M123.428 172.624C109.967 171.965 99.5823 160.519 100.241 147.059C100.899 133.599 112.345 123.214 125.805 123.872C139.265 124.53 149.65 135.977 148.992 149.437C148.334 162.897 136.888 173.282 123.428 172.624Z" fill="#836ADF"/>
<mask id="mask1_397_1458" style="mask-type:luminance" maskUnits="userSpaceOnUse" x="100" y="123" width="50" height="50">
<path d="M123.428 172.624C109.967 171.965 99.5823 160.519 100.241 147.059C100.899 133.599 112.345 123.214 125.805 123.872C139.265 124.53 149.65 135.976 148.992 149.437C148.334 162.897 136.888 173.282 123.428 172.624Z" fill="white"/>
</mask>
<g mask="url(#mask1_397_1458)">
<path d="M120.145 143.866C120.145 143.866 120.164 143.836 120.174 143.817C120.469 143.335 120.891 142.942 121.363 142.618C122.994 141.498 125.647 141.164 127.386 142.225C128.27 142.765 128.702 143.767 128.8 144.76C128.889 145.605 128.761 146.45 128.683 147.295C128.349 150.566 128.29 160.303 130.146 160.942C132.544 161.757 131.669 163.85 132.446 163.742C129.518 164.145 127.042 168.458 124.094 168.684C121.147 168.91 117.738 163.319 115.438 161.472C117.01 161.384 118.229 160.775 118.749 159.153C119.968 155.39 119.86 151.343 119.693 147.373C119.644 146.184 119.555 144.907 120.145 143.876V143.866Z" fill="#FDEEC8"/>
<path d="M132.673 175.256C132.673 175.119 132.653 174.991 132.643 174.854C132.506 172.702 132.457 170.54 132.457 168.379C132.457 167.278 132.457 166.188 132.476 165.087C132.486 164.262 132.81 162.671 132.398 161.983C130.943 162.877 129.656 164.272 128.32 165.353C126.866 166.522 125.383 167.671 123.869 168.782C123.693 168.909 116.471 162.111 115.656 161.56C114.801 162.13 114.614 164.724 114.359 165.697C113.956 167.278 113.534 168.89 113.465 170.531C113.406 171.798 113.357 173.056 113.308 174.323L132.673 175.266V175.256Z" fill="#836ADF"/>
<path d="M148.245 176.013C147.901 173.891 147.35 171.818 146.23 170C143.401 165.382 137.427 163.28 132.574 161.629C130.304 160.863 130.117 162.209 129.616 164.518C129.243 166.247 129.096 168.006 128.889 169.764C128.693 171.474 128.487 173.272 128.29 175.05L148.245 176.023V176.013Z" fill="#4C2BBF"/>
<path d="M105.054 173.911L120.018 174.638C119.733 173.203 119.359 171.759 119.094 170.393C118.632 168.025 117.748 165.559 117.188 163.152C117.021 162.425 116.933 161.669 116.746 160.951C115.125 160.922 113.17 161.737 111.568 162.111C109.014 162.71 106.174 163.525 104.887 165.805C103.836 167.672 104.15 169.99 104.632 172.083C104.769 172.682 104.917 173.292 105.054 173.901V173.911Z" fill="#4C2BBF"/>
<path d="M131.562 143.964C131.296 149.397 127.671 153.642 123.456 153.435C119.241 153.229 116.048 148.66 116.313 143.227C116.579 137.794 120.204 133.55 124.419 133.756C128.624 133.962 131.827 138.531 131.562 143.964Z" fill="#FDEEC8"/>
<path d="M118.161 143.217C117.788 142.834 117.306 142.588 116.766 142.559C116.245 142.529 115.695 142.736 115.312 143.08C115.105 143.256 114.958 143.463 114.86 143.708C114.722 143.944 114.653 144.2 114.644 144.475C114.644 144.995 114.791 145.546 115.164 145.929C115.538 146.312 116.019 146.558 116.559 146.587C117.08 146.617 117.63 146.41 118.014 146.066C118.22 145.889 118.367 145.683 118.465 145.438C118.603 145.202 118.672 144.946 118.682 144.671C118.682 144.15 118.534 143.6 118.161 143.217Z" fill="#FDEEC8"/>
<path d="M132.986 143.934C132.613 143.551 132.131 143.306 131.591 143.276C131.07 143.247 130.52 143.453 130.137 143.797C129.931 143.974 129.783 144.18 129.685 144.426C129.547 144.661 129.479 144.917 129.469 145.192C129.469 145.713 129.616 146.263 129.989 146.646C130.363 147.029 130.844 147.275 131.385 147.304C131.905 147.334 132.456 147.128 132.839 146.784C133.045 146.607 133.192 146.4 133.291 146.155C133.428 145.919 133.497 145.664 133.507 145.388C133.507 144.868 133.359 144.318 132.986 143.934Z" fill="#FDEEC8"/>
<path d="M132.476 135.2H132.496C132.456 135.141 132.417 135.092 132.378 135.033C132.221 134.827 132.054 134.63 131.877 134.453C130.305 132.587 128.3 131.103 125.992 130.278C123.398 129.344 120.49 129.266 117.876 130.15C117.09 130.415 116.314 130.779 115.695 131.329C115.066 131.879 114.595 132.636 114.516 133.461C114.496 133.677 114.506 133.893 114.536 134.1C114.084 134.453 113.691 134.866 113.435 135.377C113.121 135.996 113.18 136.497 113.308 137.067C112.934 137.489 112.62 137.981 112.58 138.531C112.541 139.042 112.856 139.592 113.288 139.798C113.111 140.604 113.17 141.429 113.809 142.048C114.693 142.903 116.098 143.011 117.267 142.628C120.401 141.626 123.162 139.631 126.08 138.157C126.65 137.873 127.239 137.578 127.878 137.48C128.517 137.381 129.214 137.48 129.696 137.892C131.189 139.16 130.157 141.527 131.307 142.903C131.484 143.109 131.72 143.286 131.995 143.325C132.407 143.384 132.81 143.129 133.066 142.795C134.755 140.614 133.979 137.263 132.466 135.21L132.476 135.2Z" fill="#4A445C"/>
<path d="M121.6 148.876C121.885 151.225 124.773 151.362 125.598 149.142L121.6 148.876Z" fill="white"/>
<path d="M127.956 153.75C128.133 153.75 128.319 153.75 128.496 153.75C128.496 152.915 128.506 152.099 128.545 151.353C128.476 151.795 126.836 152.482 126.482 152.62C125.775 152.895 125.038 153.052 124.301 153.121C125.47 153.524 126.728 153.701 127.956 153.76V153.75Z" fill="#140A3E"/>
</g>
<path d="M124.213 146.126C123.731 146.165 123.289 146.076 122.857 145.909C122.965 145.693 123.083 145.487 123.21 145.29C123.387 145.015 123.554 144.75 123.721 144.475C123.741 144.436 123.692 144.396 123.662 144.426C123.24 144.917 122.847 145.448 122.356 145.86C122.238 145.959 122.257 146.155 122.385 146.243C122.896 146.597 123.554 146.745 124.173 146.715C124.33 146.715 124.478 146.607 124.478 146.44C124.478 146.302 124.36 146.116 124.203 146.135L124.213 146.126Z" fill="#140A3E"/>
<path d="M250.123 79.1802C253.67 82.3242 259.172 87.217 262.07 90.9603" stroke="#836ADF" stroke-width="2.78506" stroke-miterlimit="10"/>
<path d="M263.681 78.7673C259.358 82.9626 255.025 87.1579 250.702 91.3433" stroke="#836ADF" stroke-width="2.78506" stroke-miterlimit="10"/>
<path d="M281.355 74.8179C282.495 73.0101 285.787 72.2045 287.506 73.5898C288.547 74.4249 289.068 76.1836 288.813 77.4707C288.479 79.1409 286.956 80.2708 286.062 81.715C284.863 83.6506 285.089 86.0872 285.168 88.2781" stroke="#4A445C" stroke-width="1.39253" stroke-miterlimit="10"/>
<path d="M285.777 91.2552C285.747 91.1275 285.718 90.9997 285.659 90.8917C285.619 90.8229 285.551 90.7443 285.492 90.6755C285.472 90.646 285.452 90.6264 285.423 90.5969C285.374 90.5576 285.335 90.5281 285.285 90.4888C285.207 90.4397 285.128 90.4102 285.03 90.4102C284.971 90.3906 284.912 90.3906 284.853 90.4102C284.765 90.4102 284.676 90.4397 284.598 90.4888C284.549 90.5281 284.509 90.5576 284.46 90.5969C284.421 90.646 284.391 90.6853 284.352 90.7345C284.303 90.8131 284.273 90.8917 284.273 90.9899C284.254 91.0783 284.254 91.1668 284.283 91.265C284.313 91.3927 284.342 91.5205 284.401 91.6285C284.44 91.6973 284.509 91.7759 284.568 91.8447C284.588 91.8742 284.608 91.8938 284.637 91.9233C284.686 91.9626 284.725 91.9921 284.775 92.0314C284.853 92.0805 284.932 92.11 285.03 92.11C285.089 92.1296 285.148 92.1296 285.207 92.11C285.295 92.11 285.384 92.0805 285.462 92.0314C285.511 91.9921 285.551 91.9626 285.6 91.9233C285.639 91.8742 285.669 91.8349 285.708 91.7857C285.757 91.7071 285.786 91.6285 285.786 91.5303C285.806 91.4419 285.806 91.3534 285.777 91.2552Z" fill="#4A445C"/>
<path d="M250.27 58.3021C252.912 60.778 255.546 63.2539 258.188 65.7397C261.627 61.0335 264.506 55.9245 266.746 50.5404" stroke="#4C2BBF" stroke-width="2.78506" stroke-miterlimit="10"/>
<path d="M277.004 55.944C279.421 59.3827 281.72 62.9099 283.901 66.496C287.517 60.6305 291.122 54.765 294.738 48.8896" stroke="#4C2BBF" stroke-width="2.78506" stroke-miterlimit="10"/>
<path d="M178.271 171.051C177.937 173.704 175.52 175.581 172.868 175.247C170.215 174.913 168.338 172.496 168.672 169.843C169.006 167.19 171.423 165.314 174.076 165.648C176.729 165.982 178.605 168.399 178.271 171.051Z" fill="#4C2BBF"/>
<path d="M194.582 166.008L185.839 166.113L185.944 174.857L194.688 174.752L194.582 166.008Z" fill="#836ADF"/>
<path d="M207.088 164.528L208.896 168.31L213.032 168.959L209.997 171.847L210.655 175.984L206.97 173.999L203.237 175.895L204.003 171.778L201.036 168.821L205.182 168.261L207.088 164.528Z" fill="#836ADF"/>
<path d="M221.875 137.332C235.424 137.568 249.179 137.568 262.747 137.332" stroke="#4A445C" stroke-width="1.39253" stroke-miterlimit="10"/>
<path d="M169.36 137.332C178.606 137.499 198.285 137.499 209.82 137.332" stroke="#4A445C" stroke-width="1.39253" stroke-miterlimit="10"/>
<path d="M242.114 145.477H262.747" stroke="#4A445C" stroke-width="1.39253" stroke-miterlimit="10"/>
<path d="M169.36 145.477C190.229 145.428 214.064 146.322 234.078 145.477" stroke="#4A445C" stroke-width="1.39253" stroke-miterlimit="10"/>
<path d="M199.553 153.867C220.686 154.26 241.319 154.26 262.747 153.867" stroke="#4A445C" stroke-width="1.39253" stroke-miterlimit="10"/>
<path d="M169.36 153.867C174.312 153.867 181.799 153.612 186.751 153.612" stroke="#4A445C" stroke-width="1.39253" stroke-miterlimit="10"/>
<path d="M159.603 241.906C159.269 244.558 156.852 246.435 154.2 246.101C151.547 245.767 149.67 243.35 150.004 240.697C150.338 238.045 152.755 236.168 155.408 236.502C158.061 236.836 159.937 239.253 159.603 241.906Z" fill="#4C2BBF"/>
<path d="M188.42 235.382L190.228 239.155L194.364 239.813L191.329 242.701L191.987 246.838L188.302 244.843L184.569 246.749L185.335 242.633L182.368 239.666L186.514 239.115L188.42 235.382Z" fill="#836ADF"/>
<path d="M172.474 235.382L174.282 239.155L178.418 239.813L175.382 242.701L176.041 246.838L172.356 244.843L168.623 246.749L169.379 242.633L166.422 239.666L170.568 239.115L172.474 235.382Z" fill="#836ADF"/>
<path d="M229.027 208.972C233.714 208.943 235.355 208.972 240.041 208.894" stroke="#4A445C" stroke-width="1.39253" stroke-miterlimit="10"/>
<path d="M149.71 208.815C161.736 209.051 211.578 209.64 222.906 209.404" stroke="#4A445C" stroke-width="1.39253" stroke-miterlimit="10"/>
<path d="M222.464 216.96C229.341 216.96 233.163 216.537 240.041 216.537" stroke="#4A445C" stroke-width="1.39253" stroke-miterlimit="10"/>
<path d="M149.71 216.96C170.578 216.911 194.374 217.166 214.771 217.215" stroke="#4A445C" stroke-width="1.39253" stroke-miterlimit="10"/>
<path d="M189.325 226.028C206.804 226.244 220.529 224.996 238.008 224.672" stroke="#4A445C" stroke-width="1.39253" stroke-miterlimit="10"/>
<path d="M157.256 225.517C165.234 225.35 175.737 226.195 183.213 226.195" stroke="#4A445C" stroke-width="1.39253" stroke-miterlimit="10"/>
<path d="M151.675 225.351H155.074" stroke="#4A445C" stroke-width="1.39253" stroke-miterlimit="10"/>
<path d="M250.387 42.2479H294.934C299.699 42.2479 303.57 46.119 303.57 50.8841V93.1512C303.57 97.9163 299.699 101.787 294.934 101.787H250.387C245.622 101.787 241.751 97.9163 241.751 93.1512V50.8841C241.751 46.119 245.622 42.2479 250.387 42.2479Z" stroke="#4A445C" stroke-width="1.39253" stroke-miterlimit="10"/>
<path d="M169.429 56.7001C170.274 51.9252 166.501 49.6359 162.256 49.8717C155.968 50.2254 153.316 56.9457 158.542 60.8856C162.266 63.6955 168.603 61.367 169.429 56.7001Z" fill="#836ADF"/>
<path d="M158.739 78.0109C162.581 81.9998 166.422 85.9789 170.254 89.9679" stroke="#4A445C" stroke-width="1.0444" stroke-miterlimit="10"/>
<path d="M168.937 77.1753C165.734 81.3411 162.541 85.4971 159.338 89.6629" stroke="#4A445C" stroke-width="1.0444" stroke-miterlimit="10"/>
<path d="M181.965 76.7528C184.018 80.6435 186.072 84.5342 188.125 88.4347C192.537 82.0681 196.938 75.7016 201.35 69.335" stroke="#4A445C" stroke-width="1.0444" stroke-miterlimit="10"/>
<path d="M189.689 49.6754L192.292 54.2047L197.509 54.6174L194.012 58.4983L195.22 63.5876L190.445 61.4556L185.994 64.1869L186.535 58.9895L182.565 55.5901L187.684 54.5093L189.689 49.6754Z" fill="#836ADF"/>
<path d="M199.081 102.72H154.593C149.455 102.72 145.279 98.5547 145.279 93.4064C145.279 75.8983 143.658 59.7656 147.725 42.2182C148.364 39.4574 152.156 38.5928 154.593 38.5928H199.081C209.122 38.5928 209.859 52.1316 209.908 59.3825C209.976 70.75 208.395 81.9996 208.395 93.4064C208.395 98.5449 204.229 102.72 199.081 102.72Z" stroke="#4A445C" stroke-width="1.39253" stroke-miterlimit="10"/>
</svg>
