<svg xmlns="http://www.w3.org/2000/svg" version="1.1" xmlns:xlink="http://www.w3.org/1999/xlink" xmlns:svgjs="http://svgjs.com/svgjs" width="99" height="94"><svg width="99" height="94" viewBox="0 0 99 94" fill="none" xmlns="http://www.w3.org/2000/svg">
<path d="M35.6322 87.1363C33.2924 87.1363 31.0912 86.2193 29.4376 84.5575L2.23542 57.2248C0.523416 55.5044 0.523416 52.7201 2.23542 50.9997C3.94742 49.2792 6.71801 49.2792 8.43002 50.9997L35.6286 78.3324L54.2562 59.6129L39.4614 44.7452C36.0447 41.3116 36.0447 35.7285 39.4614 32.2949L59.1841 12.4749C60.8377 10.8132 63.0389 9.89612 65.3787 9.89612C67.7186 9.89612 69.9197 10.8132 71.5733 12.4749L96.7642 37.7901C98.4762 39.5105 98.4762 42.2948 96.7642 44.0152C95.0522 45.7356 92.2779 45.7356 90.5696 44.0152L65.3787 18.7001L45.656 38.5201L60.4508 53.3878C63.8675 56.8213 63.8675 62.4045 60.4508 65.8381L41.8232 84.5575C40.1696 86.2193 37.9684 87.1363 35.6286 87.1363H35.6322Z" fill="#836ADF"></path>
<path d="M36.9097 64.015C35.789 64.015 34.6684 63.5858 33.8105 62.7274L13.9126 42.7277C12.259 41.066 11.3464 38.854 11.3464 36.5026C11.3464 34.1512 12.259 31.9392 13.9126 30.2774L42.7538 1.29033C44.4658 -0.430111 47.2364 -0.430111 48.9484 1.29033C50.6604 3.01078 50.6604 5.79503 48.9484 7.51548L20.1072 36.5026L40.0051 56.4986C41.7171 58.2191 41.7171 61.0033 40.0051 62.7238C39.1509 63.5821 38.0303 64.0113 36.906 64.0113L36.9097 64.015Z" fill="#4C2BBF"></path>
<path d="M55.1617 93.1782C54.041 93.1782 52.9204 92.749 52.0626 91.8906C50.3506 90.1701 50.3506 87.3859 52.0626 85.6654L79.6262 57.9659L59.7282 37.9699C58.0162 36.2494 58.0162 33.4652 59.7282 31.7447C61.4402 30.0243 64.2145 30.0243 65.9228 31.7447L85.8208 51.7408C89.2375 55.1743 89.2375 60.7575 85.8208 64.1911L58.2572 91.8906C57.403 92.749 56.2823 93.1782 55.158 93.1782H55.1617Z" fill="#4C2BBF"></path>
</svg><style>@media (prefers-color-scheme: light) { :root { filter: none; } }
</style></svg>