<svg width="50" height="50" viewBox="0 0 50 50" fill="none" xmlns="http://www.w3.org/2000/svg">
<g id="profile">
<path id="Vector" opacity="0.4" d="M25.0003 45.8541C36.5062 45.8541 45.8337 36.5269 45.8337 25.0208C45.8337 13.5149 36.5062 4.1875 25.0003 4.1875C13.4944 4.1875 4.16699 13.5149 4.16699 25.0208C4.16699 36.5269 13.4944 45.8541 25.0003 45.8541Z" fill="#4A445C"/>
<path id="Vector_2" d="M25 14.4583C20.6875 14.4583 17.1875 17.9583 17.1875 22.2707C17.1875 26.4998 20.5 29.9373 24.8958 30.0623C24.9583 30.0623 25.0417 30.0623 25.0833 30.0623C25.125 30.0623 25.1875 30.0623 25.2292 30.0623C25.25 30.0623 25.2708 30.0623 25.2708 30.0623C29.4792 29.9165 32.7917 26.4998 32.8125 22.2707C32.8125 17.9583 29.3125 14.4583 25 14.4583Z" fill="#4A445C"/>
<path id="Vector_3" d="M39.126 40.3333C35.4176 43.75 30.4593 45.8542 25.001 45.8542C19.5426 45.8542 14.5843 43.75 10.876 40.3333C11.376 38.4375 12.7301 36.7083 14.7093 35.375C20.3968 31.5833 29.6468 31.5833 35.2926 35.375C37.2926 36.7083 38.626 38.4375 39.126 40.3333Z" fill="#4A445C"/>
</g>
</svg>
