<svg width="30" height="30" viewBox="0 0 30 30" fill="none" xmlns="http://www.w3.org/2000/svg">
<g id="logout-svgrepo-com 1">
<path id="Vector" opacity="0.5" d="M14.999 25.0002C9.47617 25.0002 4.99902 20.5231 4.99902 15.0002C4.99902 9.47739 9.47617 5.00024 14.999 5.00024V25.0002Z" fill="#322E3D"/>
<path id="Vector_2" fill-rule="evenodd" clip-rule="evenodd" d="M20.5871 10.5871C20.221 10.9532 20.221 11.5468 20.5871 11.9129L22.7366 14.0625H12.5C11.9822 14.0625 11.5625 14.4822 11.5625 15C11.5625 15.5177 11.9822 15.9375 12.5 15.9375H22.7366L20.5871 18.0871C20.221 18.4532 20.221 19.0467 20.5871 19.4129C20.9532 19.779 21.5468 19.779 21.9129 19.4129L25.6629 15.6629C26.029 15.2967 26.029 14.7032 25.6629 14.3371L21.9129 10.5871C21.5468 10.221 20.9532 10.221 20.5871 10.5871Z" fill="#322E3D"/>
</g>
</svg>
