<svg width="31" height="30" viewBox="0 0 31 30" fill="none" xmlns="http://www.w3.org/2000/svg">
<path d="M15.4979 28.1056C22.7411 28.1056 28.6129 22.2338 28.6129 14.9906C28.6129 7.74735 22.7411 1.87555 15.4979 1.87555C8.25462 1.87555 2.38281 7.74735 2.38281 14.9906C2.38281 22.2338 8.25462 28.1056 15.4979 28.1056Z" fill="url(#paint0_linear_22_2699)"/>
<path d="M20.3818 18.9998L20.9644 15.298H17.3199V12.897C17.3199 11.884 17.8281 10.8961 19.4605 10.8961H21.1184V7.74462C21.1184 7.74462 19.6144 7.49451 18.1772 7.49451C15.1743 7.49451 13.2135 9.26779 13.2135 12.4767V15.298H9.87695V18.9998H13.2135V27.9488C13.8833 28.0514 14.5686 28.1039 15.2667 28.1039C15.9648 28.1039 16.6501 28.0514 17.3199 27.9488V18.9998H20.3818Z" fill="white"/>
<defs>
<linearGradient id="paint0_linear_22_2699" x1="15.4979" y1="1.87555" x2="15.4979" y2="28.0279" gradientUnits="userSpaceOnUse">
<stop stop-color="#18ACFE"/>
<stop offset="1" stop-color="#0163E0"/>
</linearGradient>
</defs>
</svg>
