<svg width="28" height="28" viewBox="0 0 28 28" fill="none" xmlns="http://www.w3.org/2000/svg">
<g clip-path="url(#clip0_22_2683)">
<path fill-rule="evenodd" clip-rule="evenodd" d="M6.38387 13.9959C6.38387 13.146 6.52504 12.3311 6.77699 11.5668L2.36694 8.19913C1.50744 9.94423 1.02319 11.9106 1.02319 13.9959C1.02319 16.0795 1.50685 18.0446 2.36515 19.7885L6.77282 16.4143C6.52325 15.6536 6.38387 14.8417 6.38387 13.9959Z" fill="#FBBC05"/>
<path fill-rule="evenodd" clip-rule="evenodd" d="M14.1276 6.26641C15.974 6.26641 17.6418 6.92067 18.9522 7.99129L22.7642 4.18466C20.4413 2.16238 17.4631 0.91333 14.1276 0.91333C8.94916 0.91333 4.4986 3.87477 2.36743 8.20184L6.77749 11.5695C7.79363 8.48496 10.6902 6.26641 14.1276 6.26641Z" fill="#EB4335"/>
<path fill-rule="evenodd" clip-rule="evenodd" d="M14.1276 21.729C10.6902 21.729 7.79363 19.5105 6.77749 16.4259L2.36743 19.793C4.4986 24.1207 8.94916 27.0821 14.1276 27.0821C17.3237 27.0821 20.3752 25.9472 22.6654 23.8209L18.4793 20.5847C17.2981 21.3287 15.8108 21.729 14.1276 21.729Z" fill="#34A853"/>
<path fill-rule="evenodd" clip-rule="evenodd" d="M26.6379 13.9994C26.6379 13.2262 26.5188 12.3935 26.3401 11.6202H14.1296V16.6759H21.1581C20.8067 18.3996 19.8501 19.7248 18.4813 20.5872L22.6674 23.8235C25.0732 21.5906 26.6379 18.2646 26.6379 13.9994Z" fill="#4285F4"/>
</g>
<defs>
<clipPath id="clip0_22_2683">
<rect width="26.7654" height="26.7654" fill="white" transform="translate(0.617188 0.605927)"/>
</clipPath>
</defs>
</svg>
