<svg width="579" height="432" viewBox="0 0 579 432" fill="none" xmlns="http://www.w3.org/2000/svg">
<g clip-path="url(#clip0_24_2746)">
<path d="M0 379.187H579V379.477H0V379.187Z" fill="#EBEBEB"/>
<path d="M58.0157 397.819H96.3687V398.109H58.0157V397.819Z" fill="#EBEBEB"/>
<path d="M195.447 400.969H205.51V401.259H195.447V400.969Z" fill="#EBEBEB"/>
<path d="M97.5268 387.073H119.749V387.363H97.5268V387.073Z" fill="#EBEBEB"/>
<path d="M468.237 389.019H518.251V389.308H468.237V389.019Z" fill="#EBEBEB"/>
<path d="M450.589 389.019H457.919V389.308H450.589V389.019Z" fill="#EBEBEB"/>
<path d="M318.276 393.905H426.758V394.195H318.276V393.905Z" fill="#EBEBEB"/>
<path d="M304.542 327.54H528.152C531.8 327.54 534.764 324.576 534.764 320.928V6.61218C534.764 2.96448 531.8 0 528.152 0H304.542C300.895 0 297.93 2.96448 297.93 6.61218V320.928C297.93 324.576 300.895 327.54 304.542 327.54ZM528.152 0.2895C531.638 0.2895 534.475 3.1266 534.475 6.61218V320.928C534.475 324.414 531.638 327.251 528.152 327.251H304.542C301.057 327.251 298.22 324.414 298.22 320.928V6.61218C298.22 3.1266 301.057 0.2895 304.542 0.2895H528.152Z" fill="#EBEBEB"/>
<path d="M54.0671 327.54H277.677C281.325 327.54 284.289 324.576 284.289 320.928V6.61218C284.289 2.96448 281.325 0 277.677 0H54.0671C50.4194 0 47.4549 2.96448 47.4549 6.61218V320.928C47.4549 324.576 50.4194 327.54 54.0671 327.54ZM277.677 0.2895C281.162 0.2895 284 3.1266 284 6.61218V320.928C284 324.414 281.162 327.251 277.677 327.251H54.0671C50.5815 327.251 47.7444 324.414 47.7444 320.928V6.61218C47.7444 3.1266 50.5815 0.2895 54.0671 0.2895H277.677Z" fill="#EBEBEB"/>
<path d="M61.096 96.8783H212.146V104.637H61.096V96.8783Z" fill="#E0E0E0"/>
<path d="M198.539 68.2757H205.198V96.8783H198.539V68.2757Z" fill="#EBEBEB"/>
<path d="M166.358 68.2757H173.017V96.8783H166.358V68.2757Z" fill="#EBEBEB"/>
<path d="M129.818 67.5404L136.38 68.6714L131.521 96.8584L124.96 95.7273L129.818 67.5404Z" fill="#EBEBEB"/>
<path d="M190.294 72.0392H196.952V96.8783H190.294V72.0392Z" fill="#EBEBEB"/>
<path d="M174.997 72.0392H181.655V96.8783H174.997V72.0392Z" fill="#EBEBEB"/>
<path d="M136.389 72.0392H143.048V96.8783H136.389V72.0392Z" fill="#EBEBEB"/>
<path d="M157.622 71.1732L164.122 72.6178L158.733 96.8653L152.233 95.4207L157.622 71.1732Z" fill="#EBEBEB"/>
<path d="M184.539 66.8513H187.862V96.8783H184.539V66.8513Z" fill="#EBEBEB"/>
<path d="M144.958 66.8513H148.282V96.8783H144.958V66.8513Z" fill="#EBEBEB"/>
<path d="M75.5943 74.2394H108.018V96.6236H75.5943V74.2394Z" fill="#EBEBEB"/>
<path d="M212.146 162.583L61.0962 162.583V154.825L212.146 154.825V162.583Z" fill="#E0E0E0"/>
<path d="M74.7142 154.813H68.0557V126.21H74.7142V154.813Z" fill="#EBEBEB"/>
<path d="M106.883 154.813H100.225V126.21H106.883V154.813Z" fill="#EBEBEB"/>
<path d="M148.27 153.678L141.708 154.809L136.85 126.622L143.412 125.491L148.27 153.678Z" fill="#EBEBEB"/>
<path d="M82.959 154.825H76.3005V129.986H82.959V154.825Z" fill="#EBEBEB"/>
<path d="M98.2444 154.825H91.5859V129.986H98.2444V154.825Z" fill="#EBEBEB"/>
<path d="M136.852 154.825H130.194V129.986H136.852V154.825Z" fill="#EBEBEB"/>
<path d="M120.996 153.346L114.496 154.79L109.107 130.543L115.607 129.098L120.996 153.346Z" fill="#EBEBEB"/>
<path d="M88.7028 154.825H85.3794V124.798H88.7028V154.825Z" fill="#EBEBEB"/>
<path d="M128.283 154.825H124.96V124.798H128.283V154.825Z" fill="#EBEBEB"/>
<path d="M197.659 154.558H165.235V132.174H197.659V154.558Z" fill="#EBEBEB"/>
<path d="M517.626 244.396V379.882H510.678V258.292H387.93V379.882H379.824V244.396H517.626Z" fill="#E0E0E0"/>
<path d="M441.198 244.396V379.882H434.25V258.292H311.502V379.882H303.396V244.396H441.198Z" fill="#F5F5F5"/>
<path d="M397.333 193.907C398.885 191.36 401.432 193.571 401.432 193.571C401.073 188.685 405.566 185.338 405.566 185.338C405.566 185.338 400.344 185.338 399.614 180.347C398.885 175.356 401.432 177.684 403.829 177.649C406.226 177.614 408.728 184.608 405.566 188.546C402.405 192.483 403.25 199.188 410.546 205.649C412.329 207.224 413.533 209.32 414.356 211.59C413.8 205.661 413.499 197.3 415.236 191.718C418.2 182.246 412.549 179.687 410.905 174.951C409.26 170.214 415.236 166.208 415.236 166.208C415.236 166.208 409.631 163.66 412.364 160.742C415.097 157.824 420.748 158.218 420.748 162.039C420.748 165.86 416.915 167.308 416.915 167.308C416.915 167.308 412.538 171.859 412.538 174.233C412.538 176.607 416.915 181.702 416.915 181.702C416.915 181.702 414.911 177.336 418.918 177.151C422.925 176.966 424.199 182.246 422.566 184.62C420.921 186.994 418.189 184.979 418.189 184.979C418.189 184.979 417.876 190.086 416.938 193.178C416.533 194.544 416.718 199.882 417.065 205.452C417.876 203.449 419.011 201.608 420.62 200.183C427.916 193.722 428.761 187.017 425.6 183.08C422.438 179.143 424.94 172.148 427.337 172.183C429.734 172.218 432.281 169.902 431.552 174.881C430.822 179.861 425.6 179.872 425.6 179.872C425.6 179.872 430.093 183.219 429.734 188.106C429.734 188.106 432.281 185.882 433.833 188.441C436.601 192.992 430.185 195.818 429.108 193.583C429.108 193.583 415.514 203.206 418.791 217.056L418.026 218.179C418.119 219.302 418.189 219.974 418.189 219.974L417.123 219.51L415.919 221.294C415.977 224.756 415.606 227.315 415.606 227.315L412.352 222.521C415.629 208.672 402.034 199.049 402.034 199.049C400.957 201.295 394.542 198.47 397.31 193.907H397.333Z" fill="#E0E0E0"/>
<path d="M405.567 244.396L409.955 219.279L408.716 211.972H422.531L421.292 219.279L425.669 244.396H405.567Z" fill="#EBEBEB"/>
<path d="M289.5 431.482C165.498 431.482 64.9751 425.613 64.9751 418.374C64.9751 411.134 165.498 405.265 289.5 405.265C413.501 405.265 514.024 411.134 514.024 418.374C514.024 425.613 413.501 431.482 289.5 431.482Z" fill="#F5F5F5"/>
<path d="M230.749 60.6094L266.421 41.3455L291.578 87.9306L255.906 107.194L230.749 60.6094Z" fill="#4C2BBF"/>
<path opacity="0.6" d="M230.749 60.6094L266.421 41.3455L291.578 87.9306L255.906 107.194L230.749 60.6094Z" fill="white"/>
<path d="M239.643 64.3372L264.667 50.8234L266.026 53.3401L241.002 66.854L239.643 64.3372Z" fill="#4C2BBF"/>
<path d="M242.021 68.7473L267.046 55.2334L268.405 57.7501L243.38 71.264L242.021 68.7473Z" fill="#4C2BBF"/>
<path d="M244.393 73.1416L269.418 59.6277L270.777 62.1445L245.752 75.6584L244.393 73.1416Z" fill="#4C2BBF"/>
<path d="M246.782 77.5578L271.807 64.0439L273.166 66.5606L248.141 80.0745L246.782 77.5578Z" fill="#4C2BBF"/>
<path d="M249.155 81.9576L274.18 68.4437L275.539 70.9604L250.514 84.4743L249.155 81.9576Z" fill="#4C2BBF"/>
<path d="M251.544 86.3737L276.569 72.8599L277.928 75.3766L252.903 88.8905L251.544 86.3737Z" fill="#4C2BBF"/>
<path d="M253.917 90.7736L278.942 77.2597L280.301 79.7764L255.276 93.2903L253.917 90.7736Z" fill="#4C2BBF"/>
<path d="M265.123 90.4067L281.323 81.6579L282.683 84.1746L266.482 92.9234L265.123 90.4067Z" fill="#4C2BBF"/>
<path d="M325.525 60.9456C339.595 59.4981 349.867 46.8874 348.419 32.8177C346.972 18.748 334.361 8.47658 320.291 9.92408C306.222 11.3716 295.95 23.9822 297.398 38.0519C298.845 52.1216 311.456 62.3931 325.525 60.9456Z" fill="#4C2BBF"/>
<path opacity="0.3" d="M321.106 58.7498C308.219 57.7582 298.576 46.5072 299.567 33.6201C300.559 20.733 311.81 11.0898 324.697 12.0814C337.584 13.073 347.227 24.3239 346.236 37.211C345.244 50.0982 333.993 59.7414 321.106 58.7498Z" fill="white"/>
<path d="M314.976 27.8731C317.674 25.9508 321.438 19.4197 321.438 19.3849L323.869 43.0544C323.812 42.5218 325.931 41.9775 327.332 41.8385C330.725 41.4911 333.585 43.0776 333.817 45.382C334.048 47.6864 331.443 49.8287 328.05 50.1761C324.657 50.5235 321.831 48.9255 321.6 46.6327C321.565 46.2853 321.843 45.9263 321.808 45.602L319.932 27.3635C319.932 27.3635 318.056 29.7259 314.907 31.1734C312.347 32.3545 311.386 35.898 311.386 35.898C311.386 35.898 310.807 30.8375 314.976 27.8731Z" fill="white"/>
<path opacity="0.5" d="M318.564 43.6322C309.514 38.9391 305.33 29.0548 309.22 21.5549C313.109 14.0549 323.598 11.7795 332.648 16.4725C341.698 21.1655 345.882 31.0498 341.992 38.5498C338.103 46.0497 327.614 48.3252 318.564 43.6322Z" fill="white"/>
<path d="M373.128 2.13221L428.241 6.61487L424.885 47.8771L369.772 43.3944L373.128 2.13221Z" fill="#4C2BBF"/>
<path d="M375.578 5.02778L425.208 9.06451L422.298 44.8444L372.667 40.8076L375.578 5.02778Z" fill="#4C2BBF"/>
<path opacity="0.5" d="M375.578 5.02778L425.208 9.06451L422.298 44.8444L372.667 40.8076L375.578 5.02778Z" fill="white"/>
<path d="M373.061 35.9559L372.668 40.8195L422.3 44.8493L423.712 27.4562L414.205 17.6595L397.796 31.2544L390.223 24.7349L373.061 35.9559Z" fill="#4C2BBF"/>
<path opacity="0.3" d="M373.061 35.9559L372.668 40.8195L422.3 44.8493L423.712 27.4562L414.205 17.6595L397.796 31.2544L390.223 24.7349L373.061 35.9559Z" fill="white"/>
<path d="M383.078 15.1351C382.904 17.3468 384.537 19.2807 386.749 19.4544C388.961 19.6281 390.894 17.9953 391.068 15.7835C391.242 13.5718 389.609 11.6379 387.397 11.4642C385.185 11.2905 383.252 12.9233 383.078 15.1351Z" fill="#4C2BBF"/>
<path opacity="0.3" d="M383.078 15.1351C382.904 17.3468 384.537 19.2807 386.749 19.4544C388.961 19.6281 390.894 17.9953 391.068 15.7835C391.242 13.5718 389.609 11.6379 387.397 11.4642C385.185 11.2905 383.252 12.9233 383.078 15.1351Z" fill="white"/>
<path d="M478.961 50.8593L481.091 49.5508C481.867 49.076 482.828 48.995 483.639 49.3308L493.1 53.2912C493.91 53.627 494.478 54.3565 494.605 55.2134L494.953 57.5526C495.08 58.4095 495.647 59.1275 496.458 59.4749L502.109 61.8372C503.452 62.4046 504.02 63.9332 503.371 65.2533L488.317 96.1024C487.669 97.4225 486.059 98.0478 484.704 97.4804L439.936 78.7556C438.593 78.1882 438.025 76.6596 438.674 75.3395L453.728 44.4903C454.376 43.1702 455.986 42.5449 457.341 43.1123L476.413 51.0909C477.224 51.4268 478.185 51.3457 478.961 50.8709V50.8593Z" fill="#4C2BBF"/>
<path d="M451.609 44.2472L492.625 61.3971C494.339 62.1151 495.265 64.1184 494.709 65.8786L485.723 94.2843C485.167 96.0445 483.326 96.8898 481.624 96.1719L440.608 79.0219C438.894 78.3039 437.967 76.3006 438.523 74.5404L447.509 46.1347C448.065 44.3745 449.906 43.5292 451.609 44.2472Z" fill="#4C2BBF"/>
<path opacity="0.5" d="M451.609 44.2472L492.625 61.3971C494.339 62.1151 495.265 64.1184 494.709 65.8786L485.723 94.2843C485.167 96.0445 483.326 96.8898 481.624 96.1719L440.608 79.0219C438.894 78.3039 437.967 76.3006 438.523 74.5404L447.509 46.1347C448.065 44.3745 449.906 43.5292 451.609 44.2472Z" fill="white"/>
<path d="M302.84 112.419C302.342 110.068 302.064 107.636 302.064 105.146C302.064 86.0741 317.524 70.6148 336.596 70.6148C338.773 70.6148 340.904 70.8233 342.976 71.2054C343.857 71.0433 344.76 71.1938 345.663 71.1012C352.078 57.0315 366.241 47.5359 382.707 47.5359H395.445C417.934 47.5359 436.172 65.4849 436.172 87.9733C436.172 88.2743 436.161 88.4249 436.149 88.726C452.187 91.6673 464.346 105.378 464.346 122.273C464.346 141.299 448.922 156.388 429.896 156.388H304.832C292.522 156.388 282.54 146.661 282.54 134.351C282.54 122.713 291.457 113.426 302.829 112.419H302.84Z" fill="#4C2BBF"/>
<path opacity="0.5" d="M302.84 112.419C302.342 110.068 302.064 107.636 302.064 105.146C302.064 86.0741 317.524 70.6148 336.596 70.6148C338.773 70.6148 340.904 70.8233 342.976 71.2054C343.857 71.0433 344.76 71.1938 345.663 71.1012C352.078 57.0315 366.241 47.5359 382.707 47.5359H395.445C417.934 47.5359 436.172 65.4849 436.172 87.9733C436.172 88.2743 436.161 88.4249 436.149 88.726C452.187 91.6673 464.346 105.378 464.346 122.273C464.346 141.299 448.922 156.388 429.896 156.388H304.832C292.522 156.388 282.54 146.661 282.54 134.351C282.54 122.713 291.457 113.426 302.829 112.419H302.84Z" fill="white"/>
<path opacity="0.4" d="M302.84 112.419C302.342 110.068 302.064 107.636 302.064 105.146C302.064 86.0741 317.524 70.6148 336.596 70.6148C338.773 70.6148 340.904 70.8233 342.976 71.2054C343.856 71.0433 344.76 71.1938 345.663 71.1012C352.078 57.0315 366.241 47.5359 382.707 47.5359C384.873 47.5359 380.542 47.5359 382.707 47.5359C405.196 47.5359 423.434 65.4849 423.434 87.9733C423.434 88.2743 423.423 88.4249 423.411 88.726C439.449 91.6673 451.608 105.378 451.608 122.273C451.608 141.299 436.184 156.388 417.158 156.388H304.832C292.522 156.388 282.54 146.661 282.54 134.351C282.54 122.713 291.457 113.426 302.829 112.419H302.84Z" fill="white"/>
<path d="M269.038 213.13H308.028C339.954 213.13 365.928 187.156 365.928 155.23V143.65H377.508V155.23C377.508 193.537 346.335 224.71 308.028 224.71H269.038V213.13Z" fill="#4C2BBF"/>
<path d="M371.857 135.938L381.897 145.966H361.829L371.857 135.938Z" fill="#4C2BBF"/>
<path d="M458.244 361.736L465.122 340.51C465.122 340.51 454.897 330.864 440.028 333.759L434.238 353.642L458.232 361.748L458.244 361.736Z" fill="#4C2BBF"/>
<path opacity="0.7" d="M458.244 361.736L465.122 340.51C465.122 340.51 454.897 330.864 440.028 333.759L434.238 353.642L458.232 361.748L458.244 361.736Z" fill="white"/>
<g opacity="0.2">
<path d="M461.88 345.524C461.88 345.524 460.919 344.378 459.135 343C458.255 342.305 457.155 341.587 455.928 340.892C455.302 340.556 454.654 340.22 453.982 339.919C453.287 339.653 452.616 339.317 451.886 339.109C451.168 338.877 450.45 338.646 449.721 338.507C449.362 338.426 449.003 338.344 448.644 338.263C448.285 338.217 447.926 338.171 447.567 338.124C447.219 338.09 446.872 338.032 446.536 338.009C446.2 338.009 445.865 337.997 445.54 337.985C444.892 337.962 444.278 337.962 443.722 338.043C443.155 338.101 442.645 338.148 442.194 338.229C441.754 338.333 441.36 338.425 441.047 338.495C440.41 338.646 440.063 338.75 440.063 338.75C440.063 338.75 440.445 338.75 441.082 338.715C441.406 338.692 441.788 338.68 442.24 338.657C442.692 338.669 443.19 338.692 443.734 338.715C444.278 338.715 444.869 338.784 445.482 338.854C446.108 338.912 446.756 338.993 447.416 339.132C447.752 339.19 448.088 339.259 448.435 339.317C448.771 339.41 449.119 339.491 449.454 339.583C450.149 339.734 450.832 339.966 451.516 340.197C452.21 340.394 452.871 340.695 453.542 340.938C454.191 341.228 454.851 341.494 455.464 341.784C456.067 342.096 456.68 342.363 457.225 342.675C457.78 342.965 458.302 343.254 458.776 343.532C459.726 344.088 460.513 344.563 461.046 344.933C461.579 345.292 461.891 345.501 461.891 345.501L461.88 345.524Z" fill="black"/>
<path d="M461.266 347.469C461.266 347.469 461 347.238 460.49 346.879C459.98 346.531 459.263 346.01 458.348 345.466C457.433 344.922 456.344 344.32 455.14 343.764C453.936 343.185 452.616 342.664 451.272 342.189C450.589 341.981 449.917 341.761 449.234 341.575C448.551 341.402 447.891 341.228 447.219 341.112C446.559 340.996 445.922 340.857 445.309 340.811C444.695 340.753 444.127 340.672 443.583 340.672C442.506 340.637 441.626 340.684 441.001 340.765C440.387 340.823 440.028 340.88 440.028 340.88C440.028 340.88 440.387 340.927 441.001 340.985C441.302 341.019 441.684 341.031 442.101 341.1C442.518 341.17 442.993 341.263 443.514 341.332C444.023 341.402 444.579 341.552 445.17 341.656C445.76 341.749 446.362 341.957 446.988 342.096C447.625 342.224 448.262 342.479 448.922 342.641C449.582 342.826 450.23 343.057 450.89 343.266C453.519 344.146 456.101 345.223 458.035 346.045C458.996 346.462 459.818 346.798 460.374 347.064C460.942 347.319 461.266 347.458 461.266 347.458V347.469Z" fill="black"/>
<path d="M459.633 351.407C459.633 351.407 459.39 351.164 458.927 350.77C458.452 350.388 457.781 349.843 456.924 349.253C456.067 348.674 455.036 348.014 453.89 347.412C452.743 346.786 451.469 346.23 450.172 345.709C448.852 345.246 447.521 344.829 446.224 344.586C445.575 344.482 444.961 344.331 444.359 344.297C443.757 344.25 443.19 344.181 442.669 344.192C442.147 344.192 441.661 344.215 441.244 344.239C440.816 344.262 440.457 344.343 440.156 344.378C439.554 344.47 439.218 344.54 439.218 344.54C439.218 344.54 439.565 344.574 440.167 344.598C440.468 344.621 440.827 344.598 441.244 344.667C441.661 344.725 442.124 344.794 442.622 344.852C443.12 344.91 443.664 345.061 444.232 345.153C444.799 345.235 445.39 345.443 446.004 345.582C446.617 345.709 447.231 345.964 447.868 346.138C448.505 346.335 449.13 346.578 449.767 346.798C450.392 347.053 451.029 347.273 451.643 347.539C452.245 347.817 452.871 348.037 453.438 348.326C454.608 348.836 455.661 349.38 456.588 349.832C457.503 350.295 458.278 350.677 458.8 350.967C459.332 351.256 459.633 351.418 459.633 351.418V351.407Z" fill="black"/>
<path d="M458.66 354.116C458.66 354.116 457.722 353.132 456.055 351.963C455.221 351.384 454.202 350.758 453.067 350.179C452.5 349.89 451.898 349.623 451.272 349.357C450.635 349.137 450.01 348.871 449.35 348.674C448.69 348.489 448.042 348.28 447.37 348.164C446.71 348.014 446.061 347.91 445.413 347.852C444.776 347.771 444.151 347.724 443.56 347.747C442.969 347.747 442.414 347.736 441.904 347.817C441.395 347.875 440.931 347.933 440.526 348.002C440.121 348.106 439.773 348.187 439.484 348.257C438.905 348.407 438.592 348.5 438.592 348.5C438.592 348.5 438.94 348.5 439.519 348.477C439.808 348.465 440.167 348.442 440.572 348.419C440.978 348.442 441.441 348.465 441.927 348.477C442.425 348.477 442.958 348.558 443.514 348.604C444.081 348.639 444.66 348.743 445.262 348.859C445.876 348.94 446.49 349.102 447.115 349.253C447.752 349.38 448.366 349.589 449.003 349.774C450.265 350.144 451.492 350.619 452.627 351.094C453.762 351.58 454.816 352.067 455.707 352.518C456.599 352.97 457.352 353.352 457.85 353.642C458.359 353.931 458.66 354.105 458.66 354.105V354.116Z" fill="black"/>
<path d="M457.317 357.718C457.317 357.718 457.086 357.475 456.634 357.092C456.182 356.71 455.546 356.166 454.723 355.575C453.901 354.996 452.917 354.336 451.794 353.734C451.238 353.422 450.659 353.121 450.057 352.843C449.454 352.553 448.818 352.31 448.192 352.044C447.555 351.824 446.907 351.604 446.27 351.407C445.621 351.233 444.985 351.059 444.348 350.955C443.711 350.862 443.109 350.723 442.518 350.7C441.927 350.666 441.383 350.619 440.874 350.631C440.364 350.654 439.889 350.689 439.484 350.723C439.079 350.758 438.72 350.862 438.43 350.909C437.851 351.025 437.527 351.117 437.527 351.117C437.527 351.117 437.863 351.14 438.453 351.14C438.743 351.14 439.09 351.117 439.496 351.164C439.901 351.21 440.353 351.268 440.839 351.302C441.325 351.36 441.846 351.476 442.402 351.557C442.958 351.638 443.525 351.824 444.128 351.951C444.73 352.078 445.32 352.322 445.946 352.472C446.559 352.669 447.173 352.901 447.787 353.121C448.389 353.364 449.014 353.584 449.605 353.85C450.196 354.116 450.786 354.348 451.342 354.626C452.465 355.135 453.496 355.68 454.388 356.12C455.268 356.595 456.009 356.965 456.518 357.255C457.028 357.544 457.329 357.706 457.329 357.706L457.317 357.718Z" fill="black"/>
</g>
<path d="M461.255 361.887L446.965 351.059C446.618 350.793 446.166 350.689 445.726 350.77L429.433 353.873C427.985 354.151 427.684 356.085 428.981 356.78L442.437 364.064C442.657 364.179 442.9 364.249 443.144 364.249L460.282 364.689C461.799 364.724 462.482 362.801 461.266 361.875L461.255 361.887Z" fill="#4C2BBF"/>
<path d="M435.535 368.302C435.535 368.302 413.603 315.231 409.735 311.942C405.879 308.665 381.364 322.908 381.364 322.908L403.169 378.921L435.524 368.302H435.535Z" fill="#4C2BBF"/>
<path opacity="0.2" d="M429.236 367.908C429.236 367.908 408.241 317.211 405.115 315.022C401.988 312.834 384.074 322.167 384.074 322.167C384.074 322.167 402.729 310.784 408.461 312.706C414.182 314.64 433.683 366.75 433.683 366.75L429.247 367.908H429.236Z" fill="black"/>
<path d="M385.035 363.091H478.185V418.096H385.035V363.091Z" fill="#263238"/>
<path opacity="0.2" d="M385.035 363.091H478.185V418.096H385.035V363.091Z" fill="white"/>
<path opacity="0.4" d="M385.035 363.091H442.865V418.096H385.035V363.091Z" fill="white"/>
<path d="M442.865 363.67L420.933 346.01L372.007 349.334L385.035 363.67H442.865Z" fill="#263238"/>
<path d="M442.866 363.67L459.437 344.563L494.466 348.326L478.185 363.091L442.866 363.67Z" fill="#263238"/>
<path opacity="0.1" d="M442.866 363.67L459.437 344.563L494.466 348.326L478.185 363.091L442.866 363.67Z" fill="white"/>
<path opacity="0.4" d="M442.865 363.67L420.933 346.01L372.007 349.334L385.035 363.67H442.865Z" fill="white"/>
<path d="M402.671 388.405C410.835 388.405 417.459 395.029 417.459 403.192C417.459 411.356 410.835 417.98 402.671 417.98C394.507 417.98 387.884 411.356 387.884 403.192C387.884 395.029 394.507 388.405 402.671 388.405ZM402.671 409.098C405.925 409.098 408.566 406.458 408.566 403.204C408.566 399.95 405.925 397.31 402.671 397.31C399.417 397.31 396.777 399.95 396.777 403.204C396.777 406.458 399.417 409.098 402.671 409.098Z" fill="#4C2BBF"/>
<path opacity="0.7" d="M389.331 396.777C389.598 396.233 389.899 395.7 390.234 395.191C390.663 394.507 391.161 393.859 391.717 393.257C394.183 390.536 397.646 388.741 401.525 388.463C401.907 388.416 402.289 388.405 402.671 388.405C410.835 388.405 417.459 395.029 417.459 403.204C417.459 404.443 417.308 405.647 417.019 406.794C416.88 407.361 416.706 407.917 416.486 408.461C416.185 409.284 415.803 410.071 415.351 410.812C412.978 414.772 408.797 417.517 403.957 417.934C403.528 417.969 403.1 417.992 402.671 417.992C394.496 417.992 387.872 411.368 387.872 403.204C387.872 400.9 388.393 398.723 389.331 396.777ZM402.671 409.098C402.857 409.098 403.042 409.087 403.227 409.064C405.451 408.867 407.315 407.419 408.126 405.439C408.264 405.103 408.369 404.756 408.45 404.397C408.484 404.177 408.519 403.957 408.531 403.725C408.554 403.551 408.566 403.378 408.566 403.204C408.566 399.938 405.925 397.298 402.671 397.298C402.532 397.298 402.393 397.298 402.254 397.321C400.992 397.402 399.846 397.877 398.931 398.618C398.699 398.815 398.479 399.024 398.283 399.255C398.109 399.441 397.958 399.637 397.819 399.846C397.148 400.795 396.766 401.953 396.766 403.204C396.766 406.458 399.406 409.098 402.671 409.098Z" fill="white"/>
<path opacity="0.2" d="M403.227 409.063L403.957 417.934C408.797 417.517 412.977 414.772 415.351 410.812L408.125 405.439C407.315 407.419 405.45 408.867 403.227 409.063Z" fill="white"/>
<path opacity="0.2" d="M391.717 393.257L398.931 398.618C399.846 397.877 400.992 397.402 402.255 397.321L401.525 388.463C397.646 388.741 394.183 390.536 391.717 393.257Z" fill="white"/>
<path opacity="0.2" d="M408.45 404.397L416.486 408.461C416.706 407.917 416.88 407.361 417.019 406.794L408.531 403.725C408.531 403.957 408.485 404.177 408.45 404.397Z" fill="white"/>
<path opacity="0.2" d="M389.331 396.777L397.819 399.846C397.958 399.637 398.109 399.441 398.282 399.255L390.234 395.191C389.899 395.7 389.597 396.233 389.331 396.777Z" fill="white"/>
<path d="M391.867 392.516C400.031 392.516 404.408 398.213 401.641 405.254C398.873 412.294 390.003 417.992 381.827 417.992C373.652 417.992 369.286 412.294 372.054 405.254C374.821 398.213 383.692 392.516 391.867 392.516ZM384.85 410.337C388.104 410.337 391.647 408.068 392.747 405.254C393.847 402.451 392.11 400.17 388.845 400.17C385.579 400.17 382.047 402.44 380.947 405.254C379.847 408.056 381.584 410.337 384.85 410.337Z" fill="#4C2BBF"/>
<path opacity="0.1" d="M375.69 399.718C376.141 399.255 376.628 398.792 377.126 398.352C377.786 397.761 378.504 397.206 379.268 396.684C382.661 394.345 386.725 392.794 390.697 392.55C391.091 392.516 391.485 392.504 391.867 392.504C400.031 392.504 404.408 398.213 401.629 405.254C401.212 406.319 400.645 407.361 399.973 408.346C399.637 408.832 399.278 409.318 398.873 409.781C398.294 410.488 397.645 411.171 396.939 411.808C393.222 415.224 388.115 417.586 383.124 417.945C382.684 417.98 382.244 417.992 381.815 417.992C373.64 417.992 369.263 412.283 372.03 405.254C372.818 403.273 374.068 401.398 375.666 399.718H375.69ZM384.849 410.326C385.035 410.326 385.22 410.326 385.417 410.291C387.71 410.117 390.06 408.878 391.543 407.164C391.797 406.875 392.017 406.574 392.226 406.261C392.33 406.076 392.446 405.879 392.539 405.682C392.62 405.532 392.689 405.381 392.747 405.231C393.859 402.417 392.11 400.147 388.856 400.147C388.717 400.147 388.578 400.147 388.428 400.17C387.142 400.24 385.834 400.645 384.664 401.282C384.363 401.455 384.074 401.629 383.796 401.826C383.564 401.988 383.344 402.15 383.136 402.336C382.14 403.158 381.364 404.154 380.947 405.231C379.847 408.033 381.584 410.303 384.849 410.303V410.326Z" fill="white"/>
<path opacity="0.2" d="M385.417 410.303L383.136 417.945C388.115 417.586 393.234 415.224 396.951 411.808L391.543 407.176C390.061 408.878 387.71 410.129 385.417 410.303Z" fill="white"/>
<path opacity="0.2" d="M379.268 396.684L384.664 401.305C385.834 400.668 387.142 400.263 388.428 400.193L390.709 392.562C386.737 392.805 382.661 394.345 379.28 396.696L379.268 396.684Z" fill="white"/>
<path opacity="0.2" d="M392.215 406.284L398.873 409.781C399.278 409.318 399.637 408.832 399.973 408.346L392.527 405.705C392.435 405.902 392.33 406.099 392.215 406.284Z" fill="white"/>
<path opacity="0.2" d="M375.69 399.718L383.136 402.359C383.344 402.173 383.564 402.011 383.796 401.849L377.126 398.352C376.616 398.792 376.13 399.255 375.69 399.718Z" fill="white"/>
<path d="M147.761 318.508L147.344 336.538L145.445 418.096H139.18L137.293 336.538L136.876 318.508H147.761Z" fill="#4C2BBF"/>
<path opacity="0.4" d="M147.761 318.508L147.344 336.538L145.445 418.096H139.18L137.293 336.538L136.876 318.508H147.761Z" fill="white"/>
<path opacity="0.2" d="M147.761 318.508L147.344 337.036H137.293L136.876 318.508H147.761Z" fill="black"/>
<path d="M181.783 417.806L175.993 319.782H166.532L174.626 417.806H181.783Z" fill="#4C2BBF"/>
<path opacity="0.5" d="M174.615 417.806H181.771L176.514 328.582L175.993 319.666H166.532L167.262 328.582L174.615 417.806Z" fill="white"/>
<path opacity="0.2" d="M166.532 319.666L167.262 328.93H176.514L175.993 319.666H166.532Z" fill="black"/>
<path d="M109.987 417.806L118.093 319.782H108.632L102.842 417.806H109.987Z" fill="#4C2BBF"/>
<path opacity="0.5" d="M110.01 417.806L117.363 328.582L118.093 319.666H108.632L108.111 328.582L102.853 417.806H110.01Z" fill="white"/>
<path opacity="0.2" d="M118.093 319.666L117.363 328.93H108.111L108.632 319.666H118.093Z" fill="black"/>
<path d="M103.572 323.163H181.065V315.416C181.065 312.22 178.471 309.626 175.275 309.626H109.362C106.165 309.626 103.572 312.22 103.572 315.416V323.163Z" fill="#4C2BBF"/>
<path d="M182.443 323.163H102.182C100.896 323.163 99.8542 322.121 99.8542 320.835V318.728C99.8542 317.442 100.896 316.4 102.182 316.4H182.443C183.728 316.4 184.77 317.442 184.77 318.728V320.835C184.77 322.121 183.728 323.163 182.443 323.163Z" fill="#4C2BBF"/>
<path opacity="0.6" d="M182.443 323.163H102.182C100.896 323.163 99.8542 322.121 99.8542 320.835V318.728C99.8542 317.442 100.896 316.4 102.182 316.4H182.443C183.728 316.4 184.77 317.442 184.77 318.728V320.835C184.77 322.121 183.728 323.163 182.443 323.163Z" fill="white"/>
<path d="M170.122 199.813C170.122 199.813 170.446 200.693 171.037 202.14C171.639 203.646 172.53 205.765 173.63 208.15C176.294 213.952 180.162 221.305 184.203 225.277C185.396 226.447 186.6 227.327 187.793 227.779C192.101 229.435 202.905 229.736 212.551 229.643C222.046 229.562 230.442 229.064 230.442 229.064V221.757L198.724 213.304C198.724 213.304 182.003 183.126 172.113 178.656L170.122 199.813Z" fill="#263238"/>
<path opacity="0.2" d="M171.037 202.14C171.639 203.646 172.53 205.765 173.63 208.15C176.294 213.952 180.162 221.305 184.203 225.277C188.314 210.131 173.109 195.714 173.109 195.714L171.037 202.14Z" fill="black"/>
<path d="M175.136 409.735L184.365 408.461L185.639 386.54L176.433 387.814L175.136 409.735Z" fill="#EBB376"/>
<path opacity="0.2" d="M176.433 387.814L185.639 386.552L184.91 399.082L175.704 399.892L176.433 387.814Z" fill="black"/>
<path d="M175.507 280.827L173.26 266.722L121.544 263.63C121.544 263.63 116.043 292.974 120.27 300.79C127.809 314.744 168.466 307.704 180.359 309.07C173.248 338.148 173.943 394.971 173.943 394.971L190.931 396.268C190.931 396.268 204.005 335.033 206.645 305.944C208.429 286.316 192.159 286.802 175.507 280.827Z" fill="#4C2BBF"/>
<path d="M171.952 395.77L192.367 397.113L194.116 388.37L171.685 387.328L171.952 395.77Z" fill="#4C2BBF"/>
<path d="M196.42 401.548L205.707 402.231L211.521 381.04L202.245 380.38L196.42 401.548Z" fill="#EBB376"/>
<path d="M206.958 402.544C206.958 402.544 207.109 402.532 207.109 402.521C207.143 402.382 207.583 399.788 208.707 399.163C209.008 399.012 209.32 398.989 209.645 399.116C210.004 399.232 210.224 399.579 210.212 399.962C210.177 400.541 209.552 401.27 208.846 401.849C209.818 401.641 210.918 401.525 211.451 401.919C211.671 402.092 211.787 402.37 211.764 402.648C211.798 403.1 211.567 403.517 211.185 403.737C210.606 403.957 209.957 403.945 209.378 403.714C208.591 403.47 207.826 403.146 207.109 402.741C207.085 402.741 207.051 402.741 207.027 402.741C207.004 402.718 207.016 402.695 207.004 402.671C206.981 402.648 206.97 402.613 206.97 402.579L206.958 402.544ZM209.749 399.95C209.76 399.823 209.726 399.661 209.436 399.533L209.332 399.498C209.158 399.452 208.984 399.475 208.834 399.568C208.162 399.927 207.688 401.328 207.467 402.185C207.537 402.162 207.595 402.139 207.676 402.115C208.591 401.618 209.656 400.564 209.737 399.938L209.749 399.95ZM210.965 403.343C211.196 403.192 211.335 402.926 211.324 402.637C211.335 402.498 211.277 402.359 211.173 402.278C210.652 401.884 208.95 402.22 207.722 402.59C209.239 403.355 210.432 403.632 210.965 403.331V403.343Z" fill="#4C2BBF"/>
<path opacity="0.2" d="M202.245 380.38L211.521 381.051L208.197 393.164L199.026 392.041L202.245 380.38Z" fill="black"/>
<path d="M214.67 391.67L198.319 386.865C198.319 386.865 208.081 331.767 217.982 312.66C217.241 312.417 216.256 312.104 215.041 311.745C212.852 311.085 209.945 310.263 206.529 309.313C182.767 302.724 134.606 290.368 134.606 290.368L156.608 269.837C156.608 269.837 244.245 283.2 246.063 306.291C246.932 317.396 214.67 391.67 214.67 391.67Z" fill="#4C2BBF"/>
<path d="M196.2 387.224L215.898 392.794L219.429 384.607L197.705 378.909L196.2 387.224Z" fill="#4C2BBF"/>
<path opacity="0.2" d="M215.041 311.745C212.852 311.085 209.946 310.263 206.529 309.313C207.213 303.709 207.224 297.282 204.526 294.005C199.165 287.473 185.373 283.641 177.522 282.251C170.956 281.093 148.896 278.788 148.896 278.788C148.896 278.788 177.522 276.044 206.784 284.578C221.248 288.805 218.434 302.944 215.041 311.745Z" fill="black"/>
<path d="M118.672 278.372C115.221 275.731 118.533 251.054 116.761 226.794C114.063 189.854 116.761 177.996 119.482 176.838C124.508 175.97 129.58 175.46 134.675 175.333C142.133 175.066 149.602 175.229 157.036 175.819C162.131 176.444 167.169 177.475 172.102 178.888C172.102 178.888 184.284 217.669 176.502 273.554L118.66 278.383L118.672 278.372Z" fill="#263238"/>
<path opacity="0.8" d="M115.754 207.78C115.754 207.78 115.765 207.78 115.754 207.792C115.904 213.223 116.229 219.522 116.761 226.794C118.533 251.054 115.221 275.72 118.672 278.372L176.514 273.543C180.799 242.786 179.027 217.206 176.572 200.415C171.87 193.073 162.745 184.701 158.553 181.03C157.581 182.234 155.925 183.265 153.227 183.798C148.722 184.678 143.58 182.582 139.319 180.046C135.961 183.392 129.592 190.167 126.801 195.876C126.5 196.501 126.234 197.103 126.025 197.694C124.253 202.65 118.846 196.547 116.09 188.569C115.684 193.235 115.522 199.512 115.754 207.78Z" fill="white"/>
<path d="M137.432 150.262C138.694 157.488 139.817 170.701 134.676 175.391C134.676 175.391 140.257 182.281 150.899 182.756C160.117 183.161 157.048 175.877 157.048 175.877C149.058 173.793 149.394 167.829 150.911 162.271L137.432 150.262Z" fill="#EBB376"/>
<path opacity="0.2" d="M142.932 155.149L150.911 162.259C150.54 163.556 150.285 164.876 150.135 166.208C147.078 165.698 142.944 162.247 142.689 159.028C142.527 157.731 142.619 156.411 142.932 155.137V155.149Z" fill="black"/>
<path d="M154.952 131.56C150.957 134.27 152.775 138.867 161.807 146.047C165.478 141.288 166.08 132.047 163.162 129.731C160.244 127.403 158.426 129.221 154.94 131.56H154.952Z" fill="#263238"/>
<path d="M137.779 138.995C138.207 148.757 137.976 154.477 142.804 159.572C150.077 167.227 162.189 162.965 164.679 153.273C166.902 144.565 165.837 130.067 156.365 126.025C149.613 123.107 141.774 126.222 138.856 132.973C138.034 134.872 137.675 136.934 137.779 138.995Z" fill="#EBB376"/>
<path d="M152.289 141.913C152.277 142.7 152.694 143.36 153.204 143.36C153.725 143.36 154.141 142.735 154.153 141.948C154.165 141.16 153.759 140.512 153.25 140.489C152.74 140.477 152.347 141.125 152.277 141.913H152.289Z" fill="#263238"/>
<path d="M161.309 142.075C161.298 142.874 161.715 143.523 162.224 143.523C162.745 143.523 163.174 142.909 163.197 142.098C163.209 141.299 162.792 140.651 162.282 140.651C161.761 140.651 161.333 141.276 161.309 142.075Z" fill="#263238"/>
<path d="M158.357 142.399C159.26 144.843 160.499 147.147 162.039 149.255C160.58 150.54 158.229 149.892 158.229 149.892L158.357 142.399Z" fill="#D58745"/>
<path d="M149.869 139.029C149.764 139.029 149.66 139.018 149.579 138.96C149.371 138.798 149.336 138.508 149.486 138.3C150.378 137.096 151.814 136.401 153.319 136.436C153.563 136.447 153.759 136.656 153.748 136.91C153.748 136.91 153.748 136.934 153.748 136.945C153.713 137.2 153.493 137.385 153.25 137.374C152.069 137.362 150.945 137.918 150.239 138.867C150.146 138.972 150.019 139.029 149.88 139.029H149.869Z" fill="#263238"/>
<path d="M165.467 139.111C165.281 139.111 165.119 139.006 165.05 138.844C164.587 137.756 163.625 136.957 162.467 136.69C162.213 136.656 162.039 136.412 162.074 136.158C162.108 135.903 162.34 135.729 162.595 135.764C164.065 136.077 165.293 137.072 165.895 138.45C165.999 138.682 165.895 138.96 165.675 139.064C165.617 139.087 165.548 139.111 165.478 139.111H165.467Z" fill="#263238"/>
<path d="M141.809 130.426C146.336 132.07 145.7 136.968 138.694 146.14C133.969 142.422 131.109 133.61 133.378 130.657C135.648 127.704 137.837 129.001 141.797 130.426H141.809Z" fill="#263238"/>
<path d="M132.996 146.719C133.633 149.093 135.185 151.119 137.316 152.347C140.153 153.945 142.341 151.594 142.202 148.525C142.075 145.746 140.454 141.577 137.304 141.241C134.154 140.905 132.221 143.812 132.996 146.73V146.719Z" fill="#EBB376"/>
<path d="M150.911 151.513C150.911 151.513 152.601 154.709 157.326 154.558" stroke="#263238" stroke-width="0.61374" stroke-linecap="round" stroke-linejoin="round"/>
<path d="M151.71 128.874C151.71 128.874 150.251 138.647 140.848 139.261C131.445 139.875 129.407 134.062 129.407 134.062C129.407 134.062 130.854 134.282 131.723 134.259C131.723 134.259 128.967 129.511 131.723 124.925C134.479 120.339 143.858 115.557 150.818 118.023C150.818 118.023 157.465 115.511 163.996 119.297C170.527 123.084 169.358 131.34 169.358 131.34C169.358 131.34 169.647 126.326 166.602 124.925C166.602 124.925 170.365 135.243 164.726 137.999C164.726 137.999 164.17 127.843 151.71 128.874Z" fill="#263238"/>
<path d="M167.713 221.236C167.713 221.236 201.318 220.472 203.194 220.286C205.07 220.101 213.037 215.608 214.728 215.423C216.419 215.237 220.958 222.348 221.526 224.038C222.093 225.717 208.822 230.222 207.514 230.025C206.205 229.84 203.194 228.415 203.194 228.415L168.918 232.827L167.736 221.247L167.713 221.236Z" fill="#EBB376"/>
<path d="M265.182 228.184V231.253C265.182 232.167 263.607 232.816 262.692 232.816H191.139C190.225 232.816 188.754 232.167 188.754 231.253V228.184H265.182Z" fill="#263238"/>
<path opacity="0.6" d="M265.182 228.184V231.253C265.182 232.167 263.607 232.816 262.692 232.816H191.139C190.225 232.816 188.754 232.167 188.754 231.253V228.184H265.182Z" fill="white"/>
<path opacity="0.2" d="M265.182 228.184V231.253C265.182 232.167 263.607 232.816 262.692 232.816H215.492C214.577 232.816 213.06 232.167 213.06 231.253V228.184H265.17H265.182Z" fill="black"/>
<path d="M276.658 190.56L268.135 229.33C267.857 230.604 266.618 231.658 265.367 231.658H218.839C217.6 231.658 216.801 230.338 217.09 229.064L225.602 190.711C225.891 189.449 227.119 188.812 228.369 188.812H274.898C276.148 188.812 276.936 189.298 276.658 190.56Z" fill="#263238"/>
<path opacity="0.6" d="M276.658 190.56L268.135 229.33C267.857 230.604 266.618 231.658 265.367 231.658H218.839C217.6 231.658 216.801 230.338 217.09 229.064L225.602 190.711C225.891 189.449 227.119 188.812 228.369 188.812H274.898C276.148 188.812 276.936 189.298 276.658 190.56Z" fill="white"/>
<path opacity="0.4" d="M276.658 190.56L268.135 229.33C267.857 230.604 266.618 231.658 265.367 231.658H220.414C219.163 231.658 218.376 230.338 218.654 229.064L227.176 190.711C227.454 189.449 228.693 188.812 229.944 188.812H274.898C276.148 188.812 276.936 189.298 276.658 190.56Z" fill="white"/>
<path opacity="0.2" d="M249.283 215.411C251.448 215.411 253.672 213.084 254.239 210.223C254.795 207.351 253.498 205.024 251.321 205.024C250.916 205.024 250.51 205.105 250.117 205.255C249.607 207.49 248.09 209.366 246.423 209.992C246.399 210.073 246.376 210.142 246.365 210.223C245.797 213.084 247.106 215.411 249.283 215.411Z" fill="black"/>
<path opacity="0.2" d="M115.754 207.78C115.754 207.78 115.765 207.78 115.754 207.792C120.745 215.886 127.727 224.525 134.687 224.119C141.971 223.691 134.629 208.822 126.801 195.876C126.5 196.501 126.234 197.103 126.025 197.694C124.253 202.65 118.846 196.547 116.089 188.569C115.684 193.235 115.522 199.512 115.754 207.78Z" fill="black"/>
<path d="M119.483 176.838C102.309 183.022 132.452 229.539 141.809 234.321C151.165 239.115 175.796 233.58 175.796 233.58L174.268 219.209C174.268 219.209 154.778 220.518 150.899 219.545C147.02 218.561 137.814 198.748 132.51 189.379C127.206 180.011 119.483 176.827 119.483 176.827V176.838Z" fill="#263238"/>
<path opacity="0.2" d="M171.952 395.77L192.367 397.113L194.116 388.37L171.685 387.328L171.952 395.77Z" fill="white"/>
<path opacity="0.2" d="M196.2 387.224L215.898 392.794L219.429 384.607L197.705 378.909L196.2 387.224Z" fill="white"/>
<path d="M206.611 401.282L196.548 398.479C196.2 398.364 195.83 398.549 195.714 398.896L193.004 406.724C192.761 407.593 193.259 408.496 194.127 408.739C197.648 409.666 199.385 409.92 203.82 411.125C206.541 411.877 211.845 413.614 215.712 414.054C219.592 414.495 219.928 410.65 218.318 410.117C214.52 408.843 209.98 404.895 208 402.197C207.653 401.733 207.155 401.398 206.599 401.247L206.611 401.282Z" fill="#263238"/>
<path d="M185.28 408.484C185.28 408.311 185.442 405.682 186.403 404.848C186.67 404.628 187.098 404.547 187.434 404.605C187.816 404.64 188.164 404.929 188.221 405.312C188.302 405.891 187.874 406.724 187.307 407.442C188.21 407.037 189.287 406.69 189.889 406.968C190.144 407.095 190.329 407.338 190.352 407.616C190.479 408.044 190.352 408.508 190.016 408.809C189.495 409.145 188.858 409.272 188.245 409.156C187.422 409.087 186.612 408.925 185.824 408.681C185.801 408.681 185.766 408.693 185.743 408.681C185.72 408.67 185.72 408.635 185.709 408.612C185.685 408.589 185.489 408.554 185.477 408.519C185.477 408.519 185.28 408.508 185.28 408.496V408.484ZM187.839 405.404C187.839 405.277 187.758 405.126 187.446 405.068H187.341C187.168 405.045 186.994 405.103 186.867 405.219C186.288 405.717 186.114 407.188 186.079 408.068C186.137 408.033 186.195 407.998 186.264 407.963C187.052 407.28 187.886 406.041 187.828 405.404H187.839ZM189.738 408.473C189.935 408.276 190.016 407.987 189.947 407.709C189.935 407.57 189.843 407.454 189.727 407.396C189.136 407.118 187.538 407.801 186.415 408.415C188.059 408.843 189.275 408.867 189.738 408.473Z" fill="#4C2BBF"/>
<path d="M185.06 407.35L174.638 406.701C174.279 406.666 173.955 406.921 173.908 407.292L172.889 415.525C172.831 416.428 173.515 417.204 174.406 417.262C178.042 417.424 179.791 417.332 184.377 417.575C187.191 417.748 192.738 418.339 196.628 417.969C200.508 417.598 200.033 413.765 198.365 413.58C194.382 413.128 189.113 410.198 186.635 407.987C186.195 407.604 185.651 407.384 185.072 407.35H185.06Z" fill="#263238"/>
<path d="M231.473 418.096H224.386L223.228 240.632H232.631L231.473 418.096Z" fill="#4C2BBF"/>
<path opacity="0.4" d="M232.642 240.922L232.457 269.548L231.484 418.096H224.386L223.413 269.548L223.228 240.922H232.642Z" fill="white"/>
<path opacity="0.2" d="M232.642 240.922L232.457 269.872H223.413L223.228 240.922H232.642Z" fill="black"/>
<path d="M306.789 418.096H299.702L286.953 240.632H296.367L306.789 418.096Z" fill="#4C2BBF"/>
<path opacity="0.5" d="M306.801 418.096H299.702L287.578 249.445L286.953 240.922H296.367L296.877 249.445L306.801 418.096Z" fill="white"/>
<path opacity="0.2" d="M296.877 249.028H287.578L286.953 240.922H296.367L296.877 249.028Z" fill="black"/>
<path d="M156.156 418.096H149.069L159.491 240.632H168.906L156.156 418.096Z" fill="#4C2BBF"/>
<path opacity="0.5" d="M168.906 240.922L168.281 249.445L156.156 418.096H149.069L158.982 249.445L159.491 240.922H168.906Z" fill="white"/>
<path opacity="0.2" d="M159.491 240.922H168.906L168.281 249.028H158.982L159.491 240.922Z" fill="black"/>
<path d="M154.535 245.079L301.323 245.079C302.701 245.079 303.825 243.956 303.825 242.578V236.197L152.034 236.197V242.578C152.034 243.956 153.157 245.079 154.535 245.079Z" fill="#4C2BBF"/>
<path opacity="0.6" d="M154.535 245.079L301.323 245.079C302.701 245.079 303.825 243.956 303.825 242.578V236.197L152.034 236.197V242.578C152.034 243.956 153.157 245.079 154.535 245.079Z" fill="white"/>
<path opacity="0.2" d="M303.825 240.632L152.034 240.632V236.186L303.825 236.186V240.632Z" fill="black"/>
<path d="M308.225 237.344H147.634C146.256 237.344 145.132 236.22 145.132 234.842C145.132 233.464 146.256 232.341 147.634 232.341H308.225C309.603 232.341 310.726 233.464 310.726 234.842C310.726 236.22 309.603 237.344 308.225 237.344Z" fill="#4C2BBF"/>
<path opacity="0.6" d="M308.225 237.344H147.634C146.256 237.344 145.132 236.22 145.132 234.842C145.132 233.464 146.256 232.341 147.634 232.341H308.225C309.603 232.341 310.726 233.464 310.726 234.842C310.726 236.22 309.603 237.344 308.225 237.344Z" fill="white"/>
</g>
<defs>
<clipPath id="clip0_24_2746">
<rect width="579" height="431.482" fill="white" transform="matrix(-1 0 0 1 579 0)"/>
</clipPath>
</defs>
</svg>
