<svg width="66" height="66" viewBox="0 0 66 66" fill="none" xmlns="http://www.w3.org/2000/svg">
<path d="M61.877 32.2026V19.136C61.877 16.5118 59.7497 14.3845 57.1255 14.3845H8.02687C5.4027 14.3845 3.27539 16.5118 3.27539 19.136V45.2691C3.27539 47.8933 5.4027 50.0206 8.02687 50.0206H32.5762H45.5885" stroke="#4C2BBF" stroke-width="3.16765" stroke-linecap="round"/>
<line opacity="0.5" x1="1.69238" y1="24.6794" x2="63.4616" y2="24.6794" stroke="#4C2BBF" stroke-width="3.16765"/>
<path d="M57.9122 36.5101C57.4483 36.0463 56.6962 36.0463 56.2323 36.5101L48.6728 44.0697C48.2089 44.5336 48.2089 45.2857 48.6728 45.7496C49.1366 46.2135 49.8888 46.2135 50.3527 45.7496L57.0723 39.03L63.7919 45.7496C64.2558 46.2135 65.0079 46.2135 65.4718 45.7496C65.9357 45.2857 65.9357 44.5336 65.4718 44.0697L57.9122 36.5101ZM55.8844 51.6045C55.8844 52.2606 56.4162 52.7924 57.0723 52.7924C57.7283 52.7924 58.2601 52.2606 58.2601 51.6045H55.8844ZM55.8844 37.3501V51.6045H58.2601V37.3501H55.8844Z" fill="#4C2BBF"/>
</svg>
