<svg width="150" height="150" viewBox="0 0 150 150" fill="none" xmlns="http://www.w3.org/2000/svg">
<path d="M73.854 0.00789501C54.3385 0.292345 35.702 8.17058 21.9 21.9705C10.1581 33.7456 2.66082 49.088 0.58625 65.5872C-1.48832 82.0863 1.97734 98.8072 10.4387 113.123L1.62459 148.35L36.7793 139.551C51.1038 148.023 67.8386 151.492 84.3505 149.412C100.862 147.331 116.214 139.82 127.99 128.06C142.056 113.991 149.958 94.9102 149.958 75.0153C149.958 55.1204 142.056 36.0401 127.99 21.9705C120.893 14.8754 112.446 9.27593 103.147 5.5035C93.8486 1.73106 83.8877 -0.137672 73.854 0.00789501ZM63.8035 28.3848H85.9697L83.3371 86.2148H66.4361L63.8035 28.3848ZM74.8866 98.2288C78.2311 98.2288 81.0488 99.4159 83.3371 101.792C85.7135 104.081 86.9006 106.855 86.9006 110.112C86.9006 113.456 85.7135 116.317 83.3371 118.693C81.0488 120.982 78.2311 122.126 74.8866 122.126C71.6301 122.126 68.8125 120.982 66.4361 118.693C64.1478 116.317 63.0036 113.456 63.0036 110.112C63.0036 106.855 64.1478 104.081 66.4361 101.792C68.8125 99.4159 71.6301 98.2288 74.8866 98.2288Z" fill="#C73734"/>
</svg>
