<svg width="53" height="53" viewBox="0 0 53 53" fill="none" xmlns="http://www.w3.org/2000/svg">
<g clip-path="url(#clip0_28_5333)">
<path d="M39.9511 18.3768V12.2333C40.763 11.8539 41.4503 11.2517 41.9333 10.4968C42.4162 9.74186 42.6747 8.86531 42.6789 7.96917V7.82821C42.6789 5.21536 40.5607 3.09723 37.9481 3.09723H37.8069C35.1941 3.09723 33.0759 5.21536 33.0759 7.82821V7.96917C33.0801 8.86531 33.3386 9.74186 33.8216 10.4968C34.3045 11.2517 34.9919 11.8539 35.8037 12.2333V18.3768C33.4704 18.7342 31.2729 19.7017 29.4337 21.1814L12.5848 8.05787C12.7049 7.62416 12.7676 7.17817 12.7747 6.73052C12.7767 5.67615 12.4661 4.64486 11.8819 3.76709C11.2978 2.88933 10.4664 2.20452 9.49306 1.79929C8.51967 1.39406 7.44797 1.28661 6.41352 1.49055C5.37906 1.69448 4.42832 2.20063 3.68156 2.94497C2.9348 3.68931 2.42557 4.6384 2.21829 5.67219C2.011 6.70599 2.11496 7.77803 2.51703 8.75272C2.9191 9.72742 3.60121 10.561 4.47708 11.148C5.35295 11.7349 6.38323 12.049 7.4376 12.0503C8.35998 12.046 9.26508 11.7997 10.0625 11.3362L26.6539 24.2467C23.6036 28.8547 23.6852 34.8601 26.8594 39.3837L21.8132 44.4314C21.4051 44.3011 20.9803 44.2317 20.552 44.2259C18.1353 44.228 16.1775 46.1879 16.1781 48.6046C16.1787 51.0211 18.1378 52.9799 20.5543 52.9806C22.971 52.9812 24.9309 51.0234 24.933 48.6067C24.9273 48.1785 24.858 47.7535 24.7273 47.3457L29.7194 42.3518C34.1799 45.7856 40.3061 46.0815 45.0768 43.0934C49.8474 40.1052 52.2549 34.4639 51.1119 28.9521C49.9688 23.4401 45.5166 19.2218 39.9511 18.3768ZM37.8819 38.5823C36.9596 38.6071 36.0417 38.4469 35.1824 38.1111C34.3231 37.7753 33.5398 37.2708 32.8787 36.6272C32.2176 35.9837 31.6922 35.2142 31.3334 34.3642C30.9746 33.5143 30.7897 32.601 30.7897 31.6784C30.7897 30.7558 30.9746 29.8426 31.3334 28.9926C31.6922 28.1427 32.2176 27.3732 32.8787 26.7296C33.5398 26.0861 34.3231 25.5815 35.1824 25.2458C36.0417 24.91 36.9596 24.7497 37.8819 24.7746C41.5985 24.9047 44.5447 27.9544 44.5467 31.6734C44.5484 35.3921 41.6053 38.4449 37.8888 38.5788" fill="#FF7A59"/>
</g>
<defs>
<clipPath id="clip0_28_5333">
<rect width="52.3125" height="52.3125" fill="white" transform="translate(0.668945 0.668701)"/>
</clipPath>
</defs>
</svg>
