<svg width="67" height="66" viewBox="0 0 67 66" fill="none" xmlns="http://www.w3.org/2000/svg">
<circle opacity="0.5" cx="24.7387" cy="32.9999" r="24.5385" fill="#4C2BBF"/>
<circle opacity="0.5" cx="41.6615" cy="32.9999" r="24.5385" fill="#4C2BBF"/>
<mask id="mask0_53_5288" style="mask-type:alpha" maskUnits="userSpaceOnUse" x="17" y="8" width="50" height="50">
<circle cx="24.5385" cy="24.5385" r="24.5385" transform="matrix(-1 0 0 1 66.2002 8.46143)" fill="#322E3D"/>
</mask>
<g mask="url(#mask0_53_5288)">
<path fill-rule="evenodd" clip-rule="evenodd" d="M61.1256 5.07709L96.6641 59.2309L95.9549 59.9359L60.4164 5.78209L61.1256 5.07709ZM56.0487 5.07709L91.5871 59.2309L90.8779 59.9359L55.3395 5.78209L56.0487 5.07709ZM86.5102 59.2309L50.9718 5.07709L50.2626 5.78209L85.801 59.9359L86.5102 59.2309ZM45.8948 5.07709L81.4333 59.2309L80.7241 59.9359L45.1856 5.78209L45.8948 5.07709ZM76.3564 59.2309L40.8179 5.07709L40.1087 5.78209L75.6472 59.9359L76.3564 59.2309ZM35.741 5.07709L71.2794 59.2309L70.5702 59.9359L35.0318 5.78209L35.741 5.07709ZM66.2025 59.2309L30.6641 5.07709L29.9549 5.78209L65.4933 59.9359L66.2025 59.2309ZM25.5871 5.07709L61.1256 59.2309L60.4164 59.9359L24.8779 5.78209L25.5871 5.07709ZM56.0487 59.2309L20.5102 5.07709L19.801 5.78209L55.3395 59.9359L56.0487 59.2309ZM15.4333 5.07709L50.9718 59.2309L50.2626 59.9359L14.7241 5.78209L15.4333 5.07709ZM45.8948 59.2309L10.3564 5.07709L9.64716 5.78209L45.1856 59.9359L45.8948 59.2309ZM5.27945 5.07709L40.8179 59.2309L40.1087 59.9359L4.57024 5.78209L5.27945 5.07709ZM35.741 59.2309L0.20253 5.07709L-0.506676 5.78209L35.0318 59.9359L35.741 59.2309ZM-4.8744 5.07709L30.6641 59.2309L29.9548 59.9359L-5.58361 5.78209L-4.8744 5.07709ZM25.5871 59.2309L-9.95132 5.07709L-10.6605 5.78209L24.8779 59.9359L25.5871 59.2309ZM-15.0282 5.07709L20.5102 59.2309L19.801 59.9359L-15.7374 5.78209L-15.0282 5.07709Z" fill="#4C2BBF"/>
</g>
</svg>
