<svg width="66" height="66" viewBox="0 0 66 66" fill="none" xmlns="http://www.w3.org/2000/svg">
<g clip-path="url(#clip0_53_5230)">
<path d="M17.9665 34.4667H48.0332V40.1134H50.9665V31.5334H34.4665V25.6667H31.5332V31.5334H15.0332V40.1134H17.9665V34.4667Z" fill="#4C2BBF"/>
<path d="M25.667 42.1667H7.33366C6.3612 42.1667 5.42857 42.5531 4.74093 43.2407C4.0533 43.9283 3.66699 44.861 3.66699 45.8334V56.8334C3.66699 57.8059 4.0533 58.7385 4.74093 59.4261C5.42857 60.1138 6.3612 60.5001 7.33366 60.5001H25.667C26.6394 60.5001 27.5721 60.1138 28.2597 59.4261C28.9473 58.7385 29.3337 57.8059 29.3337 56.8334V45.8334C29.3337 44.861 28.9473 43.9283 28.2597 43.2407C27.5721 42.5531 26.6394 42.1667 25.667 42.1667ZM7.33366 56.8334V45.8334H25.667V56.8334H7.33366Z" fill="#4C2BBF"/>
<path opacity="0.5" d="M58.667 42.1667H40.3337C39.3612 42.1667 38.4286 42.5531 37.7409 43.2407C37.0533 43.9283 36.667 44.861 36.667 45.8334V56.8334C36.667 57.8059 37.0533 58.7385 37.7409 59.4261C38.4286 60.1138 39.3612 60.5001 40.3337 60.5001H58.667C59.6394 60.5001 60.5721 60.1138 61.2597 59.4261C61.9473 58.7385 62.3337 57.8059 62.3337 56.8334V45.8334C62.3337 44.861 61.9473 43.9283 61.2597 43.2407C60.5721 42.5531 59.6394 42.1667 58.667 42.1667ZM40.3337 56.8334V45.8334H58.667V56.8334H40.3337Z" fill="#4C2BBF"/>
<path d="M23.8337 23.8333H42.167C43.1395 23.8333 44.0721 23.447 44.7597 22.7594C45.4473 22.0718 45.8337 21.1391 45.8337 20.1667V9.16667C45.8337 8.19421 45.4473 7.26157 44.7597 6.57394C44.0721 5.88631 43.1395 5.5 42.167 5.5H23.8337C22.8612 5.5 21.9286 5.88631 21.2409 6.57394C20.5533 7.26157 20.167 8.19421 20.167 9.16667V20.1667C20.167 21.1391 20.5533 22.0718 21.2409 22.7594C21.9286 23.447 22.8612 23.8333 23.8337 23.8333ZM23.8337 9.16667H42.167V20.1667H23.8337V9.16667Z" fill="#4C2BBF"/>
</g>
<defs>
<clipPath id="clip0_53_5230">
<rect width="66" height="66" fill="white"/>
</clipPath>
</defs>
</svg>
