<svg width="64" height="64" viewBox="0 0 64 64" fill="none" xmlns="http://www.w3.org/2000/svg">
<path d="M6.04688 41.5431C8.02443 46.83 11.5688 51.3872 16.2061 54.6055C20.8434 57.8238 26.3526 59.5497 31.9973 59.5526C37.2185 59.5476 42.3323 58.069 46.7506 55.2868C51.1688 52.5046 54.7121 48.5319 56.9729 43.8255L61.724 46.8687C62.0964 44.2455 62.3897 41.5114 62.5917 38.6703C62.778 35.8529 62.881 33.0831 62.9008 30.3688C57.9053 32.72 53.0569 35.3718 48.3822 38.3097V38.3176L53.6048 41.6659C51.7165 45.8137 48.6759 49.3313 44.8451 51.8C41.0143 54.2686 36.5546 55.5842 31.9973 55.5901C27.1597 55.5873 22.4382 54.108 18.4638 51.3501C14.4894 48.5921 11.4514 44.6869 9.75578 40.1562L6.04688 41.5431ZM1.09375 33.2614C6.08927 30.9103 10.9377 28.2584 15.6123 25.3206L10.3898 21.9683C12.2775 17.8198 15.3178 14.3013 19.1487 11.8319C22.9796 9.36257 27.4395 8.04637 31.9973 8.04014C42.1888 8.04014 50.8588 14.4594 54.2388 23.4701L57.9477 22.0832C55.9695 16.7971 52.4249 12.2407 47.7876 9.02317C43.1504 5.80563 37.6415 4.08024 31.9973 4.07764C26.776 4.08268 21.6622 5.56131 17.244 8.34349C12.8257 11.1257 9.28245 15.0984 7.02165 19.8048L2.27061 16.7576C1.88648 19.4808 1.59836 22.2166 1.40679 24.96C1.21659 27.7734 1.11356 30.5471 1.09375 33.2614Z" fill="#F4F5FE"/>
</svg>
