<svg width="201" height="200" viewBox="0 0 201 200" fill="none" xmlns="http://www.w3.org/2000/svg">
<path d="M90.3444 173.438C78.7267 173.434 67.2756 170.674 56.9319 165.385C46.5882 160.095 37.647 152.427 30.8428 143.011C24.0386 133.594 19.5656 122.697 17.7912 111.216C16.0169 99.7346 16.9919 87.996 20.636 76.9647C24.2801 65.9333 30.4895 55.924 38.7539 47.7588C47.0184 39.5937 57.1021 33.5059 68.1767 29.9954C79.2513 26.4849 91.0008 25.6519 102.46 27.565C113.919 29.478 124.761 34.0824 134.094 41C135.344 42.0151 136.153 43.4729 136.354 45.0699C136.555 46.6669 136.132 48.2799 135.173 49.5729C134.215 50.8659 132.794 51.7391 131.208 52.0108C129.621 52.2825 127.991 51.9316 126.657 51.0313C115.64 42.8521 102.187 38.6282 88.4719 39.0425C74.7572 39.4569 61.5831 44.4854 51.0803 53.3147C40.5775 62.144 33.3601 74.258 30.5951 87.6975C27.8301 101.137 29.6794 115.116 35.8437 127.375C42.0081 139.633 52.1272 149.454 64.5645 155.248C77.0018 161.043 91.0302 162.473 104.381 159.307C117.732 156.141 129.624 148.564 138.135 137.802C146.646 127.04 151.278 113.721 151.282 100C151.273 96.7866 151.012 93.5788 150.501 90.4063C150.373 89.5855 150.409 88.7477 150.606 87.9407C150.802 87.1338 151.156 86.3734 151.646 85.7031C152.137 85.0328 152.754 84.4656 153.464 84.034C154.173 83.6024 154.961 83.3147 155.782 83.1875C156.603 83.0603 157.44 83.096 158.247 83.2925C159.054 83.4891 159.815 83.8427 160.485 84.3331C161.155 84.8235 161.723 85.4411 162.154 86.1507C162.586 86.8603 162.873 87.648 163.001 88.4688C163.559 92.2865 163.82 96.1418 163.782 100C163.765 119.472 156.023 138.141 142.254 151.91C128.486 165.678 109.816 173.421 90.3444 173.438Z" fill="#836ADF"/>
<path d="M98.1572 123.437C96.5022 123.43 94.9176 122.767 93.7509 121.594L64.0634 91.9062C63.0395 90.7105 62.5045 89.1726 62.5652 87.5996C62.626 86.0266 63.278 84.5345 64.3911 83.4214C65.5042 82.3083 66.9963 81.6562 68.5693 81.5955C70.1423 81.5347 71.6803 82.0698 72.8759 83.0937L98.1572 108.344L173.438 33.0937C174.634 32.0698 176.172 31.5347 177.745 31.5955C179.318 31.6562 180.81 32.3083 181.923 33.4214C183.036 34.5345 183.688 36.0266 183.749 37.5996C183.81 39.1726 183.275 40.7105 182.251 41.9062L102.563 121.594C101.397 122.767 99.8121 123.43 98.1572 123.437Z" fill="#4C2BBF"/>
</svg>
