<svg width="66" height="66" viewBox="0 0 66 66" fill="none" xmlns="http://www.w3.org/2000/svg">
<g clip-path="url(#clip0_53_5223)">
<path opacity="0.6" d="M41.1868 32.793H16.9682C14.1926 32.793 11.9346 35.051 11.9346 37.8266V46.7463C11.9346 49.5218 14.1926 51.7799 16.9682 51.7799H41.1868C43.9624 51.7799 46.2204 49.5218 46.2204 46.7463V37.8266C46.2204 35.051 43.9624 32.793 41.1868 32.793ZM44.3107 46.7463C44.3107 48.4689 42.9094 49.8701 41.1868 49.8701H16.9682C15.2456 49.8701 13.8443 48.4689 13.8443 46.7463V37.8266C13.8443 36.104 15.2456 34.7027 16.9682 34.7027H41.1868C42.9094 34.7027 44.3107 36.104 44.3107 37.8266V46.7463Z" fill="#4C2BBF"/>
<path d="M65.8799 33.7344C66.0337 33.3835 66.0403 32.9858 65.8985 32.6301C65.7567 32.2744 65.4786 31.9901 65.1261 31.8409C63.2629 31.0524 62.3884 28.8951 63.1767 27.0317C63.4849 26.3031 63.1442 25.4628 62.4157 25.1546L22.624 8.31784C22.274 8.16984 21.8797 8.16674 21.5278 8.30949C21.1757 8.45224 20.8947 8.72892 20.747 9.07888C20.365 9.98147 19.6546 10.6814 18.7463 11.0495C17.8375 11.4181 16.8408 11.4104 15.9378 11.0282C15.5849 10.8788 15.187 10.8771 14.8335 11.0232C14.4794 11.1693 14.1987 11.451 14.0536 11.8055L7.93618 26.7777H6.71346C5.92259 26.7777 5.28116 27.4191 5.28116 28.21C5.28116 30.3324 3.55475 32.0588 1.43231 32.0588C0.641435 32.0588 0 32.7002 0 33.4911V51.082C0 51.8729 0.641435 52.5143 1.43231 52.5143C3.55475 52.5143 5.28116 54.2407 5.28116 56.3632C5.28116 57.154 5.92259 57.7955 6.71346 57.7955H51.442C52.2329 57.7955 52.8743 57.154 52.8743 56.3632C52.8743 54.2407 54.6007 52.5143 56.7232 52.5143C57.31 52.5143 57.8134 52.1612 58.0349 51.6564L58.0395 51.6468C58.0411 51.643 58.0428 51.6392 58.0445 51.6351L65.8799 33.7344ZM16.2178 14.0831C17.4212 14.3001 18.6622 14.1743 19.8227 13.704C20.9881 13.2316 21.9704 12.4527 22.683 11.4529L60.1264 27.2964C59.6783 29.7669 60.7019 32.3002 62.7393 33.7659L58.156 44.2375V33.4909C58.156 32.7 57.5145 32.0586 56.7237 32.0586C54.6012 32.0586 52.8748 30.3322 52.8748 28.2097C52.8748 27.4189 52.2334 26.7774 51.4425 26.7774H11.0312L16.2178 14.0831ZM55.2911 49.8034C52.7368 50.3606 50.7209 52.3763 50.1637 54.9309H7.99227C7.43511 52.3763 5.41913 50.3606 2.86485 49.8034V34.7692C5.41913 34.212 7.43511 32.1963 7.99227 29.6418H50.1639C50.7211 32.1961 52.7368 34.212 55.2914 34.7692L55.2911 49.8034Z" fill="#4C2BBF"/>
<path opacity="0.6" d="M8.07869 34.9414H6.16895V50.1H8.07869V34.9414Z" fill="#4C2BBF"/>
</g>
<defs>
<clipPath id="clip0_53_5223">
<rect width="66" height="66" fill="white"/>
</clipPath>
</defs>
</svg>
