<svg width="66" height="66" viewBox="0 0 66 66" fill="none" xmlns="http://www.w3.org/2000/svg">
<path d="M24.75 27.5C30.8251 27.5 35.75 22.5751 35.75 16.5C35.75 10.4249 30.8251 5.5 24.75 5.5C18.6749 5.5 13.75 10.4249 13.75 16.5C13.75 22.5751 18.6749 27.5 24.75 27.5Z" stroke="#4C2BBF" stroke-width="4"/>
<path opacity="0.5" d="M34.375 11.938C35.8531 9.71506 38.3804 8.25 41.25 8.25C45.8065 8.25 49.5 11.9437 49.5 16.5C49.5 21.0563 45.8065 24.75 41.25 24.75C38.3804 24.75 35.8531 23.2849 34.375 21.062" stroke="#4C2BBF" stroke-width="4"/>
<path d="M24.75 57.75C35.3815 57.75 44 52.8251 44 46.75C44 40.6749 35.3815 35.75 24.75 35.75C14.1185 35.75 5.5 40.6749 5.5 46.75C5.5 52.8251 14.1185 57.75 24.75 57.75Z" stroke="#4C2BBF" stroke-width="4"/>
<path opacity="0.5" d="M49.5 38.5C54.324 39.5579 57.75 42.237 57.75 45.375C57.75 48.2056 54.9623 50.663 50.875 51.8936" stroke="#4C2BBF" stroke-width="4" stroke-linecap="round"/>
</svg>
